<svg width="103" height="88" viewBox="0 0 103 88" fill="none" xmlns="http://www.w3.org/2000/svg">
<path d="M16.3876 38C17.5876 45.6 21.5543 51.8333 23.3876 54L32.3876 50C31.0543 45.5 28.1869 36.3429 27.8876 35.5C26.9999 33 27.1122 32.5 25.9999 30C25.1999 28 24.3876 25 22.3876 25C20.3876 25 20.221 28 20.3876 29.5H17.4999L17.2015 28.3061C17.0696 27.7786 16.8244 27.2453 16.3401 26.9982C15.1148 26.3733 14.3152 27.7568 13.9999 29C13.1122 32.4999 13.9999 36.5 16.3876 38Z" fill="white"/>
<path fill-rule="evenodd" clip-rule="evenodd" d="M25.5189 26.266C24.9335 25.2076 23.9741 24 22.3877 24C21.6045 24 20.9629 24.3064 20.4887 24.7975C20.0401 25.2619 19.7753 25.8533 19.6144 26.41C19.4171 27.0929 19.3444 27.8368 19.3391 28.5H18.2807L18.1716 28.0636C18.0227 27.4679 17.6822 26.5602 16.7944 26.1074L16.3519 26.975L16.7944 26.1074C16.3042 25.8574 15.7803 25.7759 15.2659 25.9008C14.7696 26.0213 14.3824 26.3093 14.0956 26.6186C13.5406 27.217 13.2072 28.0581 13.0306 28.7541C12.5474 30.6595 12.5445 32.703 12.9958 34.4943C13.4036 36.1125 14.2091 37.6187 15.4697 38.5791C16.7808 46.2044 20.7346 52.4127 22.6243 54.6459C22.9113 54.9852 23.3877 55.0943 23.7938 54.9138L32.7938 50.9138C33.2526 50.7099 33.4891 50.1973 33.3465 49.7159C32.0141 45.2191 29.1395 36.0371 28.83 35.1654C28.4901 34.2082 28.3048 33.565 28.1299 32.958C28.0824 32.7932 28.0357 32.6312 27.9869 32.4663C27.7549 31.682 27.4916 30.8943 26.9215 29.6113C26.8314 29.3853 26.7355 29.1297 26.6331 28.8566C26.3261 28.0387 25.9607 27.0648 25.5189 26.266ZM24.7079 29.4234C24.8257 29.7374 24.9449 30.055 25.0715 30.3714C25.0762 30.3832 25.0811 30.3949 25.0863 30.4065C25.6231 31.613 25.8584 32.3216 26.0691 33.0337C26.1134 33.1832 26.1572 33.3354 26.2028 33.4939C26.3793 34.1068 26.5833 34.8152 26.9453 35.8346C27.2173 36.6007 29.7667 44.7344 31.1782 49.4432L23.686 52.7731C21.7971 50.2985 18.4461 44.6251 17.3754 37.844C17.3304 37.5588 17.1642 37.3069 16.9196 37.1532C16.0159 36.5855 15.3062 35.4779 14.9352 34.0057C14.5677 32.5469 14.5648 30.8404 14.9693 29.2458C15.108 28.6987 15.3321 28.2265 15.562 27.9786C15.6676 27.8647 15.7297 27.8463 15.7379 27.8443C15.7412 27.8435 15.7471 27.8421 15.7621 27.8442C15.7788 27.8465 15.8192 27.8551 15.8857 27.8891C15.9218 27.9075 15.9784 27.9499 16.0459 28.0621C16.1162 28.1792 16.1798 28.3425 16.2313 28.5487L16.5298 29.7425C16.6411 30.1877 17.0411 30.5 17.5 30.5H20.3877C20.6721 30.5 20.9431 30.3789 21.1328 30.1669C21.3225 29.955 21.4129 29.6723 21.3815 29.3896C21.3065 28.7141 21.3143 27.7321 21.5359 26.965C21.6459 26.5842 21.7873 26.3318 21.9273 26.1869C22.0415 26.0686 22.1708 26 22.3877 26C22.8012 26 23.248 26.2924 23.7687 27.234C24.1339 27.8943 24.4168 28.6481 24.7079 29.4234Z" fill="#04004F"/>
<path fill-rule="evenodd" clip-rule="evenodd" d="M24.4864 32.3356C24.3956 31.7909 23.8804 31.4228 23.3356 31.5136C23.2387 31.5298 23.1302 31.5468 23.0132 31.5651C22.5849 31.6323 22.0436 31.7172 21.5477 31.8419C20.9508 31.992 20.1543 32.2566 19.6398 32.8362C19.042 33.5097 18.2807 34.4771 18.5243 35.8921C18.6953 36.8852 19.3501 37.5775 20.1062 37.9615C20.8493 38.3389 21.7369 38.4506 22.5575 38.2998C22.9976 38.2189 23.46 38.1048 23.8852 37.9424C24.2988 37.7845 24.7467 37.5552 25.0948 37.2071C25.4853 36.8166 25.4853 36.1835 25.0948 35.7929C24.7043 35.4024 24.0711 35.4024 23.6806 35.7929C23.6139 35.8596 23.4588 35.9644 23.1719 36.074C22.8967 36.179 22.561 36.2656 22.196 36.3327C21.7783 36.4095 21.3393 36.3446 21.0118 36.1783C20.6975 36.0187 20.5379 35.8003 20.4953 35.5527C20.4209 35.1208 20.5804 34.7893 21.1355 34.1639C21.2149 34.0746 21.4745 33.9225 22.0354 33.7815C22.4339 33.6813 22.8484 33.6161 23.2642 33.5507C23.3976 33.5297 23.5312 33.5086 23.6644 33.4864C24.2092 33.3956 24.5772 32.8804 24.4864 32.3356Z" fill="#04004F"/>
<path fill-rule="evenodd" clip-rule="evenodd" d="M21.3683 29.304C21.2748 28.8366 20.8644 28.5001 20.3877 28.5001H19.5C19.4449 28.5001 19.3899 28.5047 19.3356 28.5137C19.2308 28.5312 19.1051 28.5323 18.892 28.5342C18.7894 28.5351 18.6666 28.5362 18.5161 28.5394C18.1335 28.5475 17.6132 28.5736 17.1129 28.7371C16.5842 28.9098 16.0365 29.2503 15.6899 29.8921C15.3583 30.5062 15.284 31.2624 15.3959 32.1283C15.5207 33.0934 15.6866 34.261 16.1432 35.1864C16.3811 35.6687 16.7199 36.1344 17.2159 36.4769C17.7211 36.8258 18.3221 37.0001 19 37.0001C19.5523 37.0001 20 36.5524 20 36.0001C20 35.4478 19.5523 35.0001 19 35.0001C18.6779 35.0001 18.4844 34.9224 18.3524 34.8312C18.2111 34.7336 18.0699 34.5713 17.9368 34.3015C17.6512 33.7228 17.511 32.8904 17.3794 31.872C17.2975 31.2378 17.3903 30.9524 17.4497 30.8425C17.494 30.7604 17.5612 30.6946 17.734 30.6382C17.9353 30.5724 18.2032 30.5465 18.5585 30.539C18.6157 30.5377 18.682 30.5373 18.7543 30.5367C18.9982 30.5349 19.3101 30.5326 19.5679 30.5005L19.9071 32.1962C20.0154 32.7378 20.5422 33.089 21.0838 32.9807C21.6254 32.8724 21.9766 32.3456 21.8683 31.804L21.3683 29.304Z" fill="#04004F"/>
<path d="M60.8877 52L31.5 48L23.8877 54L21.8877 56L28.3877 62C23.9877 68 20.8877 77.1667 19.8877 81C31.8877 85.4 53 87 62.8877 81.5L60.3877 70.5C62.7877 70.5 69.0544 66.1667 71.8877 64L60.8877 52Z" fill="#04004F" stroke="#04004F" stroke-width="2" stroke-linecap="round" stroke-linejoin="round"/>
<path d="M80.8877 40.5001C77.2877 41.3001 66.3877 48.5001 61.3877 52.0001L69.8877 62.0001C73.8877 61.2001 78.3333 56.5001 80 54.0001C85 53.5001 87.2755 47.3879 86.3877 46.5001C85.5 45.6123 83.8877 46.6667 82.8877 47.0001L81 45.0001C81.5 44.5001 83 44.0001 83.5 42.5001C84.1325 40.6027 82 40.2529 80.8877 40.5001Z" fill="white"/>
<path fill-rule="evenodd" clip-rule="evenodd" d="M83.2919 39.7997C82.4455 39.3805 81.3902 39.364 80.6708 39.5238L80.6708 39.5239C79.6274 39.7557 78.1662 40.4149 76.5608 41.2566C74.9263 42.1136 73.0486 43.211 71.1388 44.3858C67.3178 46.7362 63.3259 49.4226 60.8142 51.1808C60.5836 51.3422 60.4317 51.5934 60.3959 51.8726C60.36 52.1518 60.4435 52.4332 60.6258 52.6477L69.1257 62.6477C69.361 62.9244 69.7277 63.0518 70.0838 62.9806C72.3418 62.529 74.614 61.0157 76.4762 59.3911C78.1855 57.8999 79.6528 56.2235 80.5713 54.9327C83.2329 54.4937 85.1293 52.6861 86.2454 50.9324C86.8397 49.9987 87.2453 49.033 87.4406 48.2059C87.5375 47.7951 87.5913 47.3825 87.5719 47.0055C87.5545 46.6659 87.4684 46.1665 87.0949 45.7929C86.2273 44.9253 85.0863 45.1233 84.3889 45.3354C84.0101 45.4506 83.6411 45.6064 83.3355 45.7382C83.296 45.7553 83.2578 45.7718 83.2209 45.7878C83.1961 45.7985 83.1719 45.809 83.1483 45.8192L82.5232 45.1569C82.6291 45.0854 82.7396 45.0078 82.85 44.925C83.4334 44.4875 84.1089 43.8357 84.4487 42.8163C84.6637 42.1713 84.6825 41.5305 84.4324 40.9542C84.1852 40.3846 83.7368 40.02 83.2919 39.7997ZM82.5977 41.7505C82.6043 41.7657 82.6525 41.8802 82.5513 42.1838C82.3911 42.6644 82.0666 43.0126 81.65 43.325C81.4624 43.4658 81.2757 43.5854 81.0756 43.7137C81.0475 43.7317 81.0191 43.7498 80.9905 43.7683L80.9869 43.7705C80.788 43.8984 80.5064 44.0795 80.2929 44.2929C79.9103 44.6755 79.9014 45.293 80.2728 45.6865L82.1605 47.6864C82.4277 47.9695 82.8348 48.0718 83.204 47.9487C83.4677 47.8608 83.7611 47.7336 84.0185 47.622C84.0557 47.6058 84.0922 47.59 84.1278 47.5746C84.4335 47.4427 84.7106 47.328 84.9708 47.2489C85.3029 47.1479 85.4807 47.1422 85.5758 47.1595C85.5761 47.2911 85.5551 47.4878 85.4941 47.7463C85.3561 48.3306 85.0468 49.0907 84.5581 49.8585C83.5734 51.4059 81.9902 52.796 79.9005 53.005C79.6027 53.0348 79.3339 53.1963 79.168 53.4453C78.3873 54.6163 76.9194 56.3504 75.1615 57.884C73.5714 59.2711 71.8426 60.4071 70.2485 60.8805L62.8633 52.192C65.3461 50.4769 68.8367 48.1499 72.1866 46.0893C74.0768 44.9266 75.9116 43.8552 77.4896 43.0279C79.0967 42.1852 80.348 41.6444 81.1046 41.4762L80.8877 40.5L81.1046 41.4762C81.4975 41.3889 82.0646 41.4237 82.4043 41.592C82.5526 41.6654 82.5882 41.7285 82.5977 41.7505ZM85.5644 47.0258C85.5642 47.026 85.565 47.0303 85.5674 47.0378C85.5658 47.0293 85.5646 47.0255 85.5644 47.0258Z" fill="#04004F"/>
<path fill-rule="evenodd" clip-rule="evenodd" d="M77.4816 44.0862C76.9769 44.3105 76.7496 44.9015 76.9739 45.4061C77.2057 45.9277 77.4359 46.7224 77.4573 47.5249C77.4787 48.3275 77.2918 49.0204 76.8341 49.5107C76.4838 49.8859 75.9163 49.963 75.5296 49.7366C75.0791 49.4728 74.5583 48.9412 74.3741 47.8356C74.2833 47.2908 73.768 46.9228 73.2233 47.0136C72.6785 47.1044 72.3105 47.6196 72.4013 48.1644C72.6832 49.8562 73.5571 50.8993 74.5191 51.4625C75.7686 52.1941 77.3525 51.8861 78.296 50.8755C79.2372 49.8674 79.4862 48.5819 79.4566 47.4716C79.427 46.3611 79.1191 45.3085 78.8015 44.5939C78.5772 44.0892 77.9863 43.8619 77.4816 44.0862Z" fill="#04004F"/>
<path fill-rule="evenodd" clip-rule="evenodd" d="M81 45C81.5547 45.8321 81.5546 45.8321 81.5544 45.8322L81.5516 45.8341L81.5462 45.8376L81.5292 45.8488C81.515 45.8581 81.4952 45.8709 81.4705 45.8866C81.4209 45.9181 81.3509 45.9619 81.2645 46.0137C81.0925 46.117 80.8507 46.2552 80.5722 46.3944C80.0644 46.6484 79.2548 47 78.5 47C77.9477 47 77.5 46.5523 77.5 46C77.5 45.4477 77.9477 45 78.5 45C78.7452 45 79.1856 44.8517 79.6778 44.6056C79.8992 44.4948 80.095 44.383 80.2355 44.2988C80.3053 44.2569 80.3603 44.2225 80.3967 44.1993C80.4149 44.1877 80.4284 44.179 80.4366 44.1736L80.4451 44.1681C80.4452 44.168 80.4458 44.1676 80.4459 44.1675C80.4459 44.1676 80.446 44.1675 80.4459 44.1675C80.9054 43.8619 81.5259 43.9861 81.832 44.4453C82.1384 44.9048 82.0139 45.5259 81.5544 45.8322L81 45ZM82.9872 46.005C82.4376 45.95 81.9476 46.351 81.8926 46.9005C81.8296 47.5314 81.445 48.5493 80.7508 49.2166C80.4194 49.5352 80.0388 49.7542 79.604 49.8387C79.173 49.9225 78.6131 49.8891 77.8939 49.5809C77.3863 49.3633 76.7984 49.5985 76.5808 50.1061C76.3633 50.6137 76.5984 51.2016 77.1061 51.4191C78.1369 51.8609 79.1046 51.9733 79.9858 51.8019C80.8634 51.6313 81.5797 51.194 82.1368 50.6584C83.2199 49.6173 83.7791 48.1353 83.8827 47.0995C83.9377 46.55 83.5367 46.0599 82.9872 46.005Z" fill="#04004F"/>
<path d="M47.6717 57.9299C32.3842 61.288 29.0477 49.7271 29.2904 43.5268C30.1953 31.177 34.8083 22.4157 37.5827 19.1615C40.3572 15.9073 44.7353 13.5197 53.1057 14.0821C59.802 14.5319 68.6727 23.7569 69.1485 28.1515C70.441 36.7862 62.9592 54.5718 47.6717 57.9299Z" fill="white"/>
<path fill-rule="evenodd" clip-rule="evenodd" d="M38.226 19.7106C40.7954 16.6969 44.8928 14.3786 53.0484 14.9264C56.0987 15.1314 59.8091 17.3831 62.8813 20.2557C64.3985 21.6743 65.7177 23.2055 66.6803 24.6352C67.6587 26.0882 68.2101 27.3502 68.3067 28.2427C68.308 28.2541 68.3094 28.2655 68.3111 28.2769C68.9192 32.3392 67.4571 38.7441 63.9043 44.5796C60.3659 50.3913 54.8443 55.4881 47.4896 57.1037C40.089 58.7293 35.7787 56.7266 33.3057 53.7701C30.7746 50.7442 30.0213 46.5465 30.1348 43.5743C31.0307 31.3897 35.583 22.8108 38.226 19.7106ZM53.1618 13.238C44.5766 12.6613 39.9177 15.118 36.9383 18.6127C34.0335 22.0198 29.3624 30.9578 28.446 43.4652C28.4453 43.4747 28.4447 43.4843 28.4443 43.4939C28.318 46.7211 29.1133 51.3955 32.0076 54.8558C34.9641 58.3903 39.9658 60.489 47.8526 58.7565C55.7854 57.014 61.6484 51.539 65.3497 45.4596C69.0321 39.4114 70.6652 32.6152 69.9872 28.0429C69.8412 26.7419 69.1073 25.2098 68.084 23.69C67.0403 22.14 65.6341 20.5128 64.0371 19.0196C60.881 16.0686 56.8079 13.4829 53.1618 13.238Z" fill="#04004F"/>
<path fill-rule="evenodd" clip-rule="evenodd" d="M27.1856 24.284C27.3542 22.9973 28.5672 22.1745 29.7997 22.3923C31.4446 22.683 33.0958 23.1037 34.5205 23.5986C35.9206 24.0848 37.1785 24.6685 37.983 25.3183C38.1995 25.489 38.3201 25.7099 38.3895 25.8725C38.4642 26.0477 38.5129 26.2354 38.5467 26.4116C38.6143 26.7642 38.6413 27.1737 38.6481 27.5717C38.6617 28.3694 38.5953 29.2467 38.5301 29.8177C38.1882 33.506 36.738 35.3647 35.655 35.9309L35.2631 35.1812L35.655 35.9309C35.4993 36.0123 35.3491 36.0548 35.237 36.0802L35.0504 35.2551L35.237 36.0802C33.2999 36.5183 31.707 35.9682 30.5334 35.1125C29.384 34.2743 28.6251 33.1391 28.2638 32.3173C28.2619 32.3129 28.2599 32.3084 28.258 32.3039C28.2565 32.3003 28.255 32.2966 28.2536 32.293C26.9343 29.0178 26.9275 26.2531 27.1856 24.284Z" fill="#04004F"/>
<path fill-rule="evenodd" clip-rule="evenodd" d="M40.3945 26.9232C41.347 26.77 43.4995 26.6075 46.3534 26.882C49.8284 27.2163 53.2163 28.3675 54.933 29.059C55.4988 29.2869 56.0747 29.8086 56.1336 30.6117C56.183 31.2844 56.1136 32.279 55.7535 33.5798C55.5202 34.5652 55.0969 36.0774 54.5738 37.4484C54.3112 38.1366 54.0153 38.811 53.6953 39.372C53.3937 39.9009 53.0024 40.4547 52.5023 40.7552C51.6708 41.2547 50.7211 41.665 49.4803 41.7109C48.257 41.7562 46.83 41.4445 45.033 40.6491C43.0275 39.7614 41.6624 37.8097 40.7802 35.8959C39.8886 33.9614 39.4161 31.9056 39.2867 30.5768C39.1388 29.0576 39.2207 28.1412 39.4303 27.6349C39.6601 27.08 40.1932 26.9556 40.3945 26.9232Z" fill="#04004F"/>
<path d="M28.6635 25.039C28.5418 29.0785 29.4242 31.0504 30.128 31.3043C30.5854 31.0525 30.937 30.4343 31.1159 29.6946C31.4092 28.4818 32.2269 27.2655 33.4037 26.8508C34.2089 26.567 34.5404 26.161 33.5971 25.5506C32.1587 24.6199 30.3403 24.1974 29.4242 24.1974C28.6635 24.1974 28.6728 24.7286 28.6635 25.039Z" fill="#FCC601"/>
<path d="M41.1242 29.1939C40.9888 33.6615 43.5813 38.0734 44.424 37.9936C45.5195 37.7408 45.6883 36.3385 45.5304 34.9211C45.3921 33.679 46.1663 32.4392 47.3682 32.0966C48.985 31.6357 50.2967 30.9084 49.1623 29.9555C47.047 28.1786 42.9891 28.2632 41.9703 28.2632C41.1242 28.2632 41.1346 28.8507 41.1242 29.1939Z" fill="#FCC601"/>
<circle r="0.930737" transform="matrix(-1 0 0 1 52.7187 31.5578)" fill="white"/>
<path fill-rule="evenodd" clip-rule="evenodd" d="M39.2909 6.87034C44.4225 0.854051 51.5102 -0.787742 57.8496 0.324715C59.4414 0.604054 69.2304 2.50727 73.2229 11.841C73.409 12.2759 73.5488 12.7337 73.6383 13.197C74.1592 15.8912 73.9381 17.8438 73.5538 19.1549C73.4217 19.6057 73.2714 19.9771 73.128 20.2736C74.0141 20.7814 75.3421 21.7241 76.4586 23.2431C78.1243 25.5095 79.2544 28.9747 77.8959 33.9565C77.891 33.9743 77.8856 33.9919 77.8796 34.0093C77.226 35.908 76.3306 37.2064 75.3308 38.1827C74.4096 39.0822 73.4142 39.6901 72.5472 40.2196L72.3723 40.3265C71.0689 41.1249 69.887 41.7876 68.8446 42.1982C67.8205 42.6016 66.7895 42.8201 65.8553 42.5415C65.5928 42.4633 65.3844 42.2627 65.2962 42.0034C65.2079 41.7441 65.2506 41.458 65.4108 41.2358C65.6259 40.9375 65.8349 40.5676 65.9707 40.1914C66.1093 39.8078 66.1499 39.4789 66.1062 39.2312C66.0688 39.0194 65.966 38.8263 65.6914 38.6575C65.4447 38.5058 65.0353 38.3616 64.3803 38.3009C64.2965 38.446 64.2026 38.5906 64.0987 38.7282C63.8705 39.0306 63.5406 39.3712 63.1011 39.5533C62.6056 39.7586 62.0451 39.7283 61.5326 39.3868C61.074 39.0812 60.7091 38.5648 60.4003 37.9084C59.7168 36.4557 59.8504 34.8665 60.2049 33.4861C60.5261 32.2351 61.0605 31.0427 61.4647 30.1408L61.4647 30.1408L61.5589 29.9302C61.7317 29.2313 61.5994 28.6656 61.2941 28.2564C60.9742 27.8275 60.3852 27.4661 59.4761 27.3656C58.9139 27.3035 58.4705 27.0484 58.1459 26.661C57.848 26.3054 57.6781 25.8715 57.5594 25.4818C57.4653 25.1725 57.3852 24.8242 57.3091 24.4932L57.3091 24.4931C57.2894 24.4075 57.27 24.3231 57.2507 24.2408C57.152 23.8204 57.0468 23.4119 56.9004 23.0184C56.6135 22.2472 56.1798 21.5622 55.3642 21.0702C54.5297 20.5669 53.1945 20.2049 50.9888 20.3041C50.9799 20.3045 50.971 20.3048 50.9621 20.3049C50.9583 20.3049 50.9545 20.305 50.9508 20.305C49.4138 20.305 47.8151 20.5301 46.1867 20.8034C45.8234 20.8643 45.4571 20.928 45.0896 20.9919L45.0886 20.9921L45.0885 20.9921C43.8342 21.2102 42.5672 21.4305 41.3614 21.553C38.2365 21.8707 35.128 21.5767 33.0665 18.6528C31.3762 16.2554 30.8966 13.6895 31.0853 11.538C31.2691 9.44213 32.1087 7.5864 33.255 6.73902C33.4642 6.58442 33.7328 6.53459 33.9834 6.60389C34.2341 6.6732 34.439 6.85393 34.539 7.09399C34.8048 7.73188 35.1334 8.09817 35.4506 8.30104C35.7643 8.50171 36.1281 8.58205 36.5412 8.54409C37.4021 8.46498 38.4426 7.86497 39.2909 6.87034Z" fill="#04004F"/>
<path d="M69.7346 35.9763C66.2562 33.9645 64.3672 36.3711 63.7325 37.9525L64.3096 39.8598L62.9829 42.3757L65.0396 44.4154C67.1092 47.1174 69.8652 44.3677 70.511 43.6611C71.1492 42.9628 74.0827 38.491 69.7346 35.9763Z" fill="white"/>
<path fill-rule="evenodd" clip-rule="evenodd" d="M65.1078 35.0679C63.8572 35.8273 63.0689 37.0866 62.7079 37.9862C62.5338 38.4199 62.7443 38.9125 63.178 39.0866C63.6116 39.2607 64.1043 39.0502 64.2784 38.6165C64.552 37.9348 65.1447 37.0253 65.9862 36.5143C66.7563 36.0466 67.8265 35.8501 69.31 36.7081C70.2604 37.2577 70.7527 37.8757 70.9979 38.4645C71.2468 39.062 71.2729 39.7067 71.1585 40.3514C70.9231 41.6783 70.1229 42.8298 69.8854 43.0897C69.5932 43.4095 68.8715 44.0902 68.0512 44.3936C67.6562 44.5397 67.2835 44.5816 66.9386 44.4972C66.6041 44.4153 66.2044 44.1926 65.7834 43.6429C65.4993 43.2719 64.9682 43.2015 64.5972 43.4857C64.2262 43.7698 64.1558 44.3009 64.44 44.6719C65.0538 45.4732 65.7655 45.9522 66.5363 46.1409C67.2967 46.327 68.0232 46.2083 68.6383 45.9807C69.8384 45.5369 70.7811 44.6181 71.1346 44.2313C71.5353 43.7928 72.5209 42.3593 72.8248 40.6471C72.98 39.7722 72.9641 38.7838 72.5601 37.8138C72.1524 36.8349 71.3809 35.9509 70.1572 35.2432C68.1623 34.0894 66.4297 34.2651 65.1078 35.0679Z" fill="#04004F"/>
<path fill-rule="evenodd" clip-rule="evenodd" d="M66.3428 39.1367C66.035 39.2154 65.7813 39.379 65.6372 39.5103C65.4282 39.6426 65.275 39.889 65.1681 40.1299C65.0588 40.3763 64.9914 40.632 64.9625 40.794C64.9611 40.8017 64.9608 40.8097 64.9616 40.8175C65.0125 41.3095 65.188 41.5611 65.4209 41.6462C65.6453 41.7281 65.884 41.6397 66.0297 41.5446C66.0547 41.5282 66.0693 41.4998 66.0679 41.4699C66.0615 41.3255 66.0861 41.1239 66.1717 40.9797C66.2135 40.9092 66.2678 40.8556 66.3375 40.8258C66.4069 40.7962 66.5004 40.7862 66.6276 40.8187C67.0251 40.9202 67.4505 40.6825 67.6605 40.3606C67.7671 40.1971 67.8245 40.0033 67.7905 39.8095C67.7562 39.6135 67.631 39.4313 67.3989 39.2893C67.031 39.0644 66.6572 39.0565 66.3428 39.1367Z" fill="#04004F"/>
<path fill-rule="evenodd" clip-rule="evenodd" d="M38.3198 36.2213C37.9511 36.019 37.4882 36.1539 37.2859 36.5226C36.9435 37.1466 36.3114 37.9836 35.6005 38.3269C34.6713 38.7755 34.1173 39.9168 34.4342 41.1155C34.754 42.3247 35.8925 43.4399 37.9913 44.1982C38.3868 44.3412 38.8233 44.1364 38.9663 43.7408C39.1092 43.3453 38.9044 42.9088 38.5089 42.7659C36.6472 42.0931 36.0462 41.2538 35.9067 40.7262C35.7643 40.188 36.0313 39.8102 36.2627 39.6984C37.4087 39.1451 38.2329 37.9629 38.6211 37.2553C38.8234 36.8866 38.6885 36.4236 38.3198 36.2213Z" fill="#04004F"/>
<path d="M41.3926 53.2061C42.7969 52.1122 42.4736 50.0438 41.8679 47.5L37 47C37.3278 48.639 37.7989 50.063 38.2723 51.554C38.7176 52.9563 40.232 54.1102 41.3926 53.2061Z" fill="#04004F"/>
<path fill-rule="evenodd" clip-rule="evenodd" d="M36.2602 46.3273C36.0465 46.5623 35.9572 46.8847 36.0195 47.1961C36.3318 48.7578 36.7699 50.1324 37.2013 51.4861C37.2407 51.6097 37.2801 51.7332 37.3192 51.8566C37.609 52.7692 38.2429 53.614 39.0463 54.1004C39.8815 54.606 41.017 54.7663 42.0072 53.995C43.0303 53.198 43.3614 52.0654 43.3838 50.9163C43.4056 49.8014 43.1419 48.5334 42.8407 47.2684C42.7422 46.8548 42.393 46.5487 41.9701 46.5052L37.1022 46.0052C36.7863 45.9728 36.4738 46.0923 36.2602 46.3273ZM41.0538 48.4216C41.2669 49.39 41.3974 50.203 41.3842 50.8772C41.3687 51.6717 41.1593 52.1203 40.7781 52.4172C40.6076 52.55 40.4057 52.5854 40.0821 52.3895C39.7269 52.1744 39.381 51.741 39.2254 51.2513C39.1871 51.1306 39.149 51.0108 39.1111 50.8918C38.8136 49.958 38.5304 49.0686 38.2885 48.1376L41.0538 48.4216Z" fill="#04004F"/>
<path d="M42.3679 51V47.5C41.5679 47.5 38.5001 47.1667 37.0001 47C37.0001 47.6667 37.5001 49.5 38.0001 50.5C38.506 51.5119 41.2012 51.3333 42.3679 51Z" fill="white"/>
<path fill-rule="evenodd" clip-rule="evenodd" d="M36.3331 46.2549C36.1212 46.4446 36.0001 46.7156 36.0001 47C36.0001 47.4841 36.1616 48.2263 36.3499 48.8958C36.5462 49.5935 36.8163 50.3685 37.1056 50.9472C37.3993 51.5346 37.9479 51.8362 38.4 51.9952C38.869 52.1602 39.3968 52.231 39.8907 52.2534C40.8758 52.2983 41.9497 52.1595 42.6426 51.9615C43.0719 51.8389 43.3679 51.4465 43.3679 51V47.5C43.3679 46.9477 42.9201 46.5 42.3679 46.5C41.6399 46.5 38.6534 46.1776 37.1105 46.0061C36.8278 45.9747 36.5451 46.0652 36.3331 46.2549ZM41.3679 48.4452V50.1839C40.9442 50.2433 40.4493 50.2768 39.9817 50.2555C39.5927 50.2378 39.2789 50.1843 39.0638 50.1086C38.9515 50.0691 38.8987 50.0357 38.8787 50.0209C38.6724 49.5996 38.4495 48.974 38.2752 48.3543C38.2545 48.2805 38.2349 48.2087 38.2166 48.139C39.2561 48.2505 40.479 48.3754 41.3679 48.4452Z" fill="#04004F"/>
<path d="M19.9999 85C25.4999 86 33.6666 87 38.9999 87C38.1999 82.6 30.1666 80 26.4999 79.5L19.9999 85Z" fill="white"/>
<path fill-rule="evenodd" clip-rule="evenodd" d="M26.6351 78.5091C26.3543 78.4708 26.0704 78.5534 25.854 78.7365L19.354 84.2365C19.0587 84.4864 18.934 84.8843 19.0339 85.2581C19.1338 85.6319 19.4404 85.9145 19.8211 85.9838C25.3508 86.9891 33.5828 87.9999 39 87.9999C39.2965 87.9999 39.5777 87.8683 39.7677 87.6406C39.9577 87.413 40.0369 87.1127 39.9839 86.821C39.7332 85.4424 38.9293 84.2748 37.9111 83.3145C36.8915 82.3531 35.6039 81.5479 34.2664 80.8901C31.5962 79.5766 28.5667 78.7725 26.6351 78.5091ZM37.5432 85.9773C33.0326 85.8451 27.0459 85.1502 22.2839 84.3773L26.799 80.5568C28.5466 80.849 31.1165 81.5695 33.3836 82.6847C34.6128 83.2893 35.7127 83.9904 36.5389 84.7696C36.959 85.1658 37.2948 85.5689 37.5432 85.9773Z" fill="#04004F"/>
<path d="M16.9999 68.9999C19.7999 66.9999 22.3333 66.8332 24.9999 66.9999L21.4999 74.4999L20.4999 74.9999C21.2999 73.7999 18.4999 70.4999 16.9999 68.9999Z" fill="white"/>
<path fill-rule="evenodd" clip-rule="evenodd" d="M23.4523 67.9515L21.1836 72.8131C20.9772 72.3883 20.717 71.96 20.4404 71.5516C19.8783 70.7219 19.1862 69.8843 18.5567 69.1884C20.2208 68.2433 21.7959 67.965 23.4523 67.9515ZM25.0623 66.0019C22.2851 65.8283 19.4838 65.9969 16.4187 68.1862C16.1795 68.3571 16.0276 68.6245 16.0033 68.9175C15.9791 69.2104 16.085 69.4992 16.2928 69.7071C17.0156 70.4298 18.0442 71.5805 18.7845 72.6733C19.158 73.2247 19.4246 73.7128 19.5564 74.0939C19.6414 74.3396 19.6423 74.455 19.6405 74.4887C19.4193 74.8602 19.4616 75.3347 19.7503 75.6618C20.0504 76.0017 20.5416 76.0972 20.9472 75.8944L21.9472 75.3944C22.149 75.2934 22.3107 75.1273 22.4061 74.9228L25.9061 67.4228C26.046 67.1231 26.0286 66.7737 25.8598 66.4893C25.6909 66.205 25.3924 66.0225 25.0623 66.0019Z" fill="#04004F"/>
<path d="M79.5 75.9999L76.5 77.4999C76.1667 75.9999 75.8 72.9999 77 72.9999C78.2 72.9999 79.1667 74.9999 79.5 75.9999Z" fill="white"/>
<path fill-rule="evenodd" clip-rule="evenodd" d="M78.2251 75.5193L77.2565 76.0036C77.2016 75.5622 77.1677 75.1085 77.1748 74.7052C77.1793 74.4525 77.1997 74.2555 77.2268 74.1104C77.2315 74.1139 77.2362 74.1175 77.241 74.1212C77.3953 74.2396 77.571 74.4319 77.7532 74.6947C77.9316 74.9519 78.0914 75.2405 78.2251 75.5193ZM78.459 72.5348C78.0826 72.2459 77.5882 71.9999 77 71.9999C76.6227 71.9999 76.2732 72.1244 75.9883 72.3568C75.7201 72.5755 75.5538 72.8523 75.4481 73.1018C75.2435 73.5843 75.1842 74.1597 75.1752 74.6696C75.1565 75.7169 75.3484 76.9274 75.5238 77.7168C75.5906 78.0174 75.7922 78.2705 76.0702 78.4028C76.3483 78.5352 76.6718 78.532 76.9472 78.3943L79.9472 76.8943C80.3923 76.6718 80.6061 76.1558 80.4487 75.6837C80.2609 75.1203 79.8982 74.2783 79.3968 73.5551C79.1457 73.1929 78.8339 72.8226 78.459 72.5348Z" fill="#04004F"/>
<path d="M5.49997 68.4999C10.3 71.6999 12.8333 76.8332 13.5 78.9999C15.1666 78.4999 18.8 77.0999 20 75.4999C21.2 73.8999 19.1666 68.1665 18 65.4999C15.3754 67.1402 12.3809 68.0951 9.29117 68.2769L5.49997 68.4999Z" fill="white"/>
<path fill-rule="evenodd" clip-rule="evenodd" d="M18.2954 64.5445C18.0177 64.4587 17.7164 64.4978 17.47 64.6519C14.9874 66.2035 12.1549 67.1067 9.23245 67.2786L5.44124 67.5016C5.01215 67.5268 4.64719 67.8235 4.53477 68.2383C4.42235 68.6532 4.58762 69.0935 4.94526 69.3319C9.50117 72.3692 11.9241 77.2786 12.5442 79.294C12.7058 79.8192 13.261 80.1156 13.7873 79.9577C14.6629 79.695 16.0385 79.2018 17.3603 78.5627C18.6363 77.9456 20.043 77.1092 20.8 76.0999C21.3238 75.4014 21.3986 74.431 21.3565 73.5876C21.3117 72.6884 21.1161 71.6655 20.8561 70.6516C20.3348 68.6179 19.5139 66.4654 18.9161 65.0991C18.7996 64.8328 18.5731 64.6304 18.2954 64.5445ZM17.5171 66.9393C18.0056 68.1633 18.5472 69.6988 18.9188 71.1482C19.163 72.1009 19.3237 72.978 19.359 73.6872C19.3972 74.4521 19.2761 74.7983 19.2 74.8999C18.757 75.4906 17.747 76.1541 16.4896 76.7621C15.67 77.1584 14.8217 77.4957 14.1136 77.7459C13.2537 75.5852 11.3466 72.142 8.21273 69.342L9.34989 69.2751C12.2157 69.1066 15.0039 68.307 17.5171 66.9393Z" fill="#04004F"/>
<path d="M55.5 69.5C57.5 70.7 58.8334 73.3333 59 74C60.6 75.6 60.5 82 60.5 85.5L52.5 86L50.5 84C53.7 78.4 48.8333 72.6667 46 70.5C47.2 70.9 52.8333 70 55.5 69.5Z" fill="white"/>
<path fill-rule="evenodd" clip-rule="evenodd" d="M56.0145 68.6425C55.8048 68.5167 55.5562 68.4721 55.3157 68.5171C53.9958 68.7646 51.9416 69.111 50.0754 69.3453C49.1409 69.4626 48.2692 69.5498 47.567 69.584C47.2155 69.6011 46.9207 69.6042 46.6896 69.5935C46.5746 69.5881 46.4839 69.5798 46.4153 69.57C46.3486 69.5606 46.3192 69.5522 46.3164 69.5514C46.3162 69.5513 46.3161 69.5513 46.3162 69.5513C45.8526 69.3968 45.3452 69.6 45.1164 70.0318C44.8876 70.4636 45.0044 70.9975 45.3926 71.2944C46.7177 72.3077 48.5265 74.1684 49.6135 76.4003C50.6889 78.6086 51.0188 81.0766 49.6318 83.5039C49.408 83.8954 49.474 84.3882 49.7929 84.7071L51.7929 86.7071C51.9958 86.91 52.276 87.016 52.5624 86.9981L60.5624 86.4981C61.0894 86.4651 61.5 86.0281 61.5 85.5C61.5 85.3141 61.5003 85.1191 61.5006 84.9162C61.5032 83.2293 61.5066 81.0002 61.347 78.9595C61.2576 77.8163 61.1147 76.6964 60.8807 75.7416C60.6798 74.9221 60.3818 74.091 59.8884 73.4928C59.7009 72.9665 59.299 72.1766 58.7654 71.3891C58.1205 70.4372 57.1895 69.3475 56.0145 68.6425ZM55.2879 70.5561C55.9902 71.0575 56.6161 71.7825 57.1097 72.5109C57.6851 73.3602 57.9875 74.0729 58.0299 74.2425C58.0739 74.4184 58.1648 74.579 58.2929 74.7071C58.4893 74.9035 58.7313 75.3737 58.9382 76.2178C59.1354 77.0224 59.2675 78.0212 59.3531 79.1155C59.4956 80.9379 59.5027 82.9256 59.501 84.5605L52.888 84.9738L51.7246 83.8103C53.1048 80.8657 52.5866 77.9375 51.4116 75.5247C50.6603 73.982 49.627 72.614 48.5951 71.517C49.1401 71.4696 49.7267 71.4048 50.3246 71.3297C52.0626 71.1115 53.9474 70.8005 55.2879 70.5561Z" fill="#04004F"/>
<path d="M53 19.9999C49.8 19.1999 48 15.3332 47.5 13.4999C48.7 15.0999 55.6667 16.4999 59 16.9999C57.4 18.1999 54.3333 19.4999 53 19.9999Z" fill="white"/>
<path fill-rule="evenodd" clip-rule="evenodd" d="M47.0606 12.6016C46.6295 12.8125 46.4089 13.3 46.5352 13.7631C46.8116 14.7763 47.4319 16.3103 48.4199 17.7132C49.402 19.108 50.8306 20.4884 52.7574 20.9701C52.9542 21.0193 53.1612 21.0075 53.3511 20.9363C54.685 20.4361 57.8739 19.0945 59.6 17.8C59.9225 17.558 60.0683 17.1461 59.9696 16.7552C59.8709 16.3642 59.5471 16.0708 59.1483 16.011C57.5067 15.7648 54.9695 15.2964 52.7064 14.6959C51.5729 14.3951 50.5339 14.0679 49.7189 13.7284C49.3114 13.5587 48.9792 13.3938 48.727 13.2381C48.4641 13.076 48.3428 12.9571 48.3 12.9C48.012 12.516 47.4918 12.3908 47.0606 12.6016ZM56.1581 17.5238C55.0062 18.1035 53.7817 18.6241 52.9553 18.9463C51.8076 18.5651 50.8338 17.6675 50.0551 16.5617C49.8837 16.3184 49.7253 16.0697 49.5797 15.821C50.3742 16.1139 51.2719 16.3845 52.1935 16.629C53.5025 16.9763 54.8917 17.2795 56.1581 17.5238Z" fill="#04004F"/>
<path d="M51.5001 86.8C54.2446 86.8 61.5924 86.1304 64.8912 85.4039C65.4142 85.2887 65.8504 84.9331 66.0761 84.4474C68.5945 79.0285 65.2115 77.1595 62.5001 77L54.0001 81.5L51.5001 86.8Z" fill="#04004F"/>
<path fill-rule="evenodd" clip-rule="evenodd" d="M62.5588 76.0017C62.3761 75.991 62.1939 76.0306 62.0322 76.1162L53.5322 80.6162C53.341 80.7174 53.1879 80.8778 53.0956 81.0734L50.5956 86.3734C50.4495 86.6832 50.4721 87.0462 50.6555 87.3354C50.8389 87.6247 51.1575 87.8 51.5 87.8C54.3042 87.8 61.7254 87.1251 65.1063 86.3805C65.9398 86.1969 66.6284 85.6317 66.983 84.8689L66.0965 84.4569L66.983 84.8689C68.3282 81.9742 68.2235 79.7234 67.0504 78.153C65.9332 76.6573 64.0653 76.0903 62.5588 76.0017ZM65.4481 79.3499C66.0148 80.1085 66.3424 81.5017 65.1693 84.026C65.0724 84.2344 64.8886 84.3805 64.6761 84.4273C61.9725 85.0228 56.4025 85.587 53.1001 85.7518L54.7624 82.2279L62.7099 78.0204C63.8188 78.1379 64.872 78.5786 65.4481 79.3499Z" fill="#04004F"/>
<path d="M10.9337 82.6509C12.0361 83.1424 13.2376 83.6304 14 83.7999C12.8 79.7999 8.33333 78.6665 7.5 78.9999C8.14417 80.6103 9.34954 81.9446 10.9337 82.6509Z" fill="#04004F"/>
<path fill-rule="evenodd" clip-rule="evenodd" d="M8.00308 77.947C7.75227 77.9385 7.42574 77.9526 7.12859 78.0714C6.6158 78.2765 6.36639 78.8585 6.5715 79.3713C7.3033 81.2008 8.6834 82.7425 10.5265 83.5643C11.6187 84.0513 12.908 84.5816 13.7831 84.7761C14.1295 84.8531 14.4907 84.7407 14.7323 84.4808C14.974 84.2209 15.0598 83.8524 14.9578 83.5126C14.2615 81.1914 12.6211 79.7247 11.0883 78.8954C10.3212 78.4803 9.55929 78.2121 8.91301 78.0701C8.59039 77.9992 8.28112 77.9564 8.00308 77.947ZM11.8177 81.947C11.6597 81.8787 11.5003 81.8087 11.3409 81.7376C10.6175 81.4151 9.98194 80.9329 9.46331 80.3351C9.68139 80.4246 9.90774 80.5306 10.1366 80.6544C10.7269 80.9738 11.3134 81.3995 11.8177 81.947Z" fill="#04004F"/>
<path d="M38.5984 70.5973C41.7417 73.4678 43.4248 77.9799 43.891 80C44.5403 81.9391 42.1592 84.4605 40.1698 86.0569C39.5955 86.5178 38.6933 86.1662 38.3595 85.5098C37.1323 83.0969 34.1008 79.7048 31.6919 77.2634C31.0559 76.6187 31.47 75.1577 32.2606 74.716C34.0424 73.7207 35.9815 71.9762 37.2562 70.6719C37.6214 70.2982 38.2125 70.2449 38.5984 70.5973Z" fill="white"/>
<path fill-rule="evenodd" clip-rule="evenodd" d="M37.9671 71.3753C36.6709 72.701 34.6543 74.5243 32.7483 75.5891C32.7189 75.6055 32.6536 75.6557 32.5797 75.7661C32.5076 75.8738 32.4474 76.0094 32.4125 76.1517C32.3772 76.2957 32.3753 76.4152 32.3883 76.4945C32.3953 76.5376 32.4046 76.5586 32.4084 76.5657C34.8076 78.9977 37.9446 82.4882 39.2508 85.0565C39.2687 85.0916 39.2997 85.1328 39.3458 85.1715C39.3921 85.2104 39.4431 85.2379 39.489 85.2531C39.5222 85.2641 39.5451 85.2663 39.5571 85.2665C40.5117 84.4991 41.5202 83.5401 42.2051 82.5773C42.9298 81.5586 43.1058 80.8045 42.9428 80.3175C42.9326 80.287 42.9238 80.2561 42.9166 80.2248C42.4761 78.3157 40.8741 74.0574 37.9671 71.3753ZM32.4102 76.5687C32.4102 76.5686 32.4099 76.5682 32.4093 76.5673L32.4102 76.5687ZM39.2727 69.8589C38.4382 69.0967 37.2333 69.2647 36.541 69.973C35.2876 71.2555 33.4284 72.9183 31.7729 73.843C31.0635 74.2393 30.6365 74.9967 30.4701 75.6755C30.3073 76.3395 30.3143 77.2909 30.9801 77.9657C33.3982 80.4165 36.3208 83.7072 37.4682 85.9632C37.7618 86.5405 38.2864 86.9616 38.86 87.1516C39.4422 87.3445 40.1853 87.3267 40.7957 86.8369C41.8266 86.0096 42.9973 84.914 43.8348 83.7366C44.6267 82.6235 45.3099 81.1678 44.8553 79.7316C44.352 77.5893 42.6023 72.8995 39.2727 69.8589Z" fill="#04004F"/>
<path d="M85 33C86.6 34.6 88 37.3333 88.5 38.5C90.5 36.5 98.3333 34.6667 102 34L97.5 25.5C91.9 26.7 86.8333 31 85 33Z" fill="#D2D0E7"/>
<path d="M81.5 63.5L83 70.5L97.5 65C95.5 63 94.6667 56.1667 94.5 53L81.5 63.5Z" fill="#D2D0E7"/>
<path d="M47 75.5C49.4 80.3 55.6667 83.5 58.5 84.5C58.1 84.9 54 86.0833 52.5 86.75L46 87H39L47 75.5Z" fill="#D2D0E7"/>
<path d="M11.5 82.7C11.5 83.5 17.1666 84.6667 20 85C20.4 84.6 28.3333 80 30.5 80L24 73.5C16.5 75.5 11.5 81.5 11.5 82.7Z" fill="#D2D0E7"/>
<path d="M4.49998 51.5C4.49998 56.3 11.5 62.1667 15 64.5L21 59C16.6 56.2 13.8333 48.1667 13 44.5L4.49998 51.5Z" fill="#D2D0E7"/>
<path d="M68 77C64 79 65 83.1667 66 85C70.4 83.4 76.5 83 79 83C75.8 79.8 76 75.3333 76.5 73.5C75.3333 73.8333 72 75 68 77Z" fill="#D2D0E7"/>
<path fill-rule="evenodd" clip-rule="evenodd" d="M98.3838 25.0321C98.1745 24.6367 97.7279 24.4284 97.2905 24.5222C91.4007 25.7843 86.1613 30.2532 84.2628 32.3242C83.9011 32.7189 83.9143 33.3285 84.2929 33.7071C85.7555 35.1696 87.0951 37.7604 87.5809 38.8939C87.7116 39.1989 87.9851 39.4192 88.3109 39.4819C88.6367 39.5447 88.9725 39.4417 89.2071 39.2071C89.5662 38.8479 90.2827 38.4191 91.3341 37.9648C92.3569 37.5229 93.5969 37.0983 94.9096 36.7086C97.5337 35.9296 100.372 35.3123 102.179 34.9838C102.493 34.9268 102.76 34.7236 102.9 34.4367C103.039 34.1499 103.033 33.8139 102.884 33.5321L98.3838 25.0321ZM96.9792 26.6534L100.484 33.2746C98.7155 33.635 96.4657 34.1604 94.3404 34.7913C92.9864 35.1933 91.6639 35.6437 90.5409 36.1288C89.9487 36.3847 89.3804 36.6632 88.8821 36.9665C88.2964 35.8093 87.4048 34.2659 86.371 33.0241C88.396 31.0441 92.4911 27.8486 96.9792 26.6534ZM13.3233 43.5537C12.995 43.4415 12.632 43.5075 12.3643 43.728L3.86427 50.728C3.63361 50.918 3.49998 51.2011 3.49998 51.5C3.49998 52.9352 4.01958 54.3747 4.77724 55.7191C5.53896 57.0706 6.57767 58.3904 7.70432 59.605C9.95615 62.0327 12.6451 64.1319 14.4453 65.332C14.8284 65.5874 15.3363 65.5482 15.6757 65.2371L21.6757 59.7371C21.9049 59.527 22.0233 59.2222 21.9961 58.9125C21.9689 58.6027 21.7992 58.3232 21.5368 58.1563C19.5818 56.9122 17.8903 54.418 16.5648 51.6438C15.2551 48.9029 14.3776 46.0495 13.9751 44.2783C13.8982 43.9401 13.6515 43.6658 13.3233 43.5537ZM12.4226 46.2709C12.9281 48.0586 13.712 50.3124 14.7602 52.5061C15.9275 54.9491 17.4786 57.4384 19.4307 59.0819L14.9105 63.2254C13.2489 62.0523 11.04 60.2603 9.17064 58.2449C8.10979 57.1012 7.17974 55.9085 6.51958 54.7371C5.95695 53.7388 5.61591 52.8012 5.52475 51.9515L12.4226 46.2709ZM94.9072 52.0866C94.564 51.9336 94.164 51.9859 93.8717 52.222L80.8717 62.722C80.5783 62.959 80.4432 63.3408 80.5222 63.7095L82.0222 70.7095C82.0833 70.9946 82.2658 71.2388 82.5218 71.3782C82.7779 71.5176 83.082 71.5384 83.3547 71.435L97.8547 65.935C98.1719 65.8146 98.4065 65.5416 98.4777 65.2098C98.5489 64.878 98.447 64.5328 98.2071 64.2929C97.8599 63.9456 97.4937 63.3049 97.148 62.3773C96.8106 61.4719 96.5261 60.386 96.2924 59.238C95.8252 56.9426 95.58 54.4932 95.4986 52.9474C95.4789 52.5721 95.2504 52.2396 94.9072 52.0866ZM93.6485 54.9731C93.7859 56.3816 94.0074 58.0394 94.3326 59.6369C94.5781 60.8431 94.8873 62.0385 95.2739 63.0757C95.4629 63.5828 95.6792 64.077 95.9298 64.526L83.7339 69.1521L82.6066 63.8916L93.6485 54.9731ZM77.2028 72.7886C76.946 72.5349 76.5724 72.4393 76.2253 72.5384C74.9933 72.8904 71.6023 74.0808 67.5528 76.1055C65.2128 77.2755 64.2794 79.1432 64.1284 80.9806C63.9832 82.7465 64.5563 84.4416 65.1221 85.4788C65.3588 85.9128 65.8771 86.1087 66.3417 85.9398C70.5782 84.3992 76.5403 84 79 84C79.4045 84 79.7691 83.7563 79.9239 83.3827C80.0787 83.009 79.9931 82.5789 79.7071 82.2929C76.857 79.4428 77.0169 75.4052 77.4648 73.7631C77.5597 73.4148 77.4596 73.0423 77.2028 72.7886ZM24.7071 72.7929C24.4548 72.5405 24.0871 72.4418 23.7423 72.5337C19.8113 73.582 16.5543 75.6711 14.2817 77.645C13.1442 78.633 12.2372 79.606 11.6055 80.4282C11.2907 80.8379 11.0325 81.2252 10.8478 81.5703C10.6872 81.8704 10.5 82.2843 10.5 82.7C10.5 83.0554 10.6576 83.3218 10.7844 83.4799C10.9119 83.6387 11.0618 83.7568 11.1867 83.8418C11.4376 84.0123 11.7497 84.1567 12.0626 84.2802C12.701 84.5321 13.5493 84.776 14.4498 84.9963C16.2591 85.4391 18.4245 85.8215 19.8831 85.9931C20.1701 86.0269 20.4568 85.9348 20.6701 85.7423C20.6779 85.7364 20.6961 85.723 20.7282 85.7008C20.7934 85.6558 20.8877 85.5938 21.0116 85.5155C21.2581 85.3596 21.5986 85.1534 22.0094 84.9133C22.83 84.4335 23.9126 83.8289 25.0494 83.2369C26.1887 82.6435 27.3675 82.0706 28.3847 81.6486C28.8937 81.4375 29.3483 81.27 29.7285 81.1568C30.1258 81.0385 30.3758 81 30.5 81C30.9044 81 31.2691 80.7563 31.4239 80.3826C31.5786 80.009 31.4931 79.5789 31.2071 79.2929L24.7071 72.7929ZM23.7075 74.6217L28.5321 79.4463C28.2389 79.5513 27.9322 79.6711 27.6184 79.8013C26.5262 80.2543 25.2904 80.8564 24.1256 81.463C22.9582 82.071 21.847 82.6915 21 83.1867C20.5769 83.434 20.2151 83.6528 19.9427 83.8251C19.868 83.8723 19.7983 83.9171 19.7346 83.959C18.3748 83.7794 16.5037 83.4399 14.9252 83.0536C14.0548 82.8406 13.3093 82.622 12.7967 82.4198C12.7585 82.4047 12.7226 82.3901 12.689 82.376C12.8071 82.176 12.9734 81.9304 13.1913 81.6468C13.7315 80.9439 14.5433 80.0669 15.5932 79.1549C17.5867 77.4234 20.3808 75.6157 23.7075 74.6217ZM75.2517 74.9632C75.099 76.9122 75.3771 79.6304 76.9577 82.0611C74.1525 82.2112 69.9891 82.6685 66.5334 83.7632C66.2496 83.0121 66.0455 82.0706 66.1216 81.1444C66.2206 79.9401 66.7872 78.7244 68.4472 77.8944C71.2211 76.5074 73.6624 75.5308 75.2517 74.9632ZM47.072 74.5026C46.72 74.4771 46.3806 74.6392 46.1791 74.9289L38.1791 86.4289C37.9664 86.7346 37.9412 87.1331 38.1137 87.4631C38.2861 87.7931 38.6276 88 39 88H46C46.0128 88 46.0256 87.9997 46.0384 87.9992L52.5384 87.7492C52.6653 87.7444 52.7901 87.7154 52.9061 87.6638C53.515 87.3932 54.613 87.0212 55.7464 86.6372C55.9088 86.5822 56.0719 86.527 56.2343 86.4718C56.8643 86.2576 57.478 86.0457 57.9621 85.8605C58.2032 85.7682 58.428 85.6765 58.6136 85.5894C58.7509 85.5251 59.016 85.3982 59.2071 85.2071C59.45 84.9642 59.5512 84.6137 59.4752 84.2788C59.3992 83.9438 59.1567 83.6713 58.8328 83.557C57.4938 83.0844 55.298 82.0732 53.1536 80.6006C50.999 79.1211 48.9869 77.2377 47.8944 75.0528C47.7366 74.7371 47.424 74.528 47.072 74.5026ZM46.9309 77.3504C48.2729 79.3285 50.1585 80.9701 52.0214 82.2493C53.3479 83.1602 54.6933 83.9081 55.8813 84.4791C55.7859 84.5117 55.6889 84.5448 55.5906 84.5782C55.4333 84.6317 55.272 84.6863 55.1087 84.7415C54.0888 85.0867 52.991 85.4582 52.2756 85.7579L45.9808 86H40.9138L46.9309 77.3504Z" fill="#04004F"/>
<path d="M6.99994 52.5C7.49994 55.7771 11.9999 59.5 14.4999 62L17.9999 58.6265C15.1752 56.7374 12.5349 50.4739 11.9999 48L6.99994 52.5Z" fill="#D2D0E7"/>
<path fill-rule="evenodd" clip-rule="evenodd" d="M12.1537 47.5241C11.984 47.4693 11.798 47.509 11.6655 47.6282L6.66545 52.1282C6.54032 52.2409 6.48026 52.4089 6.50566 52.5753C6.78023 54.3749 8.12756 56.2221 9.62967 57.8773C10.6339 58.9839 11.7646 60.0625 12.7673 61.0191C13.2698 61.4985 13.7402 61.9472 14.1464 62.3534C14.3391 62.5462 14.6507 62.549 14.8469 62.3599L18.3469 58.9864C18.4558 58.8814 18.5114 58.7328 18.498 58.5821C18.4846 58.4314 18.4036 58.2949 18.2779 58.2108C16.9807 57.3432 15.6628 55.4088 14.5864 53.3047C13.5194 51.2188 12.7443 49.0763 12.4886 47.8942C12.451 47.7199 12.3233 47.5789 12.1537 47.5241ZM11.7224 48.9223C12.1045 50.2275 12.8077 52.0234 13.6962 53.7601C14.6628 55.6497 15.8926 57.5578 17.231 58.6731L14.5043 61.3013C14.1614 60.966 13.7949 60.6166 13.4151 60.2545C12.4286 59.3138 11.3528 58.288 10.3702 57.2053C8.95941 55.6507 7.85486 54.0942 7.54283 52.684L11.7224 48.9223Z" fill="#B3AFD4"/>
<path d="M23 2.99988C19.8 8.59988 13.3333 14.3332 10.5 16.4999L20.5 20.9999C20.9 18.9999 26.3333 13.1665 29 10.4999L23 2.99988Z" fill="#D2D0E7"/>
<path fill-rule="evenodd" clip-rule="evenodd" d="M22.9223 2.00291C22.5921 2.02865 22.2961 2.21619 22.1317 2.50375C19.0323 7.92775 12.6942 13.5631 9.89254 15.7055C9.61278 15.9195 9.46618 16.2648 9.5066 16.6146C9.547 16.9645 9.76847 17.2673 10.0896 17.4118L20.0896 21.9118C20.3673 22.0368 20.6868 22.0284 20.9576 21.8891C21.2283 21.7497 21.4209 21.4946 21.4806 21.196C21.5018 21.0899 21.5762 20.8823 21.7509 20.5585C21.9186 20.2476 22.1511 19.8793 22.4418 19.463C23.0229 18.6307 23.7998 17.6582 24.6608 16.6489C26.3808 14.6326 28.3867 12.5274 29.7071 11.207C30.0674 10.8467 30.0992 10.2731 29.7809 9.87519L23.7809 2.37519C23.574 2.11658 23.2525 1.97717 22.9223 2.00291ZM27.663 10.4294C26.3569 11.7624 24.6456 13.585 23.1392 15.3509C22.2585 16.3833 21.4354 17.4108 20.8019 18.318C20.4853 18.7715 20.207 19.2079 19.9905 19.6092C19.9812 19.6266 19.9718 19.644 19.9626 19.6615L12.403 16.2596C15.3699 13.8041 20.1283 9.33788 23.1099 4.73811L27.663 10.4294Z" fill="#04004F"/>
<path d="M73 17C69 17 63.6667 13.6667 61.5 12C61.1 16.4 55.6667 19.1667 53 20L65 23.5C67.8 23.9 71.5 19.3333 73 17Z" fill="#D2D0E7"/>
<path fill-rule="evenodd" clip-rule="evenodd" d="M61.0994 11.0837C60.7652 11.2298 60.5371 11.5462 60.5041 11.9094C60.3405 13.7085 59.1333 15.2752 57.4885 16.5461C55.8579 17.8062 53.9445 18.6571 52.7017 19.0454C52.2809 19.1769 51.9958 19.5685 52 20.0094C52.0042 20.4503 52.2967 20.8364 52.72 20.9599L64.72 24.4599C64.7654 24.4731 64.8117 24.4831 64.8586 24.4898C65.8512 24.6316 66.8295 24.3238 67.6916 23.8631C68.5624 23.3978 69.4069 22.7276 70.1747 22.0014C71.7106 20.5486 73.0601 18.7556 73.8412 17.5406C74.039 17.2329 74.053 16.8418 73.8777 16.5207C73.7024 16.1996 73.3658 15.9999 73 15.9999C71.235 15.9999 69.0705 15.2507 67.0062 14.2287C64.9664 13.2189 63.1466 12.0049 62.1097 11.2073C61.8207 10.9849 61.4335 10.9375 61.0994 11.0837ZM71.2016 17.8252C70.5278 18.7187 69.6926 19.7044 68.8003 20.5484C68.1056 21.2055 67.4064 21.7478 66.749 22.0992C66.1157 22.4376 65.6017 22.5564 65.2025 22.5173L55.9993 19.833C56.8966 19.3742 57.8358 18.8053 58.7114 18.1287C60.1519 17.0156 61.513 15.5368 62.1487 13.6979C63.2343 14.4352 64.6196 15.2789 66.1188 16.0211C67.7017 16.8047 69.4798 17.5098 71.2016 17.8252Z" fill="#04004F"/>
<path d="M7.5 78.4999C9.1 78.4999 10.8333 80.4999 11.5 81.4999L13.5 78.9999C13.1 75.3999 10 72.4999 8.5 71.4999C5.3 71.4999 2.5 75.8332 1.5 77.9999C2.83333 78.1665 5.9 78.4999 7.5 78.4999Z" fill="#D2D0E7"/>
<path fill-rule="evenodd" clip-rule="evenodd" d="M9.0547 70.6678C8.89043 70.5583 8.69742 70.4999 8.5 70.4999C6.46018 70.4999 4.70758 71.858 3.4334 73.2665C2.12645 74.7113 1.12464 76.4268 0.592034 77.5808C0.458343 77.8705 0.470885 78.2066 0.625796 78.4855C0.780707 78.7643 1.05939 78.9526 1.37596 78.9922C2.70212 79.1579 5.82848 79.4999 7.5 79.4999C7.92162 79.4999 8.51837 79.7904 9.19273 80.3785C9.83079 80.935 10.3743 81.6141 10.6679 82.0546C10.8449 82.32 11.1379 82.4851 11.4566 82.4989C11.7754 82.5128 12.0816 82.3737 12.2809 82.1246L14.2809 79.6246C14.4465 79.4175 14.5232 79.153 14.4939 78.8894C14.2665 76.8426 13.2809 75.0464 12.2014 73.6604C11.1205 72.2725 9.89039 71.225 9.0547 70.6678ZM8.20862 72.5165C8.87162 73.0021 9.79597 73.8268 10.6236 74.8893C11.488 75.9993 12.2011 77.3095 12.4489 78.713L11.5128 79.8831C11.2174 79.5443 10.8774 79.194 10.5073 78.8712C9.74829 78.2093 8.67837 77.4999 7.5 77.4999C6.39702 77.4999 4.52416 77.3308 3.06317 77.1737C3.54645 76.3472 4.18078 75.4216 4.91658 74.6082C5.99455 73.4166 7.13269 72.6379 8.20862 72.5165Z" fill="#04004F"/>
<path fill-rule="evenodd" clip-rule="evenodd" d="M74 75.9999C73.7238 75.9999 73.5 76.2237 73.5 76.4999C73.5 77.0261 73.552 77.8804 73.7076 78.7618C73.81 79.342 73.9619 79.9625 74.1884 80.5158C73.3033 80.5484 72.1873 80.6344 71.0856 80.8058C69.9545 80.9818 68.7729 81.2569 67.8768 81.6941C67.8526 81.0999 67.9536 80.2106 68.4472 79.2235C68.5707 78.9765 68.4706 78.6762 68.2236 78.5527C67.9766 78.4292 67.6762 78.5293 67.5528 78.7763C66.6947 80.4925 66.8162 82.0296 67.0256 82.658C67.0765 82.8105 67.1975 82.9292 67.3509 82.9771C67.5043 83.0251 67.6714 82.9963 67.8 82.8999C68.4911 82.3815 69.7948 82.0187 71.2394 81.7939C72.6555 81.5736 74.1044 81.4999 75 81.4999C75.1844 81.4999 75.3538 81.3984 75.4408 81.2358C75.5278 81.0732 75.5183 80.876 75.416 80.7225C75.0749 80.2109 74.8391 79.4196 74.6924 78.588C74.5479 77.7694 74.5 76.9736 74.5 76.4999C74.5 76.2237 74.2761 75.9999 74 75.9999Z" fill="#A9A5D1"/>
<path fill-rule="evenodd" clip-rule="evenodd" d="M61.312 19.4596C61.1156 19.4849 60.8789 19.5464 60.6832 19.703C60.5431 19.8152 60.4739 19.9938 60.5017 20.171C60.5296 20.3483 60.6504 20.4971 60.8181 20.5608L63.0755 21.4182C63.2409 21.4811 63.4273 21.4518 63.5655 21.3412C63.7419 21.2 63.9536 20.8982 63.85 20.5044C63.7549 20.1431 63.4353 19.8886 63.0341 19.7009C63.015 19.692 62.9954 19.6842 62.9753 19.6778C62.7239 19.597 62.3255 19.4974 61.9288 19.4587C61.7305 19.4393 61.5158 19.4333 61.312 19.4596Z" fill="#A9A5D1"/>
<path fill-rule="evenodd" clip-rule="evenodd" d="M16.0528 81.7764C15.9293 82.0234 16.0294 82.3237 16.2764 82.4472L17.2764 82.9472C17.5234 83.0707 17.8237 82.9706 17.9472 82.7236C18.0707 82.4766 17.9706 82.1763 17.7236 82.0528L16.7236 81.5528C16.4766 81.4293 16.1763 81.5294 16.0528 81.7764Z" fill="#A9A5D1"/>
<path fill-rule="evenodd" clip-rule="evenodd" d="M22.6464 77.1464C22.4511 77.3417 22.4511 77.6583 22.6464 77.8536L23.6464 78.8536C23.8416 79.0488 24.1582 79.0488 24.3535 78.8536C24.5488 78.6583 24.5488 78.3417 24.3535 78.1464L23.3535 77.1464C23.1582 76.9512 22.8416 76.9512 22.6464 77.1464Z" fill="#A9A5D1"/>
<path fill-rule="evenodd" clip-rule="evenodd" d="M46.5839 83.7227C46.4307 83.9525 46.4928 84.2629 46.7226 84.4161L48.2226 85.4161C48.4524 85.5693 48.7628 85.5072 48.916 85.2774C49.0691 85.0476 49.0071 84.7372 48.7773 84.584L47.2773 83.584C47.0475 83.4309 46.7371 83.4929 46.5839 83.7227Z" fill="#A9A5D1"/>
<path d="M10.9304 57.0037C11.7303 58.0221 13.0318 58.3346 13.8375 57.7018C14.6433 57.0689 14.6481 55.7304 13.8482 54.7121C13.0484 53.6937 11.7469 53.3812 10.9411 54.014C10.1354 54.6468 10.1306 55.9854 10.9304 57.0037Z" fill="#B3AFD4"/>
<path d="M11.1494 56.5268L11.3575 56.304L11.079 56.0439L12.5954 54.4207L12.8739 54.6808L13.0884 54.4512L13.2696 54.6204L13.0551 54.85L13.0605 54.8551C13.1236 54.914 13.1791 54.9702 13.2272 55.0236L13.448 54.7871L13.6292 54.9564L13.3849 55.2178C13.4776 55.3498 13.5245 55.4731 13.5256 55.5876C13.5284 55.7038 13.4796 55.8157 13.3791 55.9233C13.2927 56.0157 13.1999 56.0753 13.1008 56.1019C13.0017 56.1285 12.9088 56.1141 12.8222 56.0587L12.8116 56.0701C12.8539 56.1295 12.8831 56.1922 12.8991 56.2583C12.915 56.3243 12.9116 56.3948 12.8887 56.4699C12.8658 56.545 12.8147 56.625 12.7354 56.7099C12.6278 56.8251 12.5027 56.8885 12.3602 56.9001C12.2191 56.9102 12.0729 56.8716 11.9216 56.7842L11.6902 57.032L11.509 56.8628L11.7171 56.64C11.7009 56.6248 11.6838 56.6088 11.6658 56.592L11.5387 56.4733L11.3306 56.6961L11.1494 56.5268ZM12.5054 55.5414C12.5955 55.6256 12.6726 55.6678 12.7366 55.668C12.8006 55.6681 12.8609 55.6379 12.9175 55.5773C12.9755 55.5151 12.9966 55.451 12.9806 55.385C12.9646 55.319 12.9116 55.2439 12.8215 55.1597L12.7404 55.084L12.4027 55.4454L12.5054 55.5414ZM12.1478 55.7182L11.7528 56.1411L11.8853 56.2649C11.979 56.3524 12.0623 56.3933 12.1352 56.3876C12.2112 56.3821 12.2804 56.3459 12.3427 56.2792C12.3994 56.2186 12.4257 56.1524 12.4219 56.0807C12.4194 56.0075 12.3677 55.9237 12.2668 55.8294L12.1478 55.7182Z" fill="#D2D0E7"/>
<path fill-rule="evenodd" clip-rule="evenodd" d="M11.3536 51.6463C11.1583 51.4511 10.8417 51.4511 10.6464 51.6463L9.14645 53.1463C8.95118 53.3416 8.95118 53.6582 9.14645 53.8534C9.34171 54.0487 9.65829 54.0487 9.85355 53.8534L11.3536 52.3534C11.5488 52.1582 11.5488 51.8416 11.3536 51.6463Z" fill="#B3AFD4"/>
<path fill-rule="evenodd" clip-rule="evenodd" d="M15.8536 58.1463C15.6583 57.9511 15.3417 57.9511 15.1464 58.1463L14.1464 59.1463C13.9512 59.3416 13.9512 59.6582 14.1464 59.8534C14.3417 60.0487 14.6583 60.0487 14.8536 59.8534L15.8536 58.8534C16.0488 58.6582 16.0488 58.3416 15.8536 58.1463Z" fill="#B3AFD4"/>
<path fill-rule="evenodd" clip-rule="evenodd" d="M46.9916 79.9999C46.8403 80.0025 46.6983 80.0734 46.6053 80.1929L43.1053 84.6929C42.9358 84.9109 42.9751 85.225 43.193 85.3946C43.411 85.5641 43.7252 85.5248 43.8947 85.3068L47.0188 81.2901C48.1166 82.5336 49.0354 83.265 49.8659 83.7684C50.3282 84.0486 50.7552 84.2532 51.1539 84.433C51.2674 84.4842 51.3767 84.5325 51.4832 84.5797C51.7579 84.7012 52.0138 84.8145 52.2746 84.9462C52.5211 85.0707 52.8218 84.9718 52.9463 84.7253C53.0708 84.4788 52.9719 84.1781 52.7254 84.0536C52.4401 83.9095 52.1496 83.7809 51.8667 83.6557C51.7649 83.6107 51.6641 83.5661 51.5649 83.5213C51.1823 83.3488 50.7968 83.1633 50.3842 82.9132C49.5643 82.4163 48.6051 81.6449 47.3841 80.1798C47.2872 80.0635 47.1429 79.9974 46.9916 79.9999Z" fill="#A9A5D1"/>
<path fill-rule="evenodd" clip-rule="evenodd" d="M23.8535 75.6463C23.7196 75.5124 23.5215 75.4657 23.3419 75.5255C18.4343 77.1614 15.4915 79.9601 14.1096 81.6875C13.9371 81.9032 13.972 82.2178 14.1876 82.3903C14.4033 82.5628 14.7179 82.5279 14.8904 82.3122C16.1483 80.7399 18.8498 78.1493 23.3666 76.5736L25.6414 78.8484C24.5071 79.3772 23.1689 80.0039 21.9613 80.6165C21.2379 80.9834 20.5547 81.3486 19.9861 81.6876C19.4283 82.0202 18.9438 82.349 18.6464 82.6463C18.4512 82.8416 18.4512 83.1582 18.6464 83.3534C18.8417 83.5487 19.1583 83.5487 19.3535 83.3534C19.5562 83.1508 19.9467 82.8754 20.4982 82.5465C21.039 82.2241 21.6996 81.8705 22.4137 81.5083C23.6877 80.8621 25.1108 80.1989 26.293 79.6481C26.4362 79.5813 26.576 79.5162 26.7114 79.453C26.8592 79.384 26.9641 79.2473 26.9924 79.0866C27.0207 78.926 26.9689 78.7617 26.8535 78.6463L23.8535 75.6463Z" fill="#A9A5D1"/>
<path d="M18.2972 80.6809C18.5549 81.231 19.4734 81.3446 20.3486 80.9346C21.2238 80.5246 21.7244 79.7462 21.4667 79.1961C21.2089 78.6459 20.2905 78.5323 19.4153 78.9424C18.5401 79.3524 18.0395 80.1307 18.2972 80.6809Z" fill="#A9A5D1"/>
<path d="M20.2245 80.7258L20.1264 80.5818L19.9315 80.7146L19.2167 79.6657L19.4116 79.5329L19.3105 79.3845L19.4373 79.2981L19.5384 79.4465L19.5422 79.4439C19.5863 79.4138 19.6277 79.3878 19.6663 79.3658L19.5621 79.213L19.6889 79.1266L19.8041 79.2956C19.8955 79.2562 19.9747 79.2424 20.0418 79.2541C20.1101 79.2649 20.1679 79.305 20.2153 79.3746C20.256 79.4343 20.2765 79.4942 20.2768 79.5543C20.2771 79.6143 20.2544 79.6664 20.2087 79.7104L20.2137 79.7178C20.2549 79.6997 20.2961 79.6896 20.3371 79.6874C20.3781 79.6853 20.4188 79.6949 20.4592 79.7161C20.4995 79.7374 20.5384 79.7754 20.5758 79.8303C20.6265 79.9047 20.6443 79.9837 20.6291 80.0671C20.6133 80.1496 20.5682 80.2298 20.4938 80.3078L20.603 80.4679L20.4762 80.5543L20.3781 80.4103C20.3667 80.4181 20.3547 80.4262 20.3421 80.4348L20.2532 80.4954L20.3513 80.6394L20.2245 80.7258ZM19.8577 79.8378C19.9207 79.7948 19.9572 79.7548 19.9672 79.7179C19.9771 79.681 19.9688 79.643 19.9421 79.6038C19.9147 79.5637 19.8805 79.5447 19.8395 79.5468C19.7985 79.5489 19.7464 79.5715 19.6833 79.6145L19.6266 79.6532L19.7858 79.8868L19.8577 79.8378ZM19.9059 80.063L20.0921 80.3363L20.1848 80.2731C20.2504 80.2284 20.2871 80.1847 20.295 80.1421C20.3035 80.0976 20.293 80.0538 20.2637 80.0107C20.237 79.9715 20.2024 79.9492 20.1599 79.9437C20.1167 79.9373 20.0598 79.9582 19.9891 80.0063L19.9059 80.063Z" fill="#D2D0E7"/>
<path d="M60.5323 63L67.0323 67C69.0323 72 64.0323 83 63.0323 83C62.2323 83 55.6989 81 52.5323 80C56.9323 77.6 59.6989 67.6667 60.5323 63Z" fill="white"/>
<path fill-rule="evenodd" clip-rule="evenodd" d="M60.1234 62.0874C59.8215 62.2227 59.606 62.4985 59.5479 62.8242C59.1404 65.106 58.2567 68.6882 56.9412 71.9788C56.2837 73.6236 55.5289 75.1688 54.6883 76.4342C53.8403 77.711 52.9515 78.6323 52.0534 79.1221C51.7015 79.3141 51.4982 79.6976 51.537 80.0966C51.5757 80.4956 51.8489 80.8329 52.2311 80.9536C53.8185 81.4549 56.2504 82.207 58.3881 82.8345C59.4561 83.148 60.4574 83.4324 61.2458 83.6392C61.6391 83.7423 61.988 83.8284 62.2695 83.8894C62.5143 83.9425 62.8078 84 63.0323 84C63.4954 84 63.8191 83.7208 63.9322 83.6192C64.0952 83.4728 64.2453 83.2916 64.3787 83.1103C64.6501 82.7415 64.9466 82.2422 65.2472 81.6653C65.8525 80.5037 66.5287 78.9229 67.106 77.1912C67.6828 75.4607 68.1715 73.5477 68.3849 71.7257C68.5958 69.925 68.5513 68.105 67.9608 66.6286C67.881 66.4293 67.7392 66.2609 67.5564 66.1483L61.0564 62.1483C60.7746 61.975 60.4253 61.9521 60.1234 62.0874ZM66.2097 67.668C66.5259 68.6636 66.5756 69.9805 66.3984 71.4931C66.2056 73.1398 65.7567 74.9143 65.2086 76.5588C64.6608 78.2021 64.0245 79.6838 63.4736 80.741C63.1961 81.2734 62.9536 81.6725 62.7679 81.9249C62.7622 81.9326 62.7567 81.94 62.7513 81.9472C62.7329 81.9434 62.7135 81.9392 62.6931 81.9348C62.4519 81.8825 62.1343 81.8046 61.7532 81.7046C60.9925 81.5051 60.0126 81.227 58.9514 80.9155C57.5449 80.5026 56.0075 80.0346 54.6708 79.6207C55.2856 79.0175 55.8456 78.3067 56.3543 77.5408C57.2961 76.1229 58.11 74.443 58.7983 72.7212C59.9232 69.9073 60.7408 66.9097 61.2344 64.6063L66.2097 67.668ZM62.5958 82.1313C62.5974 82.1298 62.5992 82.1281 62.6013 82.1261C62.5759 82.1446 62.5733 82.1515 62.5958 82.1313Z" fill="#04004F"/>
<path fill-rule="evenodd" clip-rule="evenodd" d="M61.8087 65.5379C61.6493 65.604 61.5352 65.7475 61.5068 65.9177C61.2608 67.3939 60.7169 69.8176 59.8889 72.2646C59.0564 74.7247 57.9567 77.1472 56.6237 78.6706C56.5117 78.7986 56.4725 78.9748 56.5195 79.1382C56.5665 79.3016 56.6934 79.4299 56.8563 79.4788L61.8563 80.9788C62.0707 81.0431 62.3017 80.9571 62.4218 80.7683C63.6203 78.885 66 73.8254 66 68.4999C66 68.3384 65.922 68.1869 65.7906 68.093L62.2906 65.593C62.1502 65.4927 61.9681 65.4719 61.8087 65.5379ZM64.9981 68.7558C64.9275 73.4593 62.9362 77.948 61.7749 79.9103L57.8562 78.7347C59.0965 77.0776 60.0877 74.7969 60.8361 72.5851C61.5503 70.4746 62.0577 68.383 62.3515 66.8654L64.9981 68.7558ZM62.5528 69.2763C62.4293 69.5233 62.5294 69.8236 62.7764 69.9471L63.7764 70.4471C64.0234 70.5706 64.3237 70.4705 64.4472 70.2235C64.5707 69.9765 64.4706 69.6762 64.2236 69.5527L63.2236 69.0527C62.9766 68.9292 62.6763 69.0293 62.5528 69.2763Z" fill="#D2D0E7"/>
<path fill-rule="evenodd" clip-rule="evenodd" d="M59.3255 77.7418C59.2382 78.0038 59.3798 78.2869 59.6418 78.3743L61.1418 78.8743C61.4037 78.9616 61.6869 78.82 61.7742 78.558C61.8615 78.2961 61.72 78.0129 61.458 77.9256L59.958 77.4256C59.696 77.3383 59.4129 77.4798 59.3255 77.7418Z" fill="#D2D0E7"/>
<path d="M61.3744 76.97C62.1624 77.2258 63.2158 76.1556 63.7273 74.5797C64.2388 73.0037 64.0147 71.5189 63.2267 71.2631C62.4388 71.0074 61.3854 72.0776 60.8739 73.6535C60.3624 75.2294 60.5865 76.7143 61.3744 76.97Z" fill="#D2D0E7"/>
<path d="M61.0189 74.0789L61.2604 74.1684L61.1453 74.4789L62.9052 75.1312L63.0203 74.8208L63.2692 74.913L63.3441 74.7111L63.0951 74.6188L63.0974 74.6128C63.1235 74.5424 63.1448 74.4772 63.1615 74.4171L63.4178 74.5121L63.4927 74.3102L63.2092 74.2051C63.2306 74.0667 63.2204 73.9532 63.1785 73.8645C63.1373 73.7739 63.0584 73.7069 62.9418 73.6637C62.8415 73.6265 62.7487 73.6172 62.6633 73.6359C62.5779 73.6545 62.5125 73.7023 62.4672 73.7792L62.4549 73.7746C62.465 73.7121 62.4638 73.6522 62.4514 73.595C62.4389 73.5378 62.41 73.4848 62.3645 73.436C62.3191 73.3871 62.2504 73.3457 62.1583 73.3116C62.0335 73.2653 61.9146 73.2658 61.8017 73.3131C61.6905 73.361 61.5936 73.4485 61.511 73.5756L61.2423 73.476L61.1675 73.678L61.409 73.7675C61.4023 73.7856 61.3952 73.8047 61.3878 73.8248L61.3353 73.9665L61.0937 73.8769L61.0189 74.0789ZM62.4188 74.303C62.4561 74.2025 62.499 74.1395 62.5477 74.1142C62.5963 74.0888 62.6535 74.0882 62.7193 74.1126C62.7866 74.1376 62.8266 74.1787 62.839 74.2358C62.8514 74.293 62.839 74.3719 62.8018 74.4723L62.7683 74.5628L62.3764 74.4175L62.4188 74.303ZM62.0806 74.3079L61.6221 74.1379L61.6769 73.9902C61.7156 73.8857 61.7638 73.8213 61.8214 73.7969C61.8814 73.7712 61.9476 73.7717 62.0199 73.7985C62.0856 73.8229 62.1304 73.8635 62.1542 73.9203C62.1796 73.9777 62.1715 74.0627 62.1298 74.1752L62.0806 74.3079Z" fill="white"/>
<path fill-rule="evenodd" clip-rule="evenodd" d="M22.9507 6.00231C22.8017 6.01707 22.6671 6.09789 22.584 6.22253C21.6034 7.69337 19.9971 9.67195 18.3215 11.4717C16.6367 13.2813 14.9275 14.8603 13.7427 15.5711C13.5834 15.6667 13.4902 15.8428 13.5008 16.0283C13.5114 16.2138 13.6239 16.3782 13.7931 16.4551L19.2931 18.9551C19.5029 19.0504 19.7508 18.99 19.8932 18.8088C20.8054 17.6477 22.3509 15.7532 23.7672 14.1002C24.4756 13.2734 25.1481 12.5111 25.6911 11.9327C25.963 11.6431 26.1981 11.4041 26.3865 11.2277C26.4807 11.1395 26.5593 11.0706 26.6221 11.0204C26.6533 10.9954 26.6782 10.977 26.6973 10.9639C26.7154 10.9515 26.7239 10.947 26.7238 10.947C26.7238 10.947 26.7238 10.947 26.7236 10.9471C26.8674 10.8752 26.9678 10.7386 26.9935 10.58C27.0193 10.4213 26.9672 10.26 26.8535 10.1463C26.3713 9.66409 25.6358 8.80672 24.9442 7.98941C24.8296 7.85403 24.7158 7.71916 24.6045 7.58722C24.0614 6.94375 23.5772 6.36997 23.3535 6.14633C23.2476 6.04041 23.0998 5.98755 22.9507 6.00231ZM25.7581 10.4467C25.7396 10.4636 25.7213 10.4807 25.703 10.4978C25.4923 10.6951 25.2406 10.9515 24.962 11.2483C24.404 11.8428 23.7202 12.6181 23.0078 13.4496C21.7014 14.9743 20.2865 16.7022 19.3503 17.8826L15.0197 15.9142C16.2215 15.026 17.6711 13.6378 19.0534 12.1531C20.5636 10.5311 22.0298 8.75416 23.053 7.30545C23.2651 7.55105 23.5313 7.8663 23.8269 8.21652C23.941 8.3516 24.0594 8.49187 24.1808 8.63535C24.7085 9.25904 25.2846 9.93339 25.7581 10.4467Z" fill="#A9A5D1"/>
<path fill-rule="evenodd" clip-rule="evenodd" d="M22.5465 9.14632C22.3512 9.34159 22.3512 9.65817 22.5465 9.85343L23.5465 10.8534C23.7417 11.0487 24.0583 11.0487 24.2536 10.8534C24.4488 10.6582 24.4488 10.3416 24.2536 10.1463L23.2536 9.14632C23.0583 8.95106 22.7417 8.95106 22.5465 9.14632Z" fill="#A9A5D1"/>
<path fill-rule="evenodd" clip-rule="evenodd" d="M17.1527 15.0763C17.0292 15.3233 17.1294 15.6236 17.3763 15.7471L18.7763 16.4471C19.0233 16.5706 19.3237 16.4705 19.4472 16.2236C19.5707 15.9766 19.4706 15.6762 19.2236 15.5527L17.8236 14.8527C17.5766 14.7292 17.2762 14.8293 17.1527 15.0763Z" fill="#A9A5D1"/>
<path d="M19.1373 14.9683C19.7989 15.5381 21.0749 15.1411 21.9873 14.0816C22.8997 13.0222 23.103 11.7014 22.4414 11.1316C21.7798 10.5619 20.5038 10.9588 19.5914 12.0183C18.679 13.0778 18.4757 14.3985 19.1373 14.9683Z" fill="#A9A5D1"/>
<path d="M21.5942 14.134L21.391 13.9535L21.1694 14.2029L19.6893 12.8879L19.9109 12.6385L19.7015 12.4525L19.8457 12.2903L20.055 12.4763L20.0593 12.4715C20.1095 12.415 20.1575 12.3652 20.2032 12.322L19.9876 12.1305L20.1318 11.9683L20.3702 12.1801C20.4841 12.0964 20.5916 12.0533 20.6928 12.0508C20.7954 12.0466 20.8957 12.0881 20.9938 12.1753C21.0781 12.2502 21.1335 12.3312 21.16 12.4182C21.1865 12.5053 21.1766 12.5875 21.1302 12.6647L21.1406 12.6739C21.1919 12.6357 21.2464 12.6091 21.3043 12.5941C21.3621 12.579 21.4246 12.5811 21.4917 12.6002C21.5587 12.6194 21.631 12.6633 21.7083 12.7321C21.8134 12.8254 21.8732 12.9348 21.8877 13.0604C21.9009 13.1848 21.8711 13.3143 21.7984 13.449L22.0244 13.6497L21.8803 13.8119L21.6771 13.6315C21.6642 13.646 21.6506 13.6613 21.6362 13.6775L21.5351 13.7913L21.7383 13.9718L21.5942 14.134ZM20.6826 12.9515C20.7543 12.8708 20.7892 12.8022 20.7875 12.7458C20.7857 12.6893 20.7572 12.6365 20.7019 12.5874C20.6452 12.5371 20.588 12.5194 20.5301 12.5344C20.4722 12.5495 20.4075 12.5973 20.3357 12.678L20.2712 12.7507L20.6008 13.0435L20.6826 12.9515ZM20.8496 13.2645L21.2351 13.6071L21.3405 13.4884C21.4151 13.4045 21.4488 13.3304 21.4415 13.2662C21.4343 13.1992 21.4003 13.1386 21.3395 13.0846C21.2842 13.0355 21.225 13.0131 21.1617 13.0176C21.097 13.0208 21.0245 13.0676 20.9442 13.158L20.8496 13.2645Z" fill="#D2D0E7"/>
<path fill-rule="evenodd" clip-rule="evenodd" d="M93.1945 56.5393C93.0277 56.4688 92.8359 56.4941 92.693 56.6052L83.693 63.6052C83.5539 63.7134 83.482 63.887 83.5039 64.0619L84.0039 68.0619C84.0231 68.2157 84.1125 68.3518 84.246 68.4305C84.3794 68.5093 84.5418 68.5217 84.6857 68.4641L94.6857 64.4641C94.8088 64.4149 94.9073 64.3187 94.9596 64.1968C95.0118 64.075 95.0135 63.9373 94.9642 63.8142C94.1918 61.8831 93.6635 58.4434 93.4969 56.9447C93.477 56.7647 93.3613 56.6097 93.1945 56.5393ZM92.6133 57.934C92.8318 59.5237 93.2601 61.9824 93.8615 63.7168L84.9158 67.2951L84.5314 64.22L92.6133 57.934Z" fill="#A9A5D1"/>
<path fill-rule="evenodd" clip-rule="evenodd" d="M91.5 59.9999C91.2239 59.9999 91 60.2237 91 60.4999C91 60.5029 91 60.5061 91 60.5093C90.9999 60.855 90.9998 62.1175 91.5528 63.2235C91.6763 63.4705 91.9766 63.5706 92.2236 63.4471C92.4706 63.3236 92.5707 63.0233 92.4472 62.7763C92.0054 61.8926 92 60.8349 92 60.4999C92 60.2237 91.7761 59.9999 91.5 59.9999Z" fill="#A9A5D1"/>
<path fill-rule="evenodd" clip-rule="evenodd" d="M85.4178 64.0066C85.1454 64.052 84.9614 64.3096 85.0068 64.582L85.2068 65.782C85.2522 66.0544 85.5098 66.2384 85.7822 66.193C86.0546 66.1476 86.2386 65.89 86.1932 65.6176L85.9932 64.4176C85.9478 64.1452 85.6902 63.9612 85.4178 64.0066Z" fill="#A9A5D1"/>
<path d="M86.75 64.4899C87.1102 65.2359 88.2086 65.4514 89.2033 64.9711C90.198 64.4908 90.7123 63.4967 90.3521 62.7507C89.9919 62.0047 88.8936 61.7892 87.8989 62.2695C86.9042 62.7498 86.3898 63.7439 86.75 64.4899Z" fill="#A9A5D1"/>
<path d="M88.6841 64.66L88.603 64.4612L88.3042 64.5831L87.7135 63.1348L88.0123 63.0129L87.9288 62.8081L88.1232 62.7288L88.2067 62.9337L88.2125 62.9313C88.2802 62.9037 88.3429 62.8805 88.4007 62.8617L88.3146 62.6507L88.509 62.5714L88.6041 62.8047C88.7367 62.7759 88.845 62.7759 88.929 62.8047C89.0149 62.8328 89.0774 62.8948 89.1165 62.9908C89.1502 63.0733 89.1573 63.1516 89.1379 63.2258C89.1185 63.2999 89.0717 63.3592 88.9973 63.4037L89.0015 63.4139C89.0614 63.4005 89.1186 63.3969 89.173 63.4031C89.2274 63.4093 89.2775 63.4298 89.3234 63.4648C89.3692 63.4997 89.4075 63.555 89.4384 63.6308C89.4803 63.7335 89.4777 63.8348 89.4303 63.9345C89.3825 64.0329 89.2971 64.1221 89.1741 64.2023L89.2643 64.4233L89.0699 64.5026L88.9888 64.3038C88.9714 64.3109 88.9531 64.3184 88.9337 64.3263L88.7974 64.3819L88.8784 64.5807L88.6841 64.66ZM88.4959 63.4852C88.5926 63.4458 88.6536 63.4044 88.6787 63.361C88.7039 63.3176 88.7055 63.2689 88.6834 63.2148C88.6608 63.1593 88.6223 63.1285 88.5679 63.1223C88.5135 63.1161 88.4379 63.1327 88.3412 63.1722L88.2542 63.2077L88.3857 63.5302L88.4959 63.4852ZM88.485 63.7736L88.6388 64.1509L88.781 64.0929C88.8816 64.0519 88.944 64.0059 88.9684 63.955C88.9941 63.9019 88.9948 63.8456 88.9706 63.7861C88.9485 63.732 88.9105 63.697 88.8567 63.6811C88.8023 63.6639 88.7209 63.6773 88.6126 63.7215L88.485 63.7736Z" fill="#D2D0E7"/>
<path fill-rule="evenodd" clip-rule="evenodd" d="M96.9371 27.757C96.8135 27.5346 96.5426 27.4404 96.3077 27.5383C94.2747 28.3854 91.7375 29.5717 87.7 32.5998C87.4996 32.7501 87.4414 33.0256 87.5638 33.2441L88.9638 35.7441C89.0291 35.8608 89.1385 35.9464 89.2674 35.9819C89.3963 36.0174 89.5341 35.9998 89.6499 35.9329C90.8953 35.2144 92.947 34.4778 94.8653 33.9173C95.8182 33.6388 96.7256 33.4074 97.4658 33.2462C98.2236 33.0811 98.7613 32.9998 99 32.9998C99.1772 32.9998 99.3411 32.9061 99.431 32.7534C99.5208 32.6007 99.5231 32.4119 99.4371 32.257L96.9371 27.757ZM96.2808 28.6349L98.1977 32.0852C97.9169 32.1314 97.5966 32.1942 97.253 32.2691C96.487 32.436 95.5569 32.6734 94.5848 32.9574C92.853 33.4635 90.9471 34.1294 89.5951 34.8249L88.6508 33.1386C92.1438 30.556 94.4418 29.4206 96.2808 28.6349Z" fill="#A9A5D1"/>
<path fill-rule="evenodd" clip-rule="evenodd" d="M95.2226 29.5839C94.9928 29.7371 94.9307 30.0475 95.0839 30.2773L96.0839 31.7773C96.2371 32.007 96.5475 32.0691 96.7773 31.916C97.007 31.7628 97.0691 31.4523 96.9159 31.2226L95.9159 29.7226C95.7628 29.4928 95.4523 29.4307 95.2226 29.5839Z" fill="#A9A5D1"/>
<path fill-rule="evenodd" clip-rule="evenodd" d="M89.8226 32.7839C89.5929 32.937 89.5308 33.2475 89.684 33.4772L89.8839 33.7772C90.0371 34.007 90.3476 34.0691 90.5773 33.9159C90.8071 33.7627 90.8692 33.4523 90.716 33.2225L90.516 32.9225C90.3628 32.6928 90.0524 32.6307 89.8226 32.7839Z" fill="#A9A5D1"/>
<path d="M91.3702 32.5837C91.5686 33.1286 92.4656 33.3024 93.3738 32.9718C94.282 32.6412 94.8575 31.9315 94.6592 31.3866C94.4608 30.8417 93.5638 30.6679 92.6556 30.9984C91.7474 31.329 91.1719 32.0387 91.3702 32.5837Z" fill="#A9A5D1"/>
<path d="M93.5527 32.6637L93.4772 32.4972L93.7274 32.3838L93.1777 31.1714L92.9276 31.2848L92.8498 31.1133L92.6871 31.1871L92.7648 31.3586L92.76 31.3608C92.7033 31.3865 92.6523 31.4117 92.6069 31.4363L92.5268 31.2597L92.3641 31.3335L92.4526 31.5288C92.3572 31.5939 92.2938 31.6608 92.2626 31.7296C92.2297 31.7991 92.2314 31.874 92.2679 31.9544C92.2992 32.0235 92.3434 32.0737 92.4006 32.1051C92.4578 32.1365 92.5219 32.1422 92.5929 32.1223L92.5967 32.1308C92.5533 32.16 92.5177 32.1933 92.4897 32.2305C92.4617 32.2678 92.445 32.3108 92.4398 32.3596C92.4346 32.4083 92.4464 32.4644 92.4751 32.5278C92.5141 32.6139 92.5783 32.6714 92.6676 32.7005C92.7564 32.7285 92.8616 32.7279 92.983 32.6988L93.0669 32.8839L93.2297 32.8101L93.1542 32.6437C93.1688 32.6371 93.1842 32.6301 93.2004 32.6228L93.3145 32.571L93.39 32.7374L93.5527 32.6637ZM92.9366 31.8601C92.8556 31.8968 92.7944 31.9102 92.7528 31.9004C92.7113 31.8905 92.6802 31.863 92.6597 31.8177C92.6387 31.7713 92.6421 31.7295 92.6702 31.6922C92.6982 31.6549 92.7526 31.618 92.8336 31.5812L92.9065 31.5482L93.0289 31.8182L92.9366 31.8601ZM93.1212 32.022L93.2644 32.3378L93.1454 32.3918C93.0612 32.43 92.9963 32.4417 92.9505 32.4269C92.9027 32.4118 92.8675 32.3793 92.8449 32.3295C92.8243 32.2842 92.8249 32.2403 92.8466 32.1977C92.8678 32.154 92.9237 32.1115 93.0144 32.0704L93.1212 32.022Z" fill="#D2D0E7"/>
<path fill-rule="evenodd" clip-rule="evenodd" d="M62.3851 15.0133C62.2409 15.0473 62.1191 15.1437 62.0528 15.2763C61.8219 15.7382 61.3462 16.5016 60.6885 17.2431C60.0283 17.9873 59.2144 18.6756 58.3143 19.0356C58.0579 19.1382 57.9332 19.4292 58.0358 19.6856C58.1383 19.942 58.4293 20.0667 58.6857 19.9641C59.7856 19.5242 60.7217 18.7125 61.4366 17.9067C61.9576 17.3193 62.3768 16.7172 62.6704 16.2254C63.4895 16.7535 64.5573 17.2732 65.5883 17.721C66.509 18.1209 67.4224 18.4728 68.1445 18.7321C66.7511 20.2598 65.3718 20.8916 64.8788 21.0148C64.6109 21.0818 64.448 21.3533 64.515 21.6212C64.5819 21.889 64.8534 22.0519 65.1213 21.985C65.9067 21.7886 67.7306 20.8871 69.3905 18.8122C69.4926 18.6846 69.5259 18.5151 69.4796 18.3583C69.4333 18.2015 69.3132 18.0772 69.1581 18.0255C68.4205 17.7797 67.2094 17.3348 65.9867 16.8038C64.7543 16.2685 63.5502 15.6625 62.8 15.0999C62.6814 15.0109 62.5294 14.9792 62.3851 15.0133Z" fill="#A9A5D1"/>
<path fill-rule="evenodd" clip-rule="evenodd" d="M62.5357 18.3142C62.4332 18.5706 62.5579 18.8616 62.8143 18.9641L65.3143 19.9641C65.5707 20.0667 65.8617 19.942 65.9642 19.6856C66.0668 19.4292 65.9421 19.1382 65.6857 19.0357L63.1857 18.0357C62.9293 17.9331 62.6383 18.0578 62.5357 18.3142Z" fill="#A9A5D1"/>
<path fill-rule="evenodd" clip-rule="evenodd" d="M72.9932 78.9176C72.9478 78.6452 72.6902 78.4612 72.4178 78.5066L69.4178 79.0066C69.1455 79.052 68.9614 79.3096 69.0068 79.582C69.0522 79.8544 69.3099 80.0384 69.5822 79.993L72.5822 79.493C72.8546 79.4476 73.0386 79.19 72.9932 78.9176Z" fill="#A9A5D1"/>
<path fill-rule="evenodd" clip-rule="evenodd" d="M37.5001 72.9892C37.5043 72.7913 37.6251 72.614 37.8087 72.538C37.9955 72.4606 38.2106 72.5033 38.3536 72.6463C38.965 73.2578 39.8672 74.3417 40.6198 75.6361C41.3682 76.9233 42 78.4723 42 79.9999C42 80.276 41.7761 80.4999 41.5 80.4999C41.2239 80.4999 41 80.276 41 79.9999C41 78.7275 40.4652 77.3598 39.7552 76.1387C39.2317 75.2383 38.6301 74.4467 38.1277 73.8713C38.0675 73.9489 38.0023 74.026 37.9339 74.1018C37.6373 74.431 37.2388 74.7845 36.8135 75.1269C36.1777 75.6387 35.4508 76.1503 34.8413 76.553C35.5985 77.243 36.4787 78.2481 37.3006 79.2596C38.3385 80.537 39.3206 81.8718 39.9096 82.7132C40.068 82.9394 40.013 83.2512 39.7867 83.4095C39.5605 83.5679 39.2487 83.5128 39.0904 83.2866C38.5127 82.4613 37.5449 81.1461 36.5244 79.8902C35.4931 78.6209 34.4446 77.4584 33.7 76.8999C33.5681 76.801 33.4935 76.6434 33.5004 76.4787C33.5074 76.314 33.5952 76.1633 33.735 76.0759C34.3909 75.666 35.3733 75.0025 36.1865 74.3479C36.5945 74.0195 36.9461 73.7042 37.1911 73.4323C37.3138 73.2961 37.3991 73.1825 37.4511 73.0935C37.4903 73.0264 37.4987 72.9936 37.5001 72.9892Z" fill="#D2D0E7"/>
<path fill-rule="evenodd" clip-rule="evenodd" d="M38.9159 75.7226C38.7627 75.4928 38.4523 75.4307 38.2225 75.5839L36.7225 76.5839C36.4928 76.7371 36.4307 77.0475 36.5839 77.2773C36.737 77.507 37.0475 77.5691 37.2772 77.416L38.7772 76.416C39.007 76.2628 39.0691 75.9523 38.9159 75.7226Z" fill="#D2D0E7"/>
<path d="M38.3648 79.4296C38.7166 80.3492 39.4491 80.9235 40.0009 80.7124C40.5527 80.5013 40.7147 79.5847 40.3629 78.6651C40.0111 77.7455 39.2785 77.1711 38.7268 77.3822C38.175 77.5933 38.0129 78.51 38.3648 79.4296Z" fill="#D2D0E7"/>
<path d="M15.2249 74.0638C15.4995 74.7815 16.1694 75.1922 16.7211 74.9811C17.2729 74.77 17.4976 74.0171 17.223 73.2994C16.9484 72.5817 16.2785 72.171 15.7268 72.3821C15.175 72.5932 14.9503 73.3461 15.2249 74.0638Z" fill="#D2D0E7"/>
<path fill-rule="evenodd" clip-rule="evenodd" d="M17.4472 68.2764C17.3237 68.0294 17.0233 67.9293 16.7763 68.0528C15.8111 68.5354 13.2911 69.5 11 69.5C10.809 69.5 10.6347 69.6088 10.5508 69.7803C10.4669 69.9519 10.488 70.1562 10.6053 70.307C11.1844 71.0515 12.0786 72.2439 12.8763 73.3969C13.2752 73.9737 13.647 74.5362 13.9421 75.0255C14.2436 75.525 14.4447 75.9152 14.5256 76.1581C14.6129 76.4201 14.8961 76.5617 15.1581 76.4743C15.42 76.387 15.5616 76.1038 15.4743 75.8419C15.3553 75.4848 15.1022 75.0124 14.7984 74.5089C14.4884 73.995 14.1038 73.4138 13.6987 72.828C13.1229 71.9957 12.4991 71.1452 11.9754 70.4516C13.8392 70.2734 15.6685 69.6394 16.731 69.176C16.7762 69.3077 16.8255 69.4603 16.8781 69.6322C17.0085 70.0588 17.1503 70.5732 17.2911 71.1135C17.5725 72.1938 17.8461 73.3627 18.0119 74.1085C18.0718 74.378 18.3389 74.548 18.6084 74.4881C18.878 74.4282 19.048 74.1611 18.988 73.8915C18.8204 73.1373 18.544 71.9562 18.2588 70.8614C18.1163 70.3143 17.9705 69.785 17.8343 69.3397C17.7014 68.905 17.568 68.5181 17.4472 68.2764Z" fill="#D2D0E7"/>
<path fill-rule="evenodd" clip-rule="evenodd" d="M16.4743 70.8418C16.387 70.5798 16.1038 70.4382 15.8419 70.5255L14.3419 71.0255C14.0799 71.1129 13.9383 71.396 14.0256 71.658C14.113 71.92 14.3961 72.0616 14.6581 71.9742L16.1581 71.4742C16.4201 71.3869 16.5617 71.1037 16.4743 70.8418Z" fill="#D2D0E7"/>
<path fill-rule="evenodd" clip-rule="evenodd" d="M30.1212 82.0148C30.0361 81.9935 29.9469 81.995 29.8626 82.0191C28.651 82.3653 27.0872 83.1472 26.2939 83.5439L26.2763 83.5527C26.0293 83.6762 25.9292 83.9765 26.0527 84.2235C26.1762 84.4705 26.4766 84.5706 26.7236 84.4471C27.5047 84.0565 28.9113 83.3551 30.0076 83.0191C30.7264 83.2194 31.6254 83.6317 32.4903 84.0914C33.3994 84.5746 34.2352 85.091 34.7226 85.4159C34.9524 85.5691 35.2628 85.507 35.416 85.2772C35.5691 85.0475 35.5071 84.737 35.2773 84.5839C34.7647 84.2421 33.9005 83.7085 32.9596 83.2084C32.027 82.7126 30.9828 82.2302 30.1212 82.0148Z" fill="#D2D0E7"/>
<path fill-rule="evenodd" clip-rule="evenodd" d="M8.44721 73.7763C8.32372 73.5293 8.02338 73.4292 7.77639 73.5527C6.12074 74.3805 5.28499 75.3118 5.05279 75.7763C4.96962 75.9426 4.98564 76.1413 5.09438 76.2922C5.20312 76.4431 5.38661 76.5211 5.57071 76.4948C8.15992 76.1249 10.3782 77.5851 11.1464 78.3534C11.3417 78.5487 11.6583 78.5487 11.8536 78.3534C12.0488 78.1582 12.0488 77.8416 11.8536 77.6463C11.0819 76.8746 9.1174 75.5313 6.67052 75.4403C7.02981 75.1404 7.53623 74.7908 8.22361 74.4471C8.4706 74.3236 8.57071 74.0232 8.44721 73.7763Z" fill="#B3AFD4"/>
<path fill-rule="evenodd" clip-rule="evenodd" d="M55.0492 71.0023C54.9001 70.9876 54.7523 71.0404 54.6464 71.1463C54.6485 71.1442 54.6496 71.1432 54.6496 71.1431C54.6492 71.1426 54.6231 71.1632 54.548 71.1985C54.466 71.2371 54.3545 71.2803 54.2141 71.3265C53.9338 71.4186 53.5737 71.5114 53.1787 71.5993C52.3907 71.7749 51.504 71.9228 50.9292 72.0049C50.7418 72.0317 50.5855 72.1621 50.5256 72.3418C50.4657 72.5214 50.5125 72.7195 50.6464 72.8534C51.1744 73.3815 51.6021 74.1815 51.9212 75.0054C52.2374 75.8219 52.4287 76.6138 52.5067 77.0821C52.5521 77.3545 52.8098 77.5385 53.0821 77.4931C53.3545 77.4477 53.5385 77.1901 53.4931 76.9177C53.4045 76.386 53.1959 75.5278 52.8537 74.6443C52.622 74.0461 52.3205 73.4134 51.9386 72.8582C52.4006 72.7795 52.9144 72.6827 53.3962 72.5754C53.8054 72.4842 54.2015 72.3833 54.5264 72.2764C54.6364 72.2403 54.7423 72.2021 54.8404 72.1619L55.5839 73.2772C55.7371 73.507 56.0475 73.5691 56.2773 73.4159C56.5071 73.2627 56.5691 72.9523 56.416 72.7225L55.416 71.2225C55.3329 71.0979 55.1983 71.0171 55.0492 71.0023Z" fill="#D2D0E7"/>
<path fill-rule="evenodd" clip-rule="evenodd" d="M54.9472 73.2763C54.8237 73.0293 54.5234 72.9292 54.2764 73.0527L53.2764 73.5527C53.0294 73.6761 52.9293 73.9765 53.0528 74.2235C53.1763 74.4705 53.4766 74.5706 53.7236 74.4471L54.7236 73.9471C54.9706 73.8236 55.0707 73.5232 54.9472 73.2763Z" fill="#D2D0E7"/>
</svg>
