<svg width="222" height="222" viewBox="0 0 222 222" fill="none" xmlns="http://www.w3.org/2000/svg">
<rect width="222" height="222" rx="12" fill="white"/>
<circle cx="110" cy="68" r="26" fill="#1F4DBA"/>
<path fill-rule="evenodd" clip-rule="evenodd" d="M110 109C83.4904 109 62 87.5101 62 61.0005C63.0797 48.0053 52.0069 48.0007 49.0028 51.527C48.7737 51.7354 48.5549 51.9723 48.3479 52.2392C38.1008 65.4518 32 82.0465 32 100.067C32 115.917 47.0169 126.021 62.8662 126.021H157.134C172.983 126.021 188 115.917 188 100.067C188 82.0465 181.899 65.4518 171.652 52.2392C171.441 51.9666 171.217 51.7252 170.982 51.5134C167.957 48.0046 156.922 48.0307 158 61.0044C157.998 87.5122 136.508 109 110 109Z" fill="#1B184E"/>
<path d="M118.212 187.183L140.085 155.707C144.693 149.076 139.948 140 131.873 140H110H88.1266C80.052 140 75.3069 149.076 79.9147 155.707L101.788 187.183C105.766 192.907 114.234 192.907 118.212 187.183Z" fill="#1F4DBA"/>
</svg>
