<svg width="57" height="65" viewBox="0 0 57 65" fill="none" xmlns="http://www.w3.org/2000/svg">
<path fill-rule="evenodd" clip-rule="evenodd" d="M42.1558 9.36927C37.0242 3.35298 29.9365 1.71119 23.5971 2.82365C22.0053 3.10299 12.2163 5.00621 8.22379 14.3399C8.03775 14.7749 7.89795 15.2326 7.80837 15.6959C7.28745 18.3902 7.50862 20.3427 7.89288 21.6538C8.02498 22.1046 8.17534 22.476 8.3187 22.7726C7.43265 23.2803 6.10461 24.223 4.98815 25.7421C3.32238 28.0084 2.19234 31.4736 3.55084 36.4554C3.55569 36.4732 3.56111 36.4908 3.56711 36.5082C4.22074 38.407 5.11608 39.7053 6.11588 40.6816C6.91298 41.4599 7.76556 42.0199 8.54252 42.4997C8.55709 42.7204 8.58445 42.9365 8.62163 43.146C8.92544 44.8582 9.91107 46.2918 10.3118 46.7302C10.6653 47.1171 11.608 48.0358 12.8081 48.4797C13.4232 48.7072 14.1496 48.8259 14.9101 48.6398C15.3433 48.5338 15.7579 48.336 16.1469 48.0408C19.851 54.0873 25.6968 59.5208 33.5938 61.2555C41.4807 62.9879 46.4823 60.8892 49.4388 57.3547C52.3331 53.8945 53.1284 49.2201 53.0021 45.9928L53.0012 45.9758L53.0004 45.9641C52.7633 42.7281 52.2749 39.731 51.6307 37.0068C52.3847 36.2778 52.9033 35.453 53.1832 34.8162L53.1908 34.7984L53.1934 34.7919C54.5127 31.5168 54.5194 28.7521 54.2614 26.7829C54.0928 25.4962 52.8798 24.6734 51.6472 24.8912C50.2508 25.138 48.8498 25.4785 47.5867 25.8785C47.0731 24.89 46.5604 24.0092 46.0664 23.2425C46.9251 22.7784 47.7083 22.1047 48.3802 21.1517C50.0705 18.7543 50.55 16.1884 50.3614 14.037C50.1776 11.9411 49.338 10.0853 48.1917 9.23795C47.9825 9.08335 47.7139 9.03352 47.4632 9.10283C47.2126 9.17213 47.0077 9.35286 46.9077 9.59293C46.6419 10.2308 46.3133 10.5971 45.9961 10.8C45.6824 11.0006 45.3186 11.081 44.9055 11.043C44.0446 10.9639 43.0041 10.3639 42.1558 9.36927Z" fill="#04004F"/>
<path fill-rule="evenodd" clip-rule="evenodd" d="M40.2537 10.9916C35.7844 5.75184 29.6388 4.30163 24.0293 5.28602C22.4887 5.55637 13.9599 7.28668 10.5223 15.3231C10.4069 15.5929 10.3191 15.88 10.2629 16.1705C9.81208 18.5022 10.0278 20.0494 10.292 20.9507C10.3841 21.2653 10.4842 21.5081 10.5695 21.6845C11.1409 22.8664 10.7007 24.289 9.56169 24.9417C8.88254 25.3308 7.85622 26.0612 7.00257 27.2226C5.80381 28.8536 4.80867 31.5132 5.94849 35.745C6.47575 37.2543 7.15592 38.203 7.86247 38.8929C8.45592 39.4724 9.11635 39.9158 9.85606 40.3725C10.5439 40.7973 10.9839 41.5284 11.0371 42.335C11.0452 42.4577 11.0607 42.5827 11.0832 42.7092C11.1773 43.2397 11.3885 43.7747 11.6363 44.2394C11.7573 44.4663 11.878 44.6594 11.9801 44.8077C12.0309 44.8814 12.0744 44.9402 12.1081 44.9833C12.1378 45.0214 12.1546 45.0406 12.1572 45.0436C12.1577 45.0442 12.1577 45.0442 12.1572 45.0436C12.2607 45.1569 12.4811 45.3803 12.775 45.6083C13.075 45.8411 13.3871 46.0283 13.6754 46.1349C13.9662 46.2425 14.1699 46.2472 14.3157 46.2115C14.4005 46.1907 14.5057 46.1479 14.6358 46.0492C15.1984 45.6223 15.9154 45.4533 16.6094 45.584C17.3034 45.7146 17.9098 46.1327 18.2787 46.7349C21.7414 52.3872 27.0836 57.2658 34.1301 58.8137C41.2999 60.3886 45.2797 58.4305 47.5212 55.7507C49.8769 52.9344 50.6109 48.9684 50.505 46.1182C50.2772 43.0305 49.8108 40.1743 49.1978 37.5821C48.9949 36.724 49.259 35.8225 49.8929 35.2096C50.3885 34.7304 50.7231 34.1916 50.885 33.8315C51.935 31.2112 51.9933 29.0131 51.8178 27.401C50.6108 27.6253 49.4143 27.9221 48.3415 28.2619C47.183 28.6288 45.9285 28.1094 45.3682 27.0311C44.888 26.1067 44.4139 25.2936 43.9648 24.5966C43.5876 24.0112 43.4717 23.295 43.645 22.6205C43.8183 21.946 44.265 21.3743 44.8777 21.0432C45.389 20.7669 45.8823 20.356 46.337 19.7111C47.658 17.8375 48.0126 15.8703 47.8709 14.2553C47.8198 13.6726 47.7093 13.1694 47.5722 12.7486C47.4977 12.8035 47.4214 12.856 47.3432 12.906C46.504 13.4428 45.5712 13.6147 44.6767 13.5325C42.9604 13.3748 41.369 12.2992 40.2537 10.9916ZM50.8757 33.8547C50.8753 33.8557 50.8749 33.8568 50.8745 33.8578L51.6179 34.1573L52.0529 34.3346L53.1832 34.8162L52.5275 34.528L53.1907 34.7984L52.8665 34.6602L53.1934 34.7919L52.7815 34.624L51.6115 34.1254L50.8945 33.8102C50.8933 33.8129 50.8921 33.8156 50.8909 33.8183M23.165 0.361269C30.2342 -0.87926 38.264 0.954114 44.0578 7.74689C44.2888 8.01766 44.5243 8.2184 44.7306 8.35435C45.1591 7.54372 45.9047 6.93992 46.7971 6.69321C47.7884 6.41915 48.8507 6.6162 49.6777 7.22757C51.629 8.66994 52.6356 11.3525 52.8518 13.8186C53.0871 16.5014 52.4853 19.6591 50.4352 22.5756C50.694 22.5239 50.9533 22.4751 51.2121 22.4294C53.7715 21.9771 56.3766 23.6837 56.7402 26.4581C57.0415 28.7571 57.0251 31.9704 55.5124 35.726L55.5085 35.7356L55.5058 35.7421C55.5009 35.7543 55.4958 35.7664 55.4906 35.7785L55.483 35.7964L55.4718 35.8223C55.2174 36.4011 54.8435 37.0541 54.3488 37.7016C54.8808 40.2018 55.2828 42.9024 55.4938 45.7814L55.495 45.7992L55.4958 45.8108C55.4967 45.8245 55.4975 45.8382 55.4981 45.852L55.499 45.869L55.5001 45.8951C55.6411 49.4974 54.7817 54.8636 51.3564 58.9587C47.685 63.348 41.6614 65.5872 33.0574 63.6973C25.1272 61.9553 19.1678 56.8707 15.1838 51.1369C13.9357 51.3675 12.8067 51.1447 11.9408 50.8244C10.18 50.1731 8.91094 48.9032 8.46638 48.4168C7.86325 47.7568 6.7141 46.0827 6.242 43.9892C5.64593 43.5808 4.9989 43.0851 4.3693 42.4703C3.0841 41.2153 1.98084 39.5808 1.20326 37.322C1.20324 37.3219 1.20327 37.322 1.20326 37.322C1.17948 37.2529 1.15805 37.1833 1.13894 37.1132C-0.415717 31.4121 0.845927 27.1565 2.97373 24.2615C3.73164 23.2303 4.56518 22.417 5.34373 21.7895C5.39022 21.9858 5.44045 22.1749 5.49379 22.3569C5.66581 22.9439 5.86645 23.4439 6.06791 23.8606L8.3187 22.7726L7.07572 20.6035C6.58334 20.8856 5.98202 21.2751 5.34373 21.7895C4.95064 20.1295 4.82533 17.9548 5.35383 15.2213C5.47683 14.5852 5.66856 13.9568 5.92525 13.3567C10.4727 2.72572 21.522 0.649595 23.165 0.361269Z" fill="white"/>
<path d="M5.34734 21.7133L7.34734 19.999L9.44695 22.499L5.44695 24.499L5.34734 21.7133Z" fill="white"/>
<path d="M33.7751 60.4289C49.0625 63.787 52.399 52.226 52.1563 46.0258C51.2514 33.6759 46.6384 24.9147 43.864 21.6604C41.0896 18.4062 36.7115 16.0187 28.3411 16.581C21.6447 17.0308 12.7741 26.2558 12.2982 30.6504C11.0058 39.2851 18.4876 57.0708 33.7751 60.4289Z" fill="white"/>
<path fill-rule="evenodd" clip-rule="evenodd" d="M43.2207 22.2096C40.6514 19.1959 36.554 16.8775 28.3984 17.4254C25.3481 17.6303 21.6377 19.882 18.5654 22.7546C17.0483 24.1732 15.7291 25.7044 14.7664 27.1341C13.788 28.5872 13.2367 29.8491 13.14 30.7417C13.1388 30.7531 13.1373 30.7645 13.1356 30.7758C12.5276 34.8381 13.9896 41.243 17.5425 47.0785C21.0808 52.8902 26.6025 57.9871 33.9572 59.6026C41.3578 61.2283 45.6681 59.2255 48.1411 56.269C50.6721 53.2431 51.4254 49.0454 51.312 46.0732C50.4161 33.8887 45.8638 25.3097 43.2207 22.2096ZM28.2849 15.7369C36.8702 15.1602 41.529 17.6169 44.5085 21.1117C47.4132 24.5187 52.0844 33.4568 53.0008 45.9641C53.0015 45.9737 53.002 45.9833 53.0024 45.9928C53.1287 49.2201 52.3335 53.8945 49.4391 57.3547C46.4827 60.8892 41.481 62.9879 33.5941 61.2555C25.6614 59.5129 19.7984 54.0379 16.0971 47.9586C12.4147 41.9103 10.7815 35.1141 11.4596 30.5418C11.6055 29.2408 12.3394 27.7087 13.3627 26.1889C14.4064 24.6389 15.8127 23.0118 17.4097 21.5185C20.5658 18.5676 24.6389 15.9819 28.2849 15.7369Z" fill="#04004F"/>
<path fill-rule="evenodd" clip-rule="evenodd" d="M54.2612 26.783C54.0925 25.4963 52.8795 24.6735 51.647 24.8913C50.0021 25.182 48.351 25.6027 46.9262 26.0976C45.5261 26.5838 44.2682 27.1675 43.4637 27.8173C43.2472 27.988 43.1266 28.2089 43.0573 28.3715C42.9825 28.5467 42.9339 28.7344 42.9001 28.9106C42.8324 29.2632 42.8054 29.6727 42.7986 30.0707C42.785 30.8684 42.8514 31.7457 42.9166 32.3167C43.2585 36.005 44.7088 37.8637 45.7917 38.4299L46.1837 37.6801L45.7917 38.4299C45.9474 38.5113 46.0977 38.5538 46.2097 38.5792L46.3963 37.754L46.2097 38.5792C48.1468 39.0173 49.7397 38.4672 50.9133 37.6115C52.0628 36.7733 52.8217 35.6381 53.1829 34.8163C53.1855 34.8104 53.1881 34.8044 53.1905 34.7985C53.1914 34.7963 53.1923 34.7941 53.1932 34.792C54.5124 31.5168 54.5192 28.7521 54.2612 26.783Z" fill="#04004F"/>
<path fill-rule="evenodd" clip-rule="evenodd" d="M41.0523 29.4222C40.0998 29.269 37.9472 29.1065 35.0934 29.381C31.6183 29.7152 28.2305 30.8664 26.5138 31.5579C25.948 31.7858 25.3721 32.3076 25.3131 33.1107C25.2637 33.7833 25.3332 34.778 25.6933 36.0787C25.9265 37.0641 26.3499 38.5764 26.873 39.9474C27.1356 40.6355 27.4315 41.3099 27.7514 41.871C28.053 42.3998 28.4443 42.9537 28.9444 43.2541C29.7759 43.7537 30.7257 44.164 31.9664 44.2099C33.1897 44.2552 34.6167 43.9435 36.4138 43.1481C38.4192 42.2604 39.7844 40.3087 40.6666 38.3948C41.5582 36.4603 42.0307 34.4045 42.1601 33.0758C42.308 31.5566 42.2261 30.6402 42.0164 30.1339C41.7866 29.579 41.2536 29.4546 41.0523 29.4222Z" fill="#04004F"/>
<path d="M52.7832 27.5378C52.9049 31.5773 52.0225 33.5493 51.3187 33.8031C50.8613 33.5513 50.5097 32.9332 50.3308 32.1934C50.0375 30.9806 49.2198 29.7644 48.043 29.3496C47.2379 29.0658 46.9063 28.6598 47.8496 28.0494C49.288 27.1187 51.1064 26.6963 52.0225 26.6962C52.7832 26.6962 52.7739 27.2274 52.7832 27.5378Z" fill="#FCC601"/>
<path d="M40.3226 31.6928C40.458 36.1603 37.8655 40.5722 37.0227 40.4924C35.9273 40.2396 35.7584 38.8373 35.9163 37.4199C36.0547 36.1778 35.2805 34.938 34.0786 34.5954C32.4618 34.1345 31.15 33.4072 32.2844 32.4543C34.3997 30.6774 38.4576 30.762 39.4765 30.762C40.3226 30.762 40.3122 31.3495 40.3226 31.6928Z" fill="#FCC601"/>
<circle cx="28.728" cy="34.0567" r="0.930736" fill="white"/>
<path fill-rule="evenodd" clip-rule="evenodd" d="M42.1558 9.36927C37.0242 3.35298 29.9365 1.71119 23.5971 2.82365C22.0053 3.10299 12.2163 5.00621 8.22379 14.3399C8.03775 14.7749 7.89795 15.2326 7.80837 15.6959C7.28745 18.3902 7.50862 20.3427 7.89288 21.6538C8.02498 22.1046 8.17534 22.476 8.3187 22.7726C7.43265 23.2803 6.10461 24.223 4.98815 25.7421C3.32238 28.0084 2.19234 31.4736 3.55084 36.4554C3.55569 36.4732 3.56111 36.4908 3.56711 36.5082C4.22074 38.407 5.11608 39.7053 6.11588 40.6816C7.03711 41.5811 8.03245 42.189 8.89951 42.7185L9.07437 42.8254C10.3778 43.6238 11.5597 44.2865 12.6021 44.6971C13.6262 45.1005 14.6572 45.319 15.5914 45.0405C15.8539 44.9622 16.0623 44.7617 16.1505 44.5023C16.2388 44.243 16.1961 43.957 16.0359 43.7348C15.8208 43.4364 15.6118 43.0665 15.476 42.6904C15.3374 42.3067 15.2968 41.9778 15.3405 41.7301C15.3779 41.5183 15.4807 41.3252 15.7553 41.1564C16.002 41.0048 16.4114 40.8605 17.0664 40.7998C17.1502 40.9449 17.2441 41.0895 17.348 41.2271C17.5762 41.5295 17.9061 41.8701 18.3456 42.0522C18.8411 42.2575 19.4016 42.2272 19.9141 41.8857C20.3727 41.5802 20.7376 41.0637 21.0464 40.4073C21.7299 38.9546 21.5963 37.3655 21.2418 35.9851C20.9206 34.734 20.3862 33.5416 19.982 32.6397L19.8878 32.4291C19.715 31.7302 19.8473 31.1646 20.1526 30.7553C20.4725 30.3264 21.0615 29.965 21.9706 29.8645C22.5328 29.8024 22.9762 29.5474 23.3008 29.1599C23.5987 28.8043 23.7686 28.3704 23.8872 27.9807C23.9814 27.6714 24.0615 27.3231 24.1376 26.9921L24.1376 26.992C24.1573 26.9064 24.1767 26.822 24.196 26.7397C24.2947 26.3193 24.3999 25.9109 24.5463 25.5174C24.8332 24.7461 25.2669 24.0611 26.0825 23.5692C26.917 23.0658 28.2522 22.7038 30.4579 22.803C30.4706 22.8036 30.4833 22.8039 30.4959 22.8039C32.0329 22.8039 33.6316 23.029 35.2599 23.3023C35.6235 23.3633 35.9901 23.427 36.3577 23.491L36.3581 23.491C37.6125 23.7091 38.8795 23.9294 40.0853 24.052C43.2102 24.3697 46.3187 24.0756 48.3802 21.1517C50.0705 18.7543 50.55 16.1884 50.3614 14.037C50.1776 11.9411 49.338 10.0853 48.1917 9.23795C47.9825 9.08335 47.7139 9.03352 47.4632 9.10283C47.2126 9.17213 47.0077 9.35286 46.9077 9.59293C46.6419 10.2308 46.3133 10.5971 45.9961 10.8C45.6824 11.0006 45.3186 11.081 44.9055 11.043C44.0446 10.9639 43.0041 10.3639 42.1558 9.36927Z" fill="#04004F"/>
<path d="M11.7121 38.4752C15.1905 36.4634 17.0795 38.87 17.7142 40.4514L17.1371 42.3587L18.4638 44.8746L16.4071 46.9143C14.3375 49.6163 11.5815 46.8667 10.9357 46.16C10.2975 45.4617 7.36407 40.99 11.7121 38.4752Z" fill="white"/>
<path fill-rule="evenodd" clip-rule="evenodd" d="M16.339 37.5668C17.5895 38.3262 18.3778 39.5855 18.7389 40.4851C18.9129 40.9188 18.7025 41.4115 18.2688 41.5855C17.8351 41.7596 17.3425 41.5491 17.1684 41.1154C16.8948 40.4337 16.302 39.5242 15.4606 39.0132C14.6905 38.5455 13.6202 38.349 12.1368 39.207C11.1864 39.7567 10.694 40.3747 10.4488 40.9634C10.2 41.5609 10.1738 42.2056 10.2882 42.8503C10.5237 44.1773 11.3239 45.3288 11.5613 45.5886C11.8536 45.9084 12.5753 46.5891 13.3955 46.8925C13.7905 47.0386 14.1633 47.0805 14.5081 46.9961C14.8427 46.9142 15.2423 46.6915 15.6633 46.1418C15.9475 45.7708 16.4786 45.7005 16.8496 45.9846C17.2205 46.2688 17.2909 46.7999 17.0068 47.1708C16.393 47.9722 15.6812 48.4511 14.9105 48.6398C14.15 48.8259 13.4236 48.7072 12.8085 48.4797C11.6084 48.0358 10.6657 47.1171 10.3122 46.7302C9.91144 46.2918 8.92582 44.8582 8.622 43.146C8.46677 42.2711 8.48265 41.2827 8.88668 40.3127C9.2944 39.3339 10.0659 38.4498 11.2895 37.7421C13.2845 36.5883 15.0171 36.764 16.339 37.5668Z" fill="#04004F"/>
<path fill-rule="evenodd" clip-rule="evenodd" d="M15.1039 41.6357C15.4117 41.7143 15.6654 41.8779 15.8095 42.0092C16.0185 42.1415 16.1717 42.388 16.2786 42.6288C16.3879 42.8752 16.4553 43.1309 16.4842 43.2929C16.4856 43.3007 16.4859 43.3086 16.4851 43.3165C16.4342 43.8084 16.2587 44.06 16.0258 44.1451C15.8014 44.2271 15.5627 44.1387 15.417 44.0435C15.392 44.0272 15.3774 43.9988 15.3788 43.9689C15.3852 43.8244 15.3606 43.6228 15.275 43.4786C15.2332 43.4081 15.1789 43.3546 15.1092 43.3248C15.0398 43.2951 14.9463 43.2852 14.8191 43.3177C14.4216 43.4192 13.9962 43.1815 13.7862 42.8595C13.6796 42.696 13.6222 42.5022 13.6562 42.3084C13.6905 42.1125 13.8157 41.9302 14.0478 41.7883C14.4157 41.5633 14.7895 41.5554 15.1039 41.6357Z" fill="#04004F"/>
<path fill-rule="evenodd" clip-rule="evenodd" d="M43.1269 38.7203C43.4956 38.518 43.9585 38.6529 44.1608 39.0216C44.5032 39.6456 45.1353 40.4826 45.8462 40.8259C46.7754 41.2745 47.3294 42.4158 47.0125 43.6145C46.6927 44.8237 45.5542 45.9388 43.4554 46.6972C43.0599 46.8402 42.6234 46.6354 42.4804 46.2398C42.3375 45.8443 42.5423 45.4078 42.9378 45.2649C44.7996 44.5921 45.4005 43.7528 45.5401 43.2251C45.6824 42.687 45.4154 42.3091 45.184 42.1974C44.038 41.6441 43.2138 40.4619 42.8256 39.7543C42.6233 39.3855 42.7582 38.9226 43.1269 38.7203Z" fill="#04004F"/>
<path fill-rule="evenodd" clip-rule="evenodd" d="M35.0687 48.222C34.7601 48.0165 34.3537 48.0357 34.0659 48.2696C33.7782 48.5034 33.6762 48.8973 33.8143 49.2414C34.5547 51.0862 36.4829 54.4614 40.5055 54.5431C42.8478 54.5906 44.3373 52.5613 44.8136 50.6744L44.9448 50.1546C45.0276 49.827 44.9074 49.4816 44.6392 49.276C44.371 49.0704 44.0063 49.0441 43.7114 49.2091C42.5026 49.8853 38.9146 50.7843 35.0687 48.222Z" fill="#04004F"/>
</svg>
