<svg width="66" height="66" viewBox="0 0 66 66" fill="none" xmlns="http://www.w3.org/2000/svg">
<circle cx="33" cy="33" r="33" fill="#FCC601"/>
<path d="M35.4562 57.2549C48.7321 60.1712 51.6296 50.1314 51.4189 44.747C50.633 34.0221 46.627 26.4136 44.2177 23.5876C41.8083 20.7616 38.0062 18.6882 30.7372 19.1765C24.9219 19.5672 17.2185 27.5783 16.8053 31.3947C15.6829 38.8933 22.1803 54.3387 35.4562 57.2549Z" fill="white"/>
<path fill-rule="evenodd" clip-rule="evenodd" d="M43.659 24.0645C41.4277 21.4473 37.8695 19.434 30.787 19.9098C28.138 20.0877 24.9159 22.0432 22.2478 24.5378C20.9303 25.7697 19.7847 27.0995 18.9487 28.341C18.0991 29.6029 17.6202 30.6988 17.5363 31.4739C17.5352 31.4838 17.534 31.4937 17.5325 31.5036C17.0044 35.0314 18.2741 40.5935 21.3595 45.6612C24.4323 50.7082 29.2274 55.1344 35.6144 56.5374C42.0412 57.9491 45.7843 56.2099 47.932 53.6424C50.13 51.0146 50.7841 47.3693 50.6856 44.7882C49.9076 34.2068 45.9543 26.7567 43.659 24.0645ZM30.6885 18.4435C38.1441 17.9426 42.1899 20.0761 44.7773 23.111C47.2999 26.0698 51.3564 33.8318 52.1522 44.6934C52.1528 44.7017 52.1533 44.71 52.1536 44.7184C52.2633 47.521 51.5727 51.5803 49.0592 54.5853C46.4917 57.6547 42.1482 59.4773 35.2991 57.9728C28.4101 56.4595 23.3186 51.7049 20.1043 46.4254C16.9064 41.173 15.4881 35.271 16.077 31.3004C16.2037 30.1706 16.8411 28.84 17.7297 27.5202C18.6361 26.1742 19.8573 24.7611 21.2441 23.4644C23.985 20.9017 27.5222 18.6562 30.6885 18.4435Z" fill="#04004F"/>
<path fill-rule="evenodd" clip-rule="evenodd" d="M53.2468 28.0362C53.1003 26.9187 52.0469 26.2042 50.9766 26.3934C49.5481 26.6458 48.1142 27.0112 46.8769 27.4409C45.6611 27.8632 44.5687 28.3701 43.87 28.9343C43.682 29.0826 43.5773 29.2744 43.5171 29.4156C43.4521 29.5678 43.4099 29.7308 43.3806 29.8838C43.3218 30.19 43.2983 30.5457 43.2924 30.8913C43.2806 31.584 43.3383 32.3459 43.3949 32.8417C43.6918 36.0447 44.9512 37.6589 45.8917 38.1505L46.2321 37.4994L45.8917 38.1505C46.0269 38.2212 46.1574 38.2582 46.2547 38.2802L46.4168 37.5636L46.2547 38.2802C47.9369 38.6606 49.3203 38.183 50.3394 37.4398C51.3376 36.7119 51.9967 35.7261 52.3104 35.0125C52.3135 35.0054 52.3164 34.9984 52.3193 34.9913C53.465 32.1471 53.4708 29.7462 53.2468 28.0362Z" fill="#04004F"/>
<path fill-rule="evenodd" clip-rule="evenodd" d="M41.7759 30.3281C40.9487 30.1951 39.0794 30.0539 36.6011 30.2923C33.5833 30.5826 30.6412 31.5823 29.1503 32.1828C28.659 32.3807 28.1589 32.8338 28.1077 33.5313C28.0648 34.1154 28.1251 34.9792 28.4378 36.1088C28.6404 36.9645 29.008 38.2778 29.4623 39.4684C29.6903 40.066 29.9473 40.6517 30.2252 41.1389C30.4871 41.5982 30.8269 42.0792 31.2612 42.3401C31.9833 42.7739 32.8081 43.1302 33.8856 43.1701C34.9479 43.2094 36.1871 42.9387 37.7477 42.2479C39.4893 41.4771 40.6748 39.7822 41.4409 38.1201C42.2153 36.4402 42.6256 34.6549 42.7379 33.5009C42.8664 32.1817 42.7953 31.3858 42.6132 30.9462C42.4136 30.4643 41.9507 30.3562 41.7759 30.3281Z" fill="#04004F"/>
<path d="M51.9633 28.6916C52.069 32.1996 51.3026 33.9121 50.6915 34.1326C50.3586 33.9494 50.0903 33.5427 49.9206 33.0378C49.5233 31.855 48.6692 30.7059 47.5555 30.1434C47.0851 29.9058 46.9858 29.5844 47.6788 29.136C48.928 28.3277 50.5071 27.9608 51.3026 27.9608C51.9633 27.9608 51.9552 28.4221 51.9633 28.6916Z" fill="#FCC601"/>
<path d="M41.1422 32.2999C41.2598 36.1796 39.0084 40.011 38.2766 39.9417C37.4066 39.741 37.2096 38.7053 37.2871 37.5883C37.3737 36.3416 36.6076 35.1102 35.4173 34.7293C34.1607 34.3271 33.2485 33.7283 34.1617 32.9612C35.9987 31.4181 39.5226 31.4916 40.4075 31.4916C41.1422 31.4916 41.1332 32.0018 41.1422 32.2999Z" fill="#FCC601"/>
<circle cx="31.0733" cy="34.3528" r="0.808271" fill="white"/>
<path fill-rule="evenodd" clip-rule="evenodd" d="M42.7342 12.9137C38.2778 7.68903 32.1227 6.26327 26.6175 7.22935C25.2351 7.47193 16.7341 9.12473 13.2669 17.2303C13.1054 17.608 12.984 18.0056 12.9062 18.4079C12.4538 20.7476 12.6459 22.4433 12.9796 23.5819C13.0943 23.9733 13.2249 24.2959 13.3494 24.5534C12.5799 24.9943 11.4266 25.813 10.457 27.1322C9.01045 29.1003 8.0291 32.1096 9.20885 36.4359C9.21306 36.4513 9.21777 36.4666 9.22298 36.4818C9.79061 38.1307 10.5681 39.2582 11.4364 40.106C12.2364 40.8872 13.1008 41.415 13.8537 41.8749L14.0056 41.9677C15.1375 42.661 16.1639 43.2366 17.0691 43.5931C17.9585 43.9434 18.8539 44.1332 19.6651 43.8913C19.8931 43.8233 20.074 43.6492 20.1507 43.424C20.2274 43.1988 20.1903 42.9504 20.0511 42.7574C19.8643 42.4983 19.6828 42.1771 19.5649 41.8504C19.4446 41.5173 19.4093 41.2317 19.4473 41.0165C19.4797 40.8326 19.569 40.6649 19.8074 40.5183C20.0217 40.3866 20.3773 40.2613 20.9461 40.2087C21.0188 40.3346 21.1004 40.4602 21.1906 40.5797C21.3888 40.8423 21.6752 41.1381 22.0569 41.2963C22.4873 41.4746 22.974 41.4482 23.4191 41.1517C23.8173 40.8863 24.1342 40.4378 24.4024 39.8678C24.9959 38.6062 24.8799 37.2262 24.5721 36.0274C24.2931 34.941 23.829 33.9054 23.478 33.1222L23.478 33.1222L23.3962 32.9394C23.2461 32.3324 23.3611 31.8412 23.6261 31.4858C23.904 31.1133 24.4155 30.7995 25.205 30.7122C25.6932 30.6583 26.0782 30.4368 26.3601 30.1003C26.6188 29.7915 26.7664 29.4147 26.8694 29.0763C26.9512 28.8076 27.0207 28.5051 27.0868 28.2177C27.1039 28.1433 27.1208 28.07 27.1375 27.9985C27.2232 27.6335 27.3146 27.2788 27.4417 26.9371C27.6909 26.2673 28.0675 25.6724 28.7758 25.2452C29.5005 24.8081 30.66 24.4937 32.5755 24.5799C32.5865 24.5804 32.5975 24.5806 32.6085 24.5806C33.9433 24.5806 35.3316 24.7761 36.7457 25.0134C37.0616 25.0664 37.38 25.1218 37.6994 25.1773C38.7887 25.3667 39.889 25.558 40.9361 25.6645C43.6499 25.9404 46.3494 25.685 48.1396 23.1458C49.6075 21.0639 50.0239 18.8356 49.8601 16.9672C49.7005 15.1471 48.9714 13.5355 47.9759 12.7997C47.7943 12.6654 47.561 12.6221 47.3433 12.6823C47.1256 12.7425 46.9477 12.8995 46.8608 13.1079C46.63 13.6619 46.3447 13.98 46.0692 14.1562C45.7968 14.3304 45.4808 14.4002 45.1221 14.3672C44.3745 14.2985 43.4709 13.7775 42.7342 12.9137Z" fill="#04004F"/>
<path d="M16.2962 38.1899C19.3169 36.4428 20.9574 38.5328 21.5086 39.9061L21.0074 41.5624L22.1596 43.7473L20.3735 45.5187C18.5762 47.8651 16.1828 45.4773 15.622 44.8636C15.0678 44.2572 12.5203 40.3738 16.2962 38.1899Z" fill="white"/>
<path fill-rule="evenodd" clip-rule="evenodd" d="M20.3143 37.401C21.4003 38.0606 22.0849 39.1541 22.3984 39.9354C22.5496 40.312 22.3668 40.7398 21.9902 40.891C21.6136 41.0421 21.1858 40.8594 21.0346 40.4828C20.797 39.8907 20.2822 39.1009 19.5515 38.6571C18.8828 38.251 17.9533 38.0803 16.665 38.8254C15.8397 39.3028 15.4122 39.8395 15.1992 40.3507C14.9831 40.8696 14.9604 41.4295 15.0597 41.9894C15.2642 43.1417 15.9591 44.1417 16.1653 44.3674C16.4191 44.6451 17.0458 45.2362 17.7582 45.4997C18.1012 45.6266 18.4249 45.6629 18.7244 45.5896C19.0149 45.5185 19.362 45.3251 19.7276 44.8478C19.9744 44.5256 20.4356 44.4645 20.7577 44.7113C21.0799 44.958 21.141 45.4192 20.8943 45.7414C20.3613 46.4373 19.7431 46.8532 19.0738 47.0171C18.4134 47.1787 17.7826 47.0756 17.2483 46.878C16.2062 46.4925 15.3875 45.6947 15.0805 45.3588C14.7325 44.978 13.8766 43.7331 13.6127 42.2461C13.4779 41.4864 13.4917 40.628 13.8426 39.7857C14.1967 38.9356 14.8666 38.1679 15.9293 37.5533C17.6617 36.5513 19.1664 36.7039 20.3143 37.401Z" fill="#04004F"/>
<path fill-rule="evenodd" clip-rule="evenodd" d="M19.2417 40.9345C19.5091 41.0028 19.7293 41.1449 19.8545 41.2589C20.036 41.3738 20.169 41.5878 20.2619 41.797C20.3568 42.011 20.4153 42.2331 20.4404 42.3737C20.4416 42.3805 20.4419 42.3873 20.4412 42.3942C20.397 42.8214 20.2447 43.0399 20.0423 43.1138C19.8475 43.1849 19.6402 43.1082 19.5137 43.0256C19.4919 43.0113 19.4793 42.9867 19.4804 42.9607C19.4861 42.8353 19.4647 42.6602 19.3904 42.535C19.3541 42.4738 19.3069 42.4272 19.2463 42.4014C19.1861 42.3756 19.1049 42.367 18.9944 42.3952C18.6492 42.4834 18.2798 42.2769 18.0975 41.9973C18.0049 41.8554 17.955 41.687 17.9845 41.5187C18.0143 41.3486 18.1231 41.1903 18.3246 41.067C18.6441 40.8717 18.9688 40.8648 19.2417 40.9345Z" fill="#04004F"/>
<path fill-rule="evenodd" clip-rule="evenodd" d="M43.5775 38.4028C43.8977 38.2271 44.2997 38.3442 44.4754 38.6644C44.7727 39.2063 45.3217 39.9332 45.9391 40.2313C46.7459 40.6209 47.2271 41.612 46.9518 42.653C46.6742 43.7031 45.6854 44.6715 43.8628 45.3301C43.5193 45.4542 43.1403 45.2764 43.0161 44.9329C42.892 44.5894 43.0698 44.2103 43.4133 44.0862C45.0301 43.502 45.552 42.7731 45.6732 42.3149C45.7967 41.8475 45.5649 41.5194 45.364 41.4223C44.3688 40.9418 43.653 39.9152 43.3159 39.3007C43.1402 38.9805 43.2573 38.5785 43.5775 38.4028Z" fill="#04004F"/>
<path fill-rule="evenodd" clip-rule="evenodd" d="M36.5796 46.6543C36.3116 46.4758 35.9587 46.4925 35.7088 46.6955C35.4589 46.8986 35.3703 47.2407 35.4903 47.5395C36.1333 49.1416 37.8078 52.0727 41.301 52.1436C43.3352 52.1849 44.6287 50.4226 45.0423 48.784L45.1563 48.3326C45.2281 48.0481 45.1238 47.7481 44.8909 47.5696C44.658 47.391 44.3412 47.3682 44.0851 47.5115C43.0353 48.0987 39.9195 48.8794 36.5796 46.6543Z" fill="#04004F"/>
</svg>
