<?xml version="1.0" encoding="utf-8"?>
<!-- Generator: Adobe Illustrator 22.1.0, SVG Export Plug-In . SVG Version: 6.00 Build 0)  -->
<svg version="1.1" id="Слой_1" xmlns="http://www.w3.org/2000/svg" xmlns:xlink="http://www.w3.org/1999/xlink" x="0px" y="0px"
	 viewBox="0 0 66 66" style="enable-background:new 0 0 66 66;" xml:space="preserve">
<style type="text/css">
	.st0{fill:#077ED8;}
	.st1{fill:#FFFFFF;}
	.st2{fill:#04004F;}
	.st3{fill:#FCC601;}
</style>
<circle class="st0" cx="33" cy="33" r="33"/>
<path class="st1" d="M35.5,57.3c13.3,2.9,16.2-7.1,16-12.5c-0.8-10.7-4.8-18.3-7.2-21.2c-2.4-2.8-6.2-4.9-13.5-4.4
	c-5.8,0.4-13.5,8.4-13.9,12.2C15.7,38.9,22.2,54.3,35.5,57.3z"/>
<path class="st2" d="M43.7,24.1c-2.2-2.6-5.8-4.6-12.9-4.2c-2.6,0.2-5.9,2.1-8.5,4.6c-1.3,1.2-2.5,2.6-3.3,3.8
	c-0.8,1.3-1.3,2.4-1.4,3.1c0,0,0,0,0,0c-0.5,3.5,0.7,9.1,3.8,14.2c3.1,5,7.9,9.5,14.3,10.9c6.4,1.4,10.2-0.3,12.3-2.9
	c2.2-2.6,2.9-6.3,2.8-8.9C49.9,34.2,46,26.8,43.7,24.1z M30.7,18.4c7.5-0.5,11.5,1.6,14.1,4.7c2.5,3,6.6,10.7,7.4,21.6c0,0,0,0,0,0
	c0.1,2.8-0.6,6.9-3.1,9.9c-2.6,3.1-6.9,4.9-13.8,3.4c-6.9-1.5-12-6.3-15.2-11.5c-3.2-5.3-4.6-11.2-4-15.1c0.1-1.1,0.8-2.5,1.7-3.8
	c0.9-1.3,2.1-2.8,3.5-4.1C24,20.9,27.5,18.7,30.7,18.4z"/>
<path class="st2" d="M53.2,28c-0.1-1.1-1.2-1.8-2.3-1.6c-1.4,0.3-2.9,0.6-4.1,1c-1.2,0.4-2.3,0.9-3,1.5c-0.2,0.1-0.3,0.3-0.4,0.5
	c-0.1,0.2-0.1,0.3-0.1,0.5c-0.1,0.3-0.1,0.7-0.1,1c0,0.7,0,1.5,0.1,2c0.3,3.2,1.6,4.8,2.5,5.3l0.3-0.7l-0.3,0.7
	c0.1,0.1,0.3,0.1,0.4,0.1l0.2-0.7l-0.2,0.7c1.7,0.4,3.1-0.1,4.1-0.8c1-0.7,1.7-1.7,2-2.4c0,0,0,0,0,0C53.5,32.1,53.5,29.7,53.2,28z"
	/>
<path class="st2" d="M41.8,30.3c-0.8-0.1-2.7-0.3-5.2,0c-3,0.3-6,1.3-7.5,1.9c-0.5,0.2-1,0.7-1,1.3c0,0.6,0,1.4,0.3,2.6
	c0.2,0.9,0.6,2.2,1,3.4c0.2,0.6,0.5,1.2,0.8,1.7c0.3,0.5,0.6,0.9,1,1.2c0.7,0.4,1.5,0.8,2.6,0.8c1.1,0,2.3-0.2,3.9-0.9
	c1.7-0.8,2.9-2.5,3.7-4.1c0.8-1.7,1.2-3.5,1.3-4.6c0.1-1.3,0.1-2.1-0.1-2.6C42.4,30.5,42,30.4,41.8,30.3z"/>
<path class="st3" d="M52,28.7c0.1,3.5-0.7,5.2-1.3,5.4c-0.3-0.2-0.6-0.6-0.8-1.1c-0.4-1.2-1.3-2.3-2.4-2.9c-0.5-0.2-0.6-0.6,0.1-1
	c1.2-0.8,2.8-1.2,3.6-1.2C52,28,52,28.4,52,28.7z"/>
<path class="st3" d="M41.1,32.3c0.1,3.9-2.1,7.7-2.9,7.6c-0.9-0.2-1.1-1.2-1-2.4c0.1-1.2-0.7-2.5-1.9-2.9c-1.3-0.4-2.2-1-1.3-1.8
	c1.8-1.5,5.4-1.5,6.2-1.5C41.1,31.5,41.1,32,41.1,32.3z"/>
<circle class="st1" cx="31.1" cy="34.4" r="0.8"/>
<path class="st2" d="M42.7,12.9c-4.5-5.2-10.6-6.7-16.1-5.7c-1.4,0.2-9.9,1.9-13.4,10c-0.2,0.4-0.3,0.8-0.4,1.2
	c-0.5,2.3-0.3,4,0.1,5.2c0.1,0.4,0.2,0.7,0.4,1c-0.8,0.4-1.9,1.3-2.9,2.6c-1.4,2-2.4,5-1.2,9.3c0,0,0,0,0,0c0.6,1.6,1.3,2.8,2.2,3.6
	c0.8,0.8,1.7,1.3,2.4,1.8L14,42c1.1,0.7,2.2,1.3,3.1,1.6c0.9,0.4,1.8,0.5,2.6,0.3c0.2-0.1,0.4-0.2,0.5-0.5s0-0.5-0.1-0.7
	c-0.2-0.3-0.4-0.6-0.5-0.9c-0.1-0.3-0.2-0.6-0.1-0.8c0-0.2,0.1-0.4,0.4-0.5c0.2-0.1,0.6-0.3,1.1-0.3c0.1,0.1,0.2,0.3,0.2,0.4
	c0.2,0.3,0.5,0.6,0.9,0.7c0.4,0.2,0.9,0.2,1.4-0.1c0.4-0.3,0.7-0.7,1-1.3c0.6-1.3,0.5-2.6,0.2-3.8c-0.3-1.1-0.7-2.1-1.1-2.9l0,0
	l-0.1-0.2c-0.2-0.6,0-1.1,0.2-1.5c0.3-0.4,0.8-0.7,1.6-0.8c0.5-0.1,0.9-0.3,1.2-0.6c0.3-0.3,0.4-0.7,0.5-1c0.1-0.3,0.2-0.6,0.2-0.9
	c0-0.1,0-0.1,0.1-0.2c0.1-0.4,0.2-0.7,0.3-1.1c0.2-0.7,0.6-1.3,1.3-1.7c0.7-0.4,1.9-0.8,3.8-0.7c0,0,0,0,0,0c1.3,0,2.7,0.2,4.1,0.4
	c0.3,0.1,0.6,0.1,1,0.2c1.1,0.2,2.2,0.4,3.2,0.5c2.7,0.3,5.4,0,7.2-2.5c1.5-2.1,1.9-4.3,1.7-6.2c-0.2-1.8-0.9-3.4-1.9-4.2
	c-0.2-0.1-0.4-0.2-0.6-0.1c-0.2,0.1-0.4,0.2-0.5,0.4c-0.2,0.6-0.5,0.9-0.8,1c-0.3,0.2-0.6,0.2-0.9,0.2
	C44.4,14.3,43.5,13.8,42.7,12.9z"/>
<path class="st1" d="M16.3,38.2c3-1.7,4.7,0.3,5.2,1.7L21,41.6l1.2,2.2l-1.8,1.8c-1.8,2.3-4.2,0-4.8-0.7
	C15.1,44.3,12.5,40.4,16.3,38.2z"/>
<path class="st2" d="M20.3,37.4c1.1,0.7,1.8,1.8,2.1,2.5c0.2,0.4,0,0.8-0.4,1c-0.4,0.2-0.8,0-1-0.4c-0.2-0.6-0.8-1.4-1.5-1.8
	c-0.7-0.4-1.6-0.6-2.9,0.2c-0.8,0.5-1.3,1-1.5,1.5C15,40.9,15,41.4,15.1,42c0.2,1.2,0.9,2.2,1.1,2.4c0.3,0.3,0.9,0.9,1.6,1.1
	c0.3,0.1,0.7,0.2,1,0.1c0.3-0.1,0.6-0.3,1-0.7c0.2-0.3,0.7-0.4,1-0.1c0.3,0.2,0.4,0.7,0.1,1c-0.5,0.7-1.2,1.1-1.8,1.3
	c-0.7,0.2-1.3,0.1-1.8-0.1c-1-0.4-1.9-1.2-2.2-1.5c-0.3-0.4-1.2-1.6-1.5-3.1c-0.1-0.8-0.1-1.6,0.2-2.5c0.4-0.9,1-1.6,2.1-2.2
	C17.7,36.6,19.2,36.7,20.3,37.4z"/>
<path class="st2" d="M19.2,40.9c0.3,0.1,0.5,0.2,0.6,0.3c0.2,0.1,0.3,0.3,0.4,0.5c0.1,0.2,0.2,0.4,0.2,0.6c0,0,0,0,0,0
	c0,0.4-0.2,0.6-0.4,0.7c-0.2,0.1-0.4,0-0.5-0.1c0,0,0,0,0-0.1c0-0.1,0-0.3-0.1-0.4c0-0.1-0.1-0.1-0.1-0.1c-0.1,0-0.1,0-0.3,0
	c-0.3,0.1-0.7-0.1-0.9-0.4C18,41.9,18,41.7,18,41.5c0-0.2,0.1-0.3,0.3-0.5C18.6,40.9,19,40.9,19.2,40.9z"/>
<path class="st2" d="M43.6,38.4c0.3-0.2,0.7-0.1,0.9,0.3c0.3,0.5,0.8,1.3,1.5,1.6c0.8,0.4,1.3,1.4,1,2.4c-0.3,1.1-1.3,2-3.1,2.7
	c-0.3,0.1-0.7-0.1-0.8-0.4c-0.1-0.3,0.1-0.7,0.4-0.8c1.6-0.6,2.1-1.3,2.3-1.8c0.1-0.5-0.1-0.8-0.3-0.9c-1-0.5-1.7-1.5-2-2.1
	C43.1,39,43.3,38.6,43.6,38.4z"/>
<path class="st2" d="M36.6,46.7c-0.3-0.2-0.6-0.2-0.9,0c-0.2,0.2-0.3,0.5-0.2,0.8c0.6,1.6,2.3,4.5,5.8,4.6c2,0,3.3-1.7,3.7-3.4
	l0.1-0.5c0.1-0.3,0-0.6-0.3-0.8c-0.2-0.2-0.5-0.2-0.8-0.1C43,48.1,39.9,48.9,36.6,46.7z"/>
</svg>
