<svg width="25" height="24" viewBox="0 0 25 24" fill="none" xmlns="http://www.w3.org/2000/svg">
<ellipse cx="12.5002" cy="7.2001" rx="4.8" ry="1.6" fill="white"/>
<path fill-rule="evenodd" clip-rule="evenodd" d="M8.80415 13.5691C6.24622 13.9962 4.5 14.8529 4.5 15.8401C4.5 17.254 8.08172 18.4001 12.5 18.4001C16.9183 18.4001 20.5 17.254 20.5 15.8401C20.5 14.8529 18.7538 13.9962 16.1959 13.5691C15.152 13.828 13.8767 13.9801 12.5 13.9801C11.1233 13.9801 9.84805 13.828 8.80415 13.5691Z" fill="white"/>
<path fill-rule="evenodd" clip-rule="evenodd" d="M9.3964 9.08057C7.43045 9.46285 6.1001 10.1971 6.1001 11.04C6.1001 12.2771 8.96548 13.28 12.5001 13.28C16.0347 13.28 18.9001 12.2771 18.9001 11.04C18.9001 10.197 17.5697 9.46285 15.6038 9.08057C14.7669 9.31724 13.6835 9.46 12.5001 9.46C11.3167 9.46 10.2332 9.31724 9.3964 9.08057Z" fill="white"/>
</svg>
