<svg width="25" height="24" viewBox="0 0 25 24" fill="none" xmlns="http://www.w3.org/2000/svg">
<path d="M24.5 12C24.5 18.6274 19.1274 24 12.5 24C5.87258 24 0.5 18.6274 0.5 12C0.5 5.37258 5.87258 0 12.5 0C19.1274 0 24.5 5.37258 24.5 12Z" fill="white"/>
<ellipse cx="12.5001" cy="7.90905" rx="4.09091" ry="1.36364" fill="#1E1E1E"/>
<path fill-rule="evenodd" clip-rule="evenodd" d="M9.77451 13.2722C7.36554 13.6088 5.68188 14.3778 5.68188 15.2727C5.68188 16.4777 8.73449 17.4545 12.5001 17.4545C16.2656 17.4545 19.3182 16.4777 19.3182 15.2727C19.3182 14.3778 17.6346 13.6088 15.2256 13.2722C14.4237 13.4344 13.4929 13.5273 12.5001 13.5273C11.5073 13.5273 10.5764 13.4344 9.77451 13.2722Z" fill="#1E1E1E"/>
<path fill-rule="evenodd" clip-rule="evenodd" d="M10.2826 9.43701C8.37516 9.73441 7.04541 10.4037 7.04541 11.1818C7.04541 12.2361 9.48749 13.0909 12.5 13.0909C15.5124 13.0909 17.9545 12.2361 17.9545 11.1818C17.9545 10.4037 16.6247 9.73441 14.7173 9.43701C14.0784 9.57462 13.3172 9.6545 12.5 9.6545C11.6827 9.6545 10.9215 9.57462 10.2826 9.43701Z" fill="#1E1E1E"/>
</svg>
