<svg width="222" height="222" viewBox="0 0 222 222" fill="none" xmlns="http://www.w3.org/2000/svg">
<circle cx="111" cy="111" r="111" fill="#1B184E"/>
<path d="M111.004 200.757L141.336 132.809L159.186 149.433L111.004 200.757Z" fill="#04A8F0"/>
<path d="M110.996 200.757L80.6561 132.809H141.328L110.996 200.757Z" fill="#1274CC"/>
<path d="M111.004 200.757L80.664 132.809L62.8058 149.433L111.004 200.757Z" fill="#04A8F0"/>
<path d="M141.328 132.809L159.186 149.433L201.992 95.7284L176.886 42L141.328 132.809Z" fill="#686DF1"/>
<path d="M80.664 132.809L62.8058 149.433L20 95.7284L45.1062 42L80.664 132.809Z" fill="#686DF1"/>
<path d="M111 107.325C128.121 107.325 142 93.4455 142 76.3247C142 59.2039 128.121 45.3247 111 45.3247C93.8792 45.3247 80 59.2039 80 76.3247C80 93.4455 93.8792 107.325 111 107.325Z" fill="#04A8F0"/>
</svg>
