<svg width="24" height="24" viewBox="0 0 24 24" fill="none" xmlns="http://www.w3.org/2000/svg">
<path d="M23.1233 7.48567C22.5384 6.03826 21.6593 4.68123 20.4889 3.51104C19.3187 2.34071 17.9617 1.46157 16.5143 0.876705C15.0667 0.291657 13.5288 0 11.9916 0C10.4565 0 8.92141 0.292922 7.47681 0.878627C6.0324 1.4641 4.67861 2.3431 3.51085 3.51104C2.34296 4.67874 1.46391 6.03254 0.878441 7.477C0.292831 8.9215 -9.15527e-05 10.4566 -9.15527e-05 11.9916C-9.15527e-05 13.5289 0.291565 15.0667 0.87652 16.5144C1.46138 17.9618 2.34048 19.3189 3.51085 20.4891C4.68104 21.6594 6.03808 22.5385 7.48549 23.1234C8.93308 23.7084 10.471 24 12.0082 24C13.5432 24 15.0784 23.7071 16.523 23.1214C17.9674 22.536 19.3212 21.6569 20.4889 20.489C21.6569 19.3213 22.5359 17.9675 23.1214 16.523C23.707 15.0785 24 13.5434 24 12.0083C24 10.4711 23.7083 8.93322 23.1233 7.48567ZM21.6381 15.9216C21.1307 17.1725 20.3714 18.3427 19.3571 19.3572C18.3426 20.3716 17.1723 21.1308 15.9215 21.6381C14.671 22.1452 13.3398 22.3994 12.0082 22.3994C10.6734 22.3994 9.33883 22.146 8.08535 21.6394C6.83172 21.1325 5.65909 20.3734 4.64279 19.3573C3.62659 18.3409 2.86745 17.1683 2.36068 15.9147C1.85405 14.6612 1.60065 13.3266 1.60069 11.9917C1.60069 10.6602 1.85494 9.32903 2.36199 8.07845C2.86923 6.82769 3.62846 5.65745 4.64289 4.64293C5.6574 3.62855 6.82764 2.86932 8.07846 2.36204C9.32904 1.85494 10.6602 1.60074 11.9918 1.60074C13.3266 1.60074 14.6612 1.8541 15.9147 2.36077C17.1683 2.86763 18.3409 3.62673 19.3572 4.64288C20.3734 5.65923 21.1325 6.83181 21.6393 8.08544C22.146 9.33892 22.3994 10.6735 22.3994 12.0083C22.3994 13.3398 22.1452 14.671 21.6381 15.9216Z" fill="#04A8F0"/>
<path d="M14.842 6.67166C14.5801 6.52079 14.2477 6.61455 14.0995 6.88104L8.70938 16.5719C8.56113 16.8384 8.65326 17.1767 8.91512 17.3275C8.99996 17.3764 9.09209 17.3996 9.18303 17.3996C9.37297 17.3996 9.55746 17.2984 9.65771 17.1182L15.0478 7.42733C15.196 7.16084 15.1039 6.82249 14.842 6.67166Z" fill="#04A8F0" stroke="#04A8F0" stroke-width="0.4"/>
<path d="M10.4383 10.6478C10.7984 10.0233 10.8938 9.29594 10.7068 8.59975C10.5199 7.90355 10.073 7.32173 9.44848 6.96164C8.82402 6.60149 8.09677 6.50619 7.4004 6.69307C6.70415 6.88002 6.12239 7.32689 5.7623 7.95141C5.40221 8.57594 5.30685 9.30331 5.49379 9.99957C5.68073 10.6958 6.12767 11.2775 6.75219 11.6377C7.16775 11.8773 7.62878 11.9997 8.09593 11.9996C8.33085 11.9996 8.56733 11.9687 8.80027 11.9061C9.49646 11.7192 10.0782 11.2724 10.4383 10.6478ZM7.35128 10.5985C7.00432 10.3985 6.75603 10.0753 6.65215 9.68848C6.54827 9.3017 6.60123 8.89752 6.80131 8.55063C7.00132 8.20367 7.32459 7.95537 7.71137 7.85156C7.84079 7.81677 7.97214 7.79956 8.10264 7.79956C8.36216 7.79956 8.61831 7.86763 8.84915 8.00071C9.19611 8.20079 9.4444 8.524 9.54828 8.91084C9.65216 9.29762 9.5992 9.70173 9.39912 10.0486C9.19911 10.3956 8.8759 10.6439 8.48906 10.7477C8.10228 10.8516 7.69823 10.7986 7.35128 10.5985Z" fill="#04A8F0" stroke="#04A8F0" stroke-width="0.4"/>
<path d="M17.009 12.362C16.3845 12.0019 15.6572 11.9066 14.9609 12.0935C14.2647 12.2804 13.6829 12.7273 13.3228 13.3518C12.9628 13.9763 12.8674 14.7037 13.0543 15.4C13.2413 16.0962 13.6882 16.6779 14.3127 17.0381C14.7282 17.2777 15.1893 17.4001 15.6564 17.4C15.8913 17.4 16.1278 17.3691 16.3608 17.3065C17.057 17.1196 17.6388 16.6727 17.9989 16.0482C18.3589 15.4237 18.4543 14.6963 18.2674 14.0001C18.0804 13.3039 17.6335 12.7222 17.009 12.362ZM16.9598 15.449C16.7598 15.796 16.4365 16.0443 16.0497 16.1481C15.663 16.252 15.2588 16.199 14.9119 15.999C14.565 15.7989 14.3167 15.4757 14.2128 15.0889C14.1089 14.7022 14.1619 14.298 14.362 13.9511C14.562 13.6041 14.8852 13.3558 15.272 13.252C15.4015 13.2172 15.5328 13.2 15.6633 13.2C15.9228 13.2 16.179 13.2681 16.4098 13.4012C16.7568 13.6013 17.0051 13.9245 17.1089 14.3113C17.2128 14.698 17.1599 15.1021 16.9598 15.449Z" fill="#04A8F0" stroke="#04A8F0" stroke-width="0.4"/>
</svg>
