<svg width="25" height="24" viewBox="0 0 25 24" fill="none" xmlns="http://www.w3.org/2000/svg">
<g clip-path="url(#clip0_14_1488)">
<path d="M24.5 12C24.5 18.6274 19.1274 24 12.5 24C5.87258 24 0.5 18.6274 0.5 12C0.5 5.37258 5.87258 0 12.5 0C19.1274 0 24.5 5.37258 24.5 12Z" fill="white"/>
<ellipse cx="12.5001" cy="7.90905" rx="4.09091" ry="1.36364" fill="#AC9456"/>
<path fill-rule="evenodd" clip-rule="evenodd" d="M9.77451 13.2722C7.36554 13.6088 5.68188 14.3778 5.68188 15.2727C5.68188 16.4777 8.73449 17.4545 12.5001 17.4545C16.2656 17.4545 19.3182 16.4777 19.3182 15.2727C19.3182 14.3778 17.6346 13.6088 15.2256 13.2722C14.4237 13.4344 13.4929 13.5273 12.5001 13.5273C11.5073 13.5273 10.5764 13.4344 9.77451 13.2722Z" fill="#AC9456"/>
<path fill-rule="evenodd" clip-rule="evenodd" d="M10.2826 9.43701C8.37516 9.73441 7.04541 10.4037 7.04541 11.1818C7.04541 12.2361 9.48749 13.0909 12.5 13.0909C15.5124 13.0909 17.9545 12.2361 17.9545 11.1818C17.9545 10.4037 16.6247 9.73441 14.7173 9.43701C14.0784 9.57462 13.3172 9.6545 12.5 9.6545C11.6827 9.6545 10.9215 9.57462 10.2826 9.43701Z" fill="#AC9456"/>
<path fill-rule="evenodd" clip-rule="evenodd" d="M12.5 24C19.1274 24 24.5 18.6274 24.5 12C24.5 5.37258 19.1274 0 12.5 0C5.87258 0 0.5 5.37258 0.5 12C0.5 18.6274 5.87258 24 12.5 24ZM12.4727 21.9273C17.9704 21.9273 22.4272 17.4705 22.4272 11.9727C22.4272 6.47499 17.9704 2.01819 12.4727 2.01819C6.97496 2.01819 2.51816 6.47499 2.51816 11.9727C2.51816 17.4705 6.97496 21.9273 12.4727 21.9273Z" fill="#DDE4FF"/>
<path fill-rule="evenodd" clip-rule="evenodd" d="M1.37471 16.4976C0.460843 14.237 0.257306 11.7517 0.7912 9.37251L0.792542 9.37281C0.885319 8.91129 1.29298 8.56368 1.78182 8.56368C2.33913 8.56368 2.79091 9.01547 2.79091 9.57277C2.79091 9.65617 2.7808 9.7372 2.76172 9.81471L2.78228 9.81932C2.33918 11.7939 2.5081 13.8566 3.26656 15.7328C4.02503 17.6089 5.33703 19.2095 7.02787 20.3214C8.71872 21.4333 10.7082 22.0037 12.7313 21.9568C14.7544 21.9098 16.7152 21.2476 18.3526 20.0584C19.99 18.8691 21.2263 17.2094 21.8968 15.3C22.5673 13.3906 22.6403 11.3223 22.106 9.37045C21.5717 7.41858 20.4554 5.6758 18.9059 4.37417C17.3564 3.07253 15.4471 2.27382 13.4323 2.08437L13.4337 2.06999C12.9116 2.03142 12.5 1.59562 12.5 1.06368C12.5 0.506373 12.9518 0.0545874 13.5091 0.0545874C13.5475 0.0545874 13.5853 0.0567291 13.6226 0.0608994L13.6234 0.0527344C16.051 0.280992 18.3514 1.24336 20.2184 2.81169C22.0854 4.38002 23.4304 6.47988 24.0742 8.83167C24.718 11.1835 24.6301 13.6756 23.8221 15.9761C23.0142 18.2767 21.5247 20.2766 19.5518 21.7094C17.5789 23.1423 15.2163 23.9402 12.7787 23.9968C10.341 24.0534 7.94396 23.3661 5.90668 22.0264C3.8694 20.6867 2.28857 18.7581 1.37471 16.4976Z" fill="#AC9456"/>
</g>
<defs>
<clipPath id="clip0_14_1488">
<rect width="24" height="24" fill="white" transform="translate(0.5)"/>
</clipPath>
</defs>
</svg>
