<svg width="43" height="44" viewBox="0 0 43 44" fill="none" xmlns="http://www.w3.org/2000/svg">
<circle cx="20.478" cy="20.478" r="19.3711" fill="white"/>
<ellipse cx="20.478" cy="13.4968" rx="6.98113" ry="2.32704" fill="#AC9456"/>
<path fill-rule="evenodd" clip-rule="evenodd" d="M15.8269 22.649C11.716 23.2233 8.84278 24.5358 8.84278 26.0629C8.84278 28.1192 14.052 29.7862 20.478 29.7862C26.904 29.7862 32.1132 28.1192 32.1132 26.0629C32.1132 24.5358 29.24 23.2233 25.1291 22.649C23.7607 22.9258 22.1722 23.0843 20.478 23.0843C18.7838 23.0843 17.1953 22.9258 15.8269 22.649Z" fill="#AC9456"/>
<path fill-rule="evenodd" clip-rule="evenodd" d="M16.6941 16.1043C13.439 16.6118 11.1698 17.754 11.1698 19.0817C11.1698 20.881 15.3372 22.3396 20.478 22.3396C25.6188 22.3396 29.7862 20.881 29.7862 19.0817C29.7862 17.754 27.5169 16.6118 24.2619 16.1043C23.1716 16.3392 21.8726 16.4755 20.478 16.4755C19.0834 16.4755 17.7843 16.3392 16.6941 16.1043Z" fill="#AC9456"/>
<path fill-rule="evenodd" clip-rule="evenodd" d="M20.478 40.956C31.7877 40.956 40.956 31.7877 40.956 20.478C40.956 9.16831 31.7877 0 20.478 0C9.16831 0 0 9.16831 0 20.478C0 31.7877 9.16831 40.956 20.478 40.956ZM20.4315 37.4189C29.8134 37.4189 37.4189 29.8134 37.4189 20.4315C37.4189 11.0496 29.8134 3.44405 20.4315 3.44405C11.0496 3.44405 3.44405 11.0496 3.44405 20.4315C3.44405 29.8134 11.0496 37.4189 20.4315 37.4189Z" fill="#DDE4FF"/>
<path fill-rule="evenodd" clip-rule="evenodd" d="M1.49268 28.153C-0.0668302 24.2953 -0.414166 20.0541 0.496923 15.9941L0.499229 15.9946C0.657545 15.207 1.35322 14.6138 2.18744 14.6138C3.13848 14.6138 3.90945 15.3848 3.90945 16.3358C3.90945 16.4782 3.89219 16.6165 3.85964 16.7487L3.8947 16.7566C3.13855 20.1262 3.42682 23.6462 4.72113 26.8479C6.01544 30.0496 8.25438 32.781 11.1398 34.6784C14.0252 36.5759 17.4202 37.5493 20.8727 37.4691C24.3251 37.3889 27.6713 36.2589 30.4655 34.2295C33.2597 32.2001 35.3694 29.3677 36.5136 26.1094C37.6579 22.851 37.7824 19.3214 36.8706 15.9906C35.9588 12.6597 34.0539 9.68568 31.4097 7.46445C28.7654 5.24321 25.5072 3.8802 22.069 3.55692L22.0713 3.53239C21.1804 3.46657 20.478 2.72287 20.478 1.81511C20.478 0.86407 21.249 0.093099 22.2 0.093099C22.2655 0.093099 22.3301 0.0967536 22.3937 0.10387L22.395 0.0899252C26.5377 0.479447 30.4634 2.12173 33.6495 4.79808C36.8355 7.47443 39.1307 11.0578 40.2293 15.0712C41.3279 19.0845 41.1779 23.3373 39.7992 27.2632C38.4205 31.1891 35.8785 34.6019 32.5118 37.0471C29.1451 39.4923 25.1134 40.8538 20.9535 40.9505C16.7937 41.0471 12.7031 39.8742 9.22648 37.588C5.74986 35.3018 3.05219 32.0107 1.49268 28.153Z" fill="#AC9456"/>
<circle cx="32.3774" cy="33.4843" r="10.5157" fill="#1B184E"/>
<circle cx="32.3774" cy="29.4106" r="2.46314" fill="#04A8F0"/>
<path fill-rule="evenodd" clip-rule="evenodd" d="M32.3774 33.2949C29.866 33.2949 27.8301 31.259 27.83 28.7476L27.83 28.7476C27.9323 27.5167 26.8837 27.516 26.5989 27.8499C26.5771 27.8697 26.5563 27.8922 26.5367 27.9175C25.5659 29.1692 24.9879 30.7414 24.9879 32.4486C24.9879 33.9501 26.4105 34.9073 27.912 34.9073H36.8427C38.3442 34.9073 39.7668 33.9501 39.7668 32.4486C39.7668 30.7414 39.1888 29.1693 38.218 27.9176C38.1981 27.8918 38.177 27.869 38.1548 27.849C37.8686 27.5163 36.8225 27.5184 36.9247 28.7479L36.9247 28.7478C36.9246 31.2591 34.8887 33.2949 32.3774 33.2949Z" fill="#686DF1"/>
<path d="M33.1553 40.7016L35.2275 37.7196C35.664 37.0914 35.2145 36.2316 34.4495 36.2316H32.3773H30.3051C29.5402 36.2316 29.0906 37.0914 29.5272 37.7196L31.5994 40.7016C31.9763 41.2439 32.7784 41.2439 33.1553 40.7016Z" fill="#04A8F0"/>
</svg>
