<svg width="84" height="84" viewBox="0 0 84 84" fill="none" xmlns="http://www.w3.org/2000/svg">
<circle cx="42" cy="42" r="42" fill="#F87171"/>
<mask id="mask0_54_3631" style="mask-type:alpha" maskUnits="userSpaceOnUse" x="0" y="0" width="84" height="84">
<circle cx="42" cy="42" r="42" fill="#F87171"/>
</mask>
<g mask="url(#mask0_54_3631)">
<circle cx="72.0001" cy="13" r="13" fill="#AE4949"/>
<path fill-rule="evenodd" clip-rule="evenodd" d="M48.0001 9.50048V9.50016L48.0002 9.50023C48.5401 3.00188 43.0024 3.00034 41.5011 4.76412C41.3867 4.86825 41.2774 4.98658 41.1741 5.11985C36.0504 11.7262 33 20.0236 33 29.0341C33 36.9587 40.5083 42.0106 48.4328 42.0106H95.5672C103.492 42.0106 111 36.9587 111 29.0341C111 20.0237 107.95 11.7263 102.826 5.12002C102.721 4.9846 102.61 4.8646 102.493 4.75925C100.984 3.00201 95.4607 3.01156 95.9999 9.50188L96.0001 9.50173C95.9995 22.756 85.2545 33.5005 72.0001 33.5005C58.7453 33.5005 48.0001 22.7553 48.0001 9.50048Z" fill="#AE4949"/>
<path d="M76.1059 72.5914L87.0426 56.8533C89.3466 53.5379 86.974 49 82.9367 49H72H61.0633C57.026 49 54.6534 53.5379 56.9574 56.8533L67.894 72.5914C69.8831 75.4537 74.1169 75.4537 76.1059 72.5914Z" fill="#AE4949"/>
</g>
<path d="M21.25 38C16.7474 38 12.9388 39.4219 9.82422 42.2656C6.60807 45.2109 5 49.0026 5 53.6406C5 58.9557 6.91276 63.1029 10.7383 66.082C13.6836 68.3503 17.1367 69.4844 21.0977 69.4844C22.3841 69.4844 23.569 69.3659 24.6523 69.1289C26.5143 71.8711 27.75 73.5807 28.3594 74.2578C30.1198 76.1198 31.9141 77.0677 33.7422 77.1016C36.6198 77.0339 38.9219 74.918 40.6484 70.7539L39.4297 70.043C37.9062 71.5664 36.569 72.3789 35.418 72.4805C35.181 72.5143 34.9609 72.5312 34.7578 72.5312C33.099 72.5312 31.1862 71.3294 29.0195 68.9258C28.7487 68.6549 28.4779 68.3503 28.207 68.0117C32.0326 66.319 34.6732 63.5768 36.1289 59.7852C36.8398 57.9232 37.1953 55.9427 37.1953 53.8438C37.1953 48.2578 35.2148 44.0091 31.2539 41.0977C28.4102 39.0326 25.0755 38 21.25 38ZM20.3867 62.5781C18.5924 62.612 16.9336 63.6784 15.4102 65.7773C13.6836 63.7122 12.8203 59.7344 12.8203 53.8438C12.8203 46.2943 14.4284 41.7409 17.6445 40.1836C18.6263 39.7096 19.7773 39.4727 21.0977 39.4727C24.8893 39.4727 27.3607 41.5208 28.5117 45.6172C29.0872 47.6823 29.375 50.3398 29.375 53.5898C29.375 60.0221 28.4102 64.2031 26.4805 66.1328C24.2461 63.763 22.2148 62.5781 20.3867 62.5781ZM21.25 68.0117C19.2526 67.9779 17.6784 67.5716 16.5273 66.793C17.6445 65.6081 18.7617 64.9987 19.8789 64.9648C21.0977 64.9987 22.3672 65.9128 23.6875 67.707C22.9766 67.9102 22.1641 68.0117 21.25 68.0117Z" fill="#212130"/>
<path d="M51.668 67.6562H49.7891V47.1406H40.3945V48.4609H43.3398V65.0156C43.3398 66.5052 42.7474 67.3516 41.5625 67.5547C41.224 67.6224 40.8346 67.6562 40.3945 67.6562V68.9766H52.8867C52.8867 68.1979 52.6667 67.7747 52.2266 67.707C52.0573 67.6732 51.8711 67.6562 51.668 67.6562Z" fill="#212130"/>
</svg>
