<?xml version="1.0" encoding="utf-8"?>
<!-- Generator: Adobe Illustrator 26.3.1, SVG Export Plug-In . SVG Version: 6.00 Build 0)  -->
<svg version="1.1" id="Layer_1" xmlns="http://www.w3.org/2000/svg" xmlns:xlink="http://www.w3.org/1999/xlink" x="0px" y="0px"
	 viewBox="0 0 79.8 87.4" style="enable-background:new 0 0 79.8 87.4;" xml:space="preserve">
<style type="text/css">
	.st0{clip-path:url(#SVGID_00000155843781013811446210000007963852238520982178_);}
	.st1{fill:#823FE5;}
	.st2{fill:url(#SVGID_00000175281597664596874690000013324183605222225567_);}
	.st3{fill:url(#SVGID_00000138563238019287715380000013070690836673880764_);}
	.st4{fill:url(#SVGID_00000076567115194284319850000018055718605348194458_);}
	.st5{fill:url(#SVGID_00000137825872177650091440000009998003092615536534_);}
	.st6{fill:url(#SVGID_00000098206068929284125970000005154154143710063493_);}
	.st7{fill:url(#SVGID_00000161591481256014126030000011460407740738346655_);}
	.st8{fill:url(#SVGID_00000127012559537392817500000001770053109262153898_);}
	.st9{fill:url(#SVGID_00000139282390125656009260000012621761912481213857_);}
	.st10{fill:url(#SVGID_00000124851251875872575520000007818286893614635157_);}
	.st11{fill:url(#SVGID_00000157991133091667108090000010271390366486051214_);}
	.st12{fill:#DECCFF;}
	.st13{fill:#1B184E;}
	.st14{fill:#04A8F0;}
	.st15{fill-rule:evenodd;clip-rule:evenodd;fill:#686DF1;}
</style>
<g>
	<g>
		<defs>
			<path id="SVGID_1_" d="M74.4,54.8v-28c0-4.6-2.4-8.8-6.4-11L43.5,1.7c-3.9-2.3-8.8-2.3-12.7,0L6.4,15.8C2.4,18,0,22.2,0,26.8
				l0,28c0,4.6,2.4,8.8,6.4,11l24.5,14.1c3.9,2.3,8.8,2.3,12.7,0L68,65.9C72,63.6,74.4,59.4,74.4,54.8z"/>
		</defs>
		<clipPath id="SVGID_00000076594186018295103370000010883855253282872215_">
			<use xlink:href="#SVGID_1_"  style="overflow:visible;"/>
		</clipPath>
		<g style="clip-path:url(#SVGID_00000076594186018295103370000010883855253282872215_);">
			<path class="st1" d="M37.2-2l37.3,21.4v42.8L37.2,83.7L-0.2,62.3V19.4L37.2-2z"/>
			
				<linearGradient id="SVGID_00000141441258749044364960000006714784109501159595_" gradientUnits="userSpaceOnUse" x1="16.2482" y1="52.0097" x2="-0.3203" y2="52.0097" gradientTransform="matrix(1 0 0 -1 0 88.4282)">
				<stop  offset="0" style="stop-color:#DECCFF"/>
				<stop  offset="0.51" style="stop-color:#CEB2FF"/>
				<stop  offset="1" style="stop-color:#BE99FF"/>
			</linearGradient>
			<path style="fill:url(#SVGID_00000141441258749044364960000006714784109501159595_);" d="M16.2,23.7l-16.6-4.5l4.4,34.5
				L16.2,23.7L16.2,23.7z"/>
			
				<linearGradient id="SVGID_00000086687351637689681940000000178581813725040566_" gradientUnits="userSpaceOnUse" x1="70.6566" y1="62.8389" x2="16.2482" y2="62.8389" gradientTransform="matrix(1 0 0 -1 0 88.4282)">
				<stop  offset="0" style="stop-color:#7B4FDC"/>
				<stop  offset="1" style="stop-color:#DECCFF"/>
			</linearGradient>
			<path style="fill:url(#SVGID_00000086687351637689681940000000178581813725040566_);" d="M70.7,53.6L37.4-2.5L16.2,23.7
				L70.7,53.6z"/>
			
				<linearGradient id="SVGID_00000043448612599430612980000005093823439991025334_" gradientUnits="userSpaceOnUse" x1="72.8539" y1="25.9205" x2="72.8539" y2="69.2355" gradientTransform="matrix(1 0 0 -1 0 88.4282)">
				<stop  offset="0" style="stop-color:#9B65EA"/>
				<stop  offset="1" style="stop-color:#BF96FF"/>
			</linearGradient>
			<path style="fill:url(#SVGID_00000043448612599430612980000005093823439991025334_);" d="M70.7,53.6l4.4,8.9V19.2L70.7,53.6z"/>
			
				<linearGradient id="SVGID_00000044897057823820333860000000200524030423574662_" gradientUnits="userSpaceOnUse" x1="4.0732" y1="19.5238" x2="70.6572" y2="19.5238" gradientTransform="matrix(1 0 0 -1 0 88.4282)">
				<stop  offset="0" style="stop-color:#8A5AE3"/>
				<stop  offset="1" style="stop-color:#744BD1"/>
			</linearGradient>
			<path style="fill:url(#SVGID_00000044897057823820333860000000200524030423574662_);" d="M4.1,53.6l33.3,30.5l33.3-30.5H4.1z"/>
			
				<linearGradient id="SVGID_00000179620782741202030150000006165186012940549517_" gradientUnits="userSpaceOnUse" x1="37.3652" y1="64.7099" x2="37.3652" y2="34.7848" gradientTransform="matrix(1 0 0 -1 0 88.4282)">
				<stop  offset="0" style="stop-color:#FFFFFF"/>
				<stop  offset="1" style="stop-color:#D6BFFF"/>
			</linearGradient>
			<path style="fill:url(#SVGID_00000179620782741202030150000006165186012940549517_);" d="M4.1,53.6h66.6L16.2,23.7L4.1,53.6
				L4.1,53.6z"/>
			
				<linearGradient id="SVGID_00000149342560737343470860000002055773169638551736_" gradientUnits="userSpaceOnUse" x1="-0.3203" y1="47.5784" x2="4.0732" y2="47.5784" gradientTransform="matrix(1 0 0 -1 0 88.4282)">
				<stop  offset="0" style="stop-color:#9B65EA"/>
				<stop  offset="1" style="stop-color:#BF96FF"/>
			</linearGradient>
			<path style="fill:url(#SVGID_00000149342560737343470860000002055773169638551736_);" d="M-0.3,19.2v43.3l4.4-8.9L-0.3,19.2
				L-0.3,19.2z"/>
			
				<linearGradient id="SVGID_00000129180340207875641910000001486488781571836072_" gradientUnits="userSpaceOnUse" x1="18.5224" y1="90.8927" x2="18.5224" y2="64.7096" gradientTransform="matrix(1 0 0 -1 0 88.4282)">
				<stop  offset="0" style="stop-color:#9B65EA"/>
				<stop  offset="1" style="stop-color:#DECCFF"/>
			</linearGradient>
			<path style="fill:url(#SVGID_00000129180340207875641910000001486488781571836072_);" d="M37.4-2.5L16.2,23.7l-16.6-4.5L37.4-2.5
				L37.4-2.5z"/>
			
				<linearGradient id="SVGID_00000177467023432650325130000001862746134578582681_" gradientUnits="userSpaceOnUse" x1="35.7497" y1="89.2858" x2="80.3727" y2="44.4566" gradientTransform="matrix(1 0 0 -1 0 88.4282)">
				<stop  offset="0" style="stop-color:#6C3EC7"/>
				<stop  offset="1" style="stop-color:#985AFF"/>
			</linearGradient>
			<path style="fill:url(#SVGID_00000177467023432650325130000001862746134578582681_);" d="M75.1,19.2L37.4-2.5l33.3,56.1
				L75.1,19.2L75.1,19.2z"/>
			
				<linearGradient id="SVGID_00000157306483800026225860000014339499301394825615_" gradientUnits="userSpaceOnUse" x1="56.2077" y1="34.7848" x2="56.2077" y2="4.2629" gradientTransform="matrix(1 0 0 -1 0 88.4282)">
				<stop  offset="0" style="stop-color:#5D2DB3"/>
				<stop  offset="1" style="stop-color:#8952E6"/>
			</linearGradient>
			<path style="fill:url(#SVGID_00000157306483800026225860000014339499301394825615_);" d="M37.4,84.2l37.7-21.7l-4.4-8.9
				L37.4,84.2L37.4,84.2z"/>
			
				<linearGradient id="SVGID_00000150101597993145754010000012087681709375789991_" gradientUnits="userSpaceOnUse" x1="18.5224" y1="4.2629" x2="18.5224" y2="34.7848" gradientTransform="matrix(1 0 0 -1 0 88.4282)">
				<stop  offset="0" style="stop-color:#5D2EB3"/>
				<stop  offset="1" style="stop-color:#8952E6"/>
			</linearGradient>
			<path style="fill:url(#SVGID_00000150101597993145754010000012087681709375789991_);" d="M-0.3,62.5l37.7,21.7L4.1,53.6
				L-0.3,62.5L-0.3,62.5z"/>
			<g>
				<path class="st12" d="M15.8,23.5L37.4-2.4L16.6,24.1L15.8,23.5L15.8,23.5z"/>
			</g>
			<g>
				<path class="st12" d="M16.7,23.9L4,53.7l11.8-30.2L16.7,23.9L16.7,23.9z"/>
			</g>
			<g>
				<path class="st12" d="M16.5,23.2l54.2,30.5L16,24.1L16.5,23.2L16.5,23.2z"/>
			</g>
			<g>
				<path class="st12" d="M16.1,24.2l-16.4-5l16.7,4L16.1,24.2L16.1,24.2z"/>
			</g>
		</g>
	</g>
	<g>
		<circle class="st13" cx="58.9" cy="66.6" r="20.9"/>
		<circle class="st14" cx="58.9" cy="58.5" r="4.9"/>
		<path class="st15" d="M58.9,66.2c-5,0-9-4-9-9c0.2-2.4-1.9-2.4-2.4-1.8c0,0-0.1,0.1-0.1,0.1c-1.9,2.5-3.1,5.6-3.1,9
			c0,3,2.8,4.9,5.8,4.9h17.7c3,0,5.8-1.9,5.8-4.9c0-3.4-1.1-6.5-3.1-9c0-0.1-0.1-0.1-0.1-0.1c-0.6-0.7-2.6-0.7-2.4,1.8l0,0
			C67.9,62.2,63.9,66.2,58.9,66.2z"/>
		<path class="st14" d="M60.4,80.9l4.1-5.9c0.9-1.2,0-3-1.5-3h-4.1h-4.1c-1.5,0-2.4,1.7-1.5,3l4.1,5.9C58.1,82,59.7,82,60.4,80.9z"
			/>
	</g>
</g>
</svg>
