<?xml version="1.0" encoding="utf-8"?>
<!-- Generator: Adobe Illustrator 26.3.1, SVG Export Plug-In . SVG Version: 6.00 Build 0)  -->
<svg version="1.1" id="Layer_1" xmlns="http://www.w3.org/2000/svg" xmlns:xlink="http://www.w3.org/1999/xlink" x="0px" y="0px"
	 viewBox="0 0 41 40.9" style="enable-background:new 0 0 41 40.9;" xml:space="preserve">
<style type="text/css">
	.st0{fill-rule:evenodd;clip-rule:evenodd;fill:#DDE4FF;}
	.st1{fill-rule:evenodd;clip-rule:evenodd;fill:#AC9456;}
	.st2{fill:#FFFFFF;}
	.st3{fill:#AC9456;}
</style>
<path class="st0" d="M20.5,40.9c11.3,0,20.5-9.2,20.5-20.4S31.8,0,20.5,0S0,9.2,0,20.4S9.2,40.9,20.5,40.9z"/>
<path class="st1" d="M1.5,28.1c-1.6-3.9-1.9-8.1-1-12.2l0,0c0.2-0.8,0.9-1.4,1.7-1.4c1,0,1.7,0.8,1.7,1.7c0,0.1,0,0.3,0,0.4l0,0
	c-0.8,3.4-0.4,6.9,0.9,10.1c1.3,3.2,3.5,5.9,6.4,7.8c2.9,1.9,6.3,2.9,9.7,2.8c3.5-0.1,6.8-1.2,9.6-3.2s4.9-4.9,6-8.1
	c1.1-3.3,1.3-6.8,0.4-10.1c-0.9-3.3-2.8-6.3-5.5-8.5c-2.6-2.2-5.9-3.6-9.3-3.9l0,0c-0.9-0.1-1.6-0.8-1.6-1.7c0-1,0.8-1.7,1.7-1.7
	c0.1,0,0.1,0,0.2,0l0,0c4.1,0.4,8.1,2,11.3,4.7c3.2,2.7,5.5,6.3,6.6,10.3c1.1,4,0.9,8.3-0.4,12.2c-1.4,3.9-3.9,7.3-7.3,9.8
	c-3.4,2.4-7.4,3.8-11.6,3.9c-4.2,0.1-8.3-1.1-11.7-3.4C5.7,35.3,3.1,32,1.5,28.1z"/>
<circle class="st2" cx="20.5" cy="20.4" r="17"/>
<g>
	<ellipse class="st3" cx="20.5" cy="13.5" rx="7" ry="2.3"/>
	<path class="st1" d="M15.8,22.6c-4.1,0.6-7,1.9-7,3.4c0,2.1,5.2,3.7,11.6,3.7c6.4,0,11.6-1.7,11.6-3.7c0-1.5-2.9-2.8-7-3.4
		c-1.4,0.3-3,0.4-4.7,0.4C18.8,23,17.2,22.9,15.8,22.6z"/>
	<path class="st1" d="M16.7,16.1c-3.3,0.5-5.5,1.6-5.5,3c0,1.8,4.2,3.3,9.3,3.3c5.1,0,9.3-1.5,9.3-3.3c0-1.3-2.3-2.5-5.5-3
		c-1.1,0.2-2.4,0.4-3.8,0.4C19.1,16.4,17.8,16.3,16.7,16.1z"/>
</g>
</svg>
