<svg width="24" height="24" viewBox="0 0 24 24" fill="none" xmlns="http://www.w3.org/2000/svg">
<path fill-rule="evenodd" clip-rule="evenodd" d="M14.4274 17.117C14.7382 17.4278 15.2391 17.4278 15.5499 17.117L20.1169 12.55C20.4277 12.2392 20.4277 11.7383 20.1169 11.4275L15.5499 6.86053C15.3992 6.70982 15.1953 6.62659 14.9903 6.62659C14.7922 6.62659 14.5846 6.70189 14.4283 6.86289C14.1198 7.17388 14.1206 7.67302 14.4307 7.98305L17.6445 11.1968L4.44353 11.1968C4.00381 11.1968 3.64998 11.5507 3.64998 11.9904C3.64998 12.4335 4.00722 12.7807 4.44353 12.7807L17.6412 12.7807L14.4274 15.9945C14.1165 16.3053 14.1165 16.8062 14.4274 17.117Z" fill="#C4C4DF"/>
</svg>
