<svg width="23" height="24" viewBox="0 0 23 24" fill="none" xmlns="http://www.w3.org/2000/svg">
<path d="M22.9275 10.6759C22.8786 10.559 22.8086 10.4526 22.7195 10.3635L19.8453 7.48931C19.4706 7.11554 18.8649 7.11554 18.4902 7.48931C18.1155 7.86402 18.1155 8.47067 18.4902 8.84444L19.7294 10.0836H14.3758C13.8459 10.0836 13.4175 10.513 13.4175 11.042C13.4175 11.571 13.8459 12.0003 14.3758 12.0003H19.7293L18.4901 13.2395C18.1154 13.6142 18.1154 14.2209 18.4901 14.5946C18.677 14.7825 18.9224 14.8755 19.1677 14.8755C19.4131 14.8755 19.6584 14.7825 19.8453 14.5946L22.7195 11.7205C22.8086 11.6323 22.8786 11.5259 22.9275 11.408C23.0242 11.1743 23.0242 10.9098 22.9275 10.6759Z" fill="#686DF1"/>
<path d="M16.2923 13.9173C15.7624 13.9173 15.334 14.3466 15.334 14.8756V19.6675H11.5005V4.33348C11.5005 3.91084 11.2225 3.53707 10.8172 3.41538L7.48871 2.41676H15.334V7.20865C15.334 7.73768 15.7624 8.16701 16.2923 8.16701C16.8223 8.16701 17.2507 7.73768 17.2507 7.20865V1.4584C17.2507 0.929337 16.8223 0.5 16.2923 0.5H0.958359C0.923858 0.5 0.893175 0.514376 0.859662 0.518194C0.814603 0.523001 0.773408 0.530638 0.730281 0.541195C0.629652 0.567071 0.538591 0.60638 0.453326 0.660019C0.432257 0.673451 0.406381 0.674394 0.386255 0.689713C0.378528 0.695508 0.375653 0.706066 0.367971 0.711816C0.263523 0.794206 0.176326 0.894835 0.113073 1.01465C0.099641 1.04052 0.0967659 1.06833 0.0862537 1.09515C0.0555707 1.16797 0.0220576 1.23891 0.0105571 1.31941C0.00575025 1.34816 0.0143756 1.37498 0.0134322 1.40279C0.0124888 1.42197 0 1.43922 0 1.45836V20.6259C0 21.083 0.322957 21.476 0.770533 21.5651L10.3543 23.4819C10.4166 23.4953 10.4798 23.501 10.5421 23.501C10.7615 23.501 10.9772 23.4253 11.1497 23.2835C11.3711 23.1014 11.5004 22.8301 11.5004 22.5426V21.5843H16.2923C16.8223 21.5843 17.2507 21.1549 17.2507 20.6259V14.8756C17.2507 14.3466 16.8223 13.9173 16.2923 13.9173Z" fill="#686DF1"/>
</svg>
