<svg width="24" height="24" viewBox="0 0 24 24" fill="none" xmlns="http://www.w3.org/2000/svg">
<circle cx="12" cy="12" r="9.25" stroke="#C4C4DF" stroke-width="1.5"/>
<path fill-rule="evenodd" clip-rule="evenodd" d="M12.334 7.00049C11.6408 7.00049 11.0464 7.14245 10.543 7.41782C10.0288 7.69908 9.64785 8.04913 9.38924 8.4646L9.38863 8.46558L9.38863 8.46558C9.12383 8.88666 9 9.28915 9 9.67649C9 9.81395 9.05414 9.95477 9.19501 10.1039C9.32884 10.2368 9.48592 10.3015 9.681 10.3015C9.84909 10.3015 9.97463 10.2532 10.0745 10.1657C10.1788 10.0743 10.2739 9.92348 10.3446 9.68846L10.3467 9.6814L10.3468 9.68143C10.5209 9.1592 10.7408 8.74159 11.0176 8.44855C11.3252 8.11787 11.7826 7.97749 12.334 7.97749C12.8244 7.97749 13.2456 8.12253 13.5747 8.42893C13.9048 8.73189 14.075 9.11306 14.075 9.55749C14.075 9.79061 14.0178 10.01 13.9034 10.2111C13.8032 10.3953 13.677 10.5631 13.5258 10.7143C13.3888 10.8512 13.1689 11.0518 12.8696 11.3136C12.5328 11.609 12.2696 11.8612 12.0775 12.0712L12.0756 12.0732L12.0756 12.0732C11.8965 12.2648 11.7512 12.4913 11.6405 12.7552L11.64 12.7565L11.64 12.7565C11.5349 13.0031 11.478 13.3065 11.478 13.6735C11.478 13.9434 11.5476 14.1037 11.646 14.2C11.7648 14.3116 11.9073 14.3685 12.089 14.3685C12.2784 14.3685 12.4006 14.3201 12.4827 14.2482C12.5666 14.175 12.6385 14.0514 12.6761 13.8456L12.6779 13.8357L12.6781 13.8357C12.7294 13.6073 12.7676 13.4445 12.7922 13.3509L12.7944 13.3426L12.7945 13.3427C12.8271 13.2343 12.8702 13.1291 12.9236 13.0273C12.9823 12.9105 13.0655 12.7935 13.1673 12.6764L13.1679 12.6759C13.2741 12.5545 13.4097 12.4192 13.5726 12.2707L13.5743 12.2691L13.5743 12.2691C14.1484 11.7557 14.5412 11.3951 14.7561 11.1849C14.9604 10.9849 15.1367 10.747 15.2842 10.4692L15.2856 10.4665L15.2857 10.4665C15.4258 10.2103 15.5 9.9052 15.5 9.54349C15.5 9.08977 15.3728 8.67098 15.1146 8.28164L15.1136 8.28006L15.1136 8.28006C14.8616 7.89365 14.5 7.58408 14.0183 7.35409L14.0166 7.3533L14.0166 7.3533C13.5382 7.12053 12.9794 7.00049 12.334 7.00049ZM12.166 15.4078C11.9297 15.4078 11.7413 15.4846 11.5847 15.6376C11.4288 15.79 11.352 15.9723 11.352 16.2008C11.352 16.4735 11.4353 16.6585 11.581 16.7891C11.7493 16.931 11.9408 17.0008 12.166 17.0008C12.3787 17.0008 12.5626 16.9309 12.7279 16.784C12.8757 16.6526 12.959 16.4689 12.959 16.2008C12.959 15.9705 12.8831 15.7875 12.7312 15.6356C12.5793 15.4837 12.3964 15.4078 12.166 15.4078Z" fill="#C4C4DF"/>
<path d="M10.543 7.41782L10.615 7.54942L10.543 7.41782ZM9.38924 8.4646L9.51659 8.54387L9.51659 8.54386L9.38924 8.4646ZM9.38863 8.46558L9.31348 8.59539L9.43921 8.66818L9.51598 8.54484L9.38863 8.46558ZM9.38863 8.46558L9.46379 8.33576L9.33864 8.26331L9.26165 8.38572L9.38863 8.46558ZM9.19501 10.1039L9.0859 10.207L9.08935 10.2104L9.19501 10.1039ZM10.0745 10.1657L10.1734 10.2785H10.1734L10.0745 10.1657ZM10.3446 9.68846L10.201 9.64524L10.201 9.64524L10.3446 9.68846ZM10.3467 9.6814L10.3941 9.53908L10.2476 9.49029L10.2031 9.63818L10.3467 9.6814ZM10.3468 9.68143L10.2994 9.82375L10.4417 9.87112L10.4891 9.72887L10.3468 9.68143ZM11.0176 8.44855L11.1266 8.55154L11.1274 8.55071L11.0176 8.44855ZM13.5747 8.42893L13.4725 8.53871L13.4733 8.53944L13.5747 8.42893ZM13.9034 10.2111L13.773 10.1369L13.7717 10.1394L13.9034 10.2111ZM13.5258 10.7143L13.6318 10.8203L13.5258 10.7143ZM12.8696 11.3136L12.7709 11.2007L12.7707 11.2008L12.8696 11.3136ZM12.0775 12.0712L11.9668 11.97L11.9668 11.97L12.0775 12.0712ZM12.0756 12.0732L11.9747 12.1842L12.0854 12.2848L12.1863 12.1745L12.0756 12.0732ZM12.0756 12.0732L12.1765 11.9622L12.0671 11.8627L11.9661 11.9708L12.0756 12.0732ZM11.6405 12.7552L11.5022 12.6972L11.5022 12.6972L11.6405 12.7552ZM11.64 12.7565L11.5901 12.898L11.7236 12.9451L11.7783 12.8145L11.64 12.7565ZM11.64 12.7565L11.6899 12.6151L11.5572 12.5682L11.502 12.6977L11.64 12.7565ZM11.646 14.2L11.541 14.3072L11.5433 14.3093L11.646 14.2ZM12.4827 14.2482L12.384 14.1353L12.384 14.1353L12.4827 14.2482ZM12.6761 13.8456L12.5285 13.8186L12.5285 13.8186L12.6761 13.8456ZM12.6779 13.8357L12.7109 13.6894L12.5584 13.6549L12.5303 13.8087L12.6779 13.8357ZM12.6781 13.8357L12.645 13.982L12.7915 14.0151L12.8244 13.8686L12.6781 13.8357ZM12.7922 13.3509L12.6472 13.3127V13.3127L12.7922 13.3509ZM12.7944 13.3426L12.8376 13.1989L12.6889 13.1543L12.6493 13.3044L12.7944 13.3426ZM12.7945 13.3427L12.7514 13.4863L12.8951 13.5295L12.9382 13.3858L12.7945 13.3427ZM12.9236 13.0273L13.0564 13.097L13.0576 13.0947L12.9236 13.0273ZM13.1673 12.6764L13.0543 12.5778L13.0542 12.578L13.1673 12.6764ZM13.1679 12.6759L13.055 12.5771L13.0548 12.5772L13.1679 12.6759ZM13.5726 12.2707L13.4715 12.1599L13.4715 12.1599L13.5726 12.2707ZM13.5743 12.2691L13.6864 12.1695L13.5855 12.0559L13.4733 12.1583L13.5743 12.2691ZM13.5743 12.2691L13.4622 12.3688L13.5622 12.4812L13.6743 12.3809L13.5743 12.2691ZM14.7561 11.1849L14.861 11.2921L14.861 11.292L14.7561 11.1849ZM15.2842 10.4692L15.4167 10.5396L15.4167 10.5396L15.2842 10.4692ZM15.2856 10.4665L15.3573 10.3348L15.2242 10.2624L15.1532 10.3962L15.2856 10.4665ZM15.2857 10.4665L15.214 10.5983L15.3454 10.6698L15.4173 10.5385L15.2857 10.4665ZM15.1146 8.28164L15.2397 8.19875L15.2396 8.19874L15.1146 8.28164ZM15.1136 8.28006L15.0332 8.15341L14.904 8.23542L14.9886 8.36296L15.1136 8.28006ZM15.1136 8.28006L15.194 8.4067L15.3222 8.32533L15.2392 8.19812L15.1136 8.28006ZM14.0183 7.35409L14.0829 7.21873L14.0829 7.21873L14.0183 7.35409ZM14.0166 7.3533L13.8812 7.28892L13.8169 7.42415L13.952 7.48867L14.0166 7.3533ZM14.0166 7.3533L14.1521 7.41768L14.2159 7.28344L14.0823 7.21841L14.0166 7.3533ZM11.5847 15.6376L11.4799 15.5304H11.4799L11.5847 15.6376ZM11.581 16.7891L11.4808 16.9008L11.4843 16.9038L11.581 16.7891ZM12.7279 16.784L12.6282 16.6719H12.6282L12.7279 16.784ZM12.7312 15.6356L12.6251 15.7417L12.7312 15.6356ZM10.615 7.54942C11.0928 7.28802 11.6617 7.15049 12.334 7.15049V6.85049C11.6199 6.85049 11 6.99687 10.471 7.28622L10.615 7.54942ZM9.51659 8.54386C9.75957 8.15351 10.1199 7.82023 10.615 7.54942L10.471 7.28622C9.93771 7.57793 9.53614 7.94475 9.2619 8.38533L9.51659 8.54386ZM9.51598 8.54484L9.51659 8.54387L9.2619 8.38533L9.26129 8.38631L9.51598 8.54484ZM9.31348 8.59539L9.31348 8.59539L9.46379 8.33576L9.46379 8.33576L9.31348 8.59539ZM9.15 9.67649C9.15 9.32274 9.26273 8.94754 9.51561 8.54543L9.26165 8.38572C8.98492 8.82577 8.85 9.25557 8.85 9.67649H9.15ZM9.30407 10.0009C9.18412 9.87394 9.15 9.76849 9.15 9.67649H8.85C8.85 9.8594 8.92415 10.0356 9.08596 10.2069L9.30407 10.0009ZM9.681 10.1515C9.52474 10.1515 9.40587 10.1019 9.30067 9.99747L9.08935 10.2104C9.25182 10.3716 9.4471 10.4515 9.681 10.4515V10.1515ZM9.97568 10.0529C9.9061 10.1138 9.81686 10.1515 9.681 10.1515V10.4515C9.88133 10.4515 10.0432 10.3926 10.1734 10.2785L9.97568 10.0529ZM10.201 9.64524C10.1354 9.86304 10.0523 9.98573 9.97568 10.0529L10.1734 10.2785C10.3054 10.1629 10.4123 9.98393 10.4882 9.73168L10.201 9.64524ZM10.2031 9.63818L10.201 9.64524L10.4882 9.73168L10.4904 9.72462L10.2031 9.63818ZM10.3942 9.53911L10.3941 9.53908L10.2993 9.82372L10.2994 9.82375L10.3942 9.53911ZM10.9085 8.34556C10.6112 8.66042 10.3823 9.10054 10.2045 9.634L10.4891 9.72887C10.6595 9.21786 10.8705 8.82275 11.1266 8.55153L10.9085 8.34556ZM12.334 7.82749C11.7597 7.82749 11.2544 7.97376 10.9077 8.34638L11.1274 8.55071C11.396 8.26198 11.8056 8.12749 12.334 8.12749V7.82749ZM13.6769 8.31914C13.3155 7.98264 12.8556 7.82749 12.334 7.82749V8.12749C12.7932 8.12749 13.1758 8.26242 13.4725 8.53871L13.6769 8.31914ZM14.225 9.55749C14.225 9.07022 14.0366 8.64922 13.6761 8.31841L13.4733 8.53944C13.7731 8.81456 13.925 9.1559 13.925 9.55749H14.225ZM14.0338 10.2853C14.1613 10.0611 14.225 9.81614 14.225 9.55749H13.925C13.925 9.76509 13.8743 9.95884 13.7731 10.1369L14.0338 10.2853ZM13.6318 10.8203C13.7929 10.6593 13.9278 10.48 14.0352 10.2828L13.7717 10.1394C13.6785 10.3106 13.561 10.4669 13.4197 10.6082L13.6318 10.8203ZM12.9684 11.4265C13.268 11.1644 13.4912 10.961 13.6318 10.8203L13.4197 10.6082C13.2865 10.7414 13.0697 10.9392 12.7709 11.2007L12.9684 11.4265ZM12.1881 12.1725C12.3752 11.9681 12.6339 11.7198 12.9685 11.4264L12.7707 11.2008C12.4317 11.4981 12.164 11.7544 11.9668 11.97L12.1881 12.1725ZM12.1863 12.1745L12.1881 12.1725L11.9668 11.97L11.965 11.972L12.1863 12.1745ZM11.9747 12.1842L11.9747 12.1842L12.1765 11.9622L12.1765 11.9622L11.9747 12.1842ZM11.7789 12.8132C11.8831 12.5646 12.0191 12.3534 12.1852 12.1756L11.9661 11.9708C11.774 12.1762 11.6193 12.418 11.5022 12.6972L11.7789 12.8132ZM11.7783 12.8145L11.7789 12.8132L11.5022 12.6972L11.5017 12.6985L11.7783 12.8145ZM11.5901 12.898L11.5901 12.898L11.6899 12.6151L11.6899 12.6151L11.5901 12.898ZM11.628 13.6735C11.628 13.3215 11.6826 13.0391 11.778 12.8153L11.502 12.6977C11.3872 12.9671 11.328 13.2915 11.328 13.6735H11.628ZM11.7509 14.0928C11.6907 14.0338 11.628 13.9182 11.628 13.6735H11.328C11.328 13.9685 11.4046 14.1736 11.5411 14.3072L11.7509 14.0928ZM12.089 14.2185C11.9434 14.2185 11.8382 14.1748 11.7487 14.0907L11.5433 14.3093C11.6914 14.4485 11.8713 14.5185 12.089 14.5185V14.2185ZM12.384 14.1353C12.3357 14.1775 12.2518 14.2185 12.089 14.2185V14.5185C12.305 14.5185 12.4654 14.4626 12.5814 14.3612L12.384 14.1353ZM12.5285 13.8186C12.495 14.0022 12.435 14.0908 12.384 14.1353L12.5814 14.3612C12.6982 14.2592 12.782 14.1006 12.8236 13.8725L12.5285 13.8186ZM12.5303 13.8087L12.5285 13.8186L12.8236 13.8725L12.8254 13.8626L12.5303 13.8087ZM12.7111 13.6894L12.7109 13.6894L12.6448 13.982L12.645 13.982L12.7111 13.6894ZM12.6472 13.3127C12.6218 13.4093 12.583 13.5745 12.5317 13.8029L12.8244 13.8686C12.8757 13.64 12.9134 13.4797 12.9373 13.389L12.6472 13.3127ZM12.6493 13.3044L12.6472 13.3127L12.9373 13.389L12.9395 13.3808L12.6493 13.3044ZM12.8377 13.199L12.8376 13.1989L12.7513 13.4863L12.7514 13.4863L12.8377 13.199ZM12.7908 12.9576C12.733 13.0677 12.6862 13.1817 12.6509 13.2995L12.9382 13.3858C12.9679 13.2868 13.0073 13.1905 13.0564 13.097L12.7908 12.9576ZM13.0542 12.578C12.9469 12.7014 12.8555 12.8288 12.7896 12.9599L13.0576 13.0947C13.1091 12.9923 13.1842 12.8857 13.2805 12.7749L13.0542 12.578ZM13.0548 12.5772L13.0543 12.5778L13.2804 12.7751L13.2809 12.7745L13.0548 12.5772ZM13.4715 12.1599C13.3061 12.3107 13.1661 12.45 13.055 12.5771L13.2807 12.7746C13.382 12.6589 13.5133 12.5278 13.6736 12.3816L13.4715 12.1599ZM13.4733 12.1583L13.4715 12.1599L13.6736 12.3816L13.6754 12.38L13.4733 12.1583ZM13.6865 12.1695L13.6864 12.1695L13.4622 12.3688L13.4622 12.3688L13.6865 12.1695ZM14.6512 11.0777C14.439 11.2853 14.0485 11.6438 13.4744 12.1573L13.6743 12.3809C14.2484 11.8676 14.6435 11.505 14.861 11.2921L14.6512 11.0777ZM15.1518 10.3988C15.0109 10.6641 14.8436 10.8893 14.6512 11.0777L14.861 11.292C15.0771 11.0804 15.2625 10.8299 15.4167 10.5396L15.1518 10.3988ZM15.1532 10.3962L15.1518 10.3988L15.4167 10.5396L15.4181 10.5369L15.1532 10.3962ZM15.3573 10.3348L15.3573 10.3348L15.2139 10.5983L15.214 10.5983L15.3573 10.3348ZM15.35 9.54349C15.35 9.88421 15.2803 10.1638 15.1541 10.3946L15.4173 10.5385C15.5713 10.2568 15.65 9.92618 15.65 9.54349H15.35ZM14.9896 8.36453C15.2319 8.72987 15.35 9.11994 15.35 9.54349H15.65C15.65 9.0596 15.5137 8.61209 15.2397 8.19875L14.9896 8.36453ZM14.9886 8.36296L14.9896 8.36454L15.2396 8.19874L15.2386 8.19715L14.9886 8.36296ZM15.0332 8.15341L15.0332 8.15341L15.194 8.40671L15.194 8.4067L15.0332 8.15341ZM13.9536 7.48945C14.4135 7.70903 14.7527 8.00134 14.988 8.362L15.2392 8.19812C14.9704 7.78596 14.5864 7.45913 14.0829 7.21873L13.9536 7.48945ZM13.952 7.48867L13.9537 7.48945L14.0829 7.21873L14.0813 7.21794L13.952 7.48867ZM13.8812 7.28891L13.8812 7.28892L14.1521 7.41769L14.1521 7.41768L13.8812 7.28891ZM12.334 7.15049C12.9606 7.15049 13.4963 7.26696 13.951 7.48818L14.0823 7.21841C13.5801 6.97411 12.9981 6.85049 12.334 6.85049V7.15049ZM11.6896 15.7449C11.8169 15.6205 11.9672 15.5578 12.166 15.5578V15.2578C11.8922 15.2578 11.6657 15.3488 11.4799 15.5304L11.6896 15.7449ZM11.502 16.2008C11.502 16.0116 11.5633 15.8683 11.6896 15.7449L11.4799 15.5304C11.2943 15.7117 11.202 15.933 11.202 16.2008H11.502ZM11.6811 16.6774C11.5728 16.5804 11.502 16.4391 11.502 16.2008H11.202C11.202 16.5078 11.2978 16.7367 11.4808 16.9008L11.6811 16.6774ZM12.166 16.8508C11.9757 16.8508 11.8186 16.7932 11.6776 16.6744L11.4843 16.9038C11.6801 17.0688 11.9059 17.1508 12.166 17.1508V16.8508ZM12.6282 16.6719C12.4898 16.7949 12.3412 16.8508 12.166 16.8508V17.1508C12.4163 17.1508 12.6354 17.0669 12.8276 16.8961L12.6282 16.6719ZM12.809 16.2008C12.809 16.4335 12.7388 16.5736 12.6282 16.6719L12.8276 16.8961C13.0125 16.7317 13.109 16.5042 13.109 16.2008H12.809ZM12.6251 15.7417C12.7479 15.8644 12.809 16.0087 12.809 16.2008H13.109C13.109 15.9323 13.0184 15.7107 12.8373 15.5295L12.6251 15.7417ZM12.166 15.5578C12.3581 15.5578 12.5024 15.619 12.6251 15.7417L12.8373 15.5295C12.6561 15.3484 12.4346 15.2578 12.166 15.2578V15.5578Z" fill="#C4C4DF"/>
</svg>
