<?xml version="1.0" standalone="no"?>
<!DOCTYPE svg PUBLIC "-//W3C//DTD SVG 20010904//EN"
 "http://www.w3.org/TR/2001/REC-SVG-20010904/DTD/svg10.dtd">
<svg version="1.0" xmlns="http://www.w3.org/2000/svg"
 width="700.000000pt" height="700.000000pt" viewBox="0 0 700.000000 700.000000"
 preserveAspectRatio="xMidYMid meet">
<metadata>
Created by potrace 1.14, written by Peter Selinger 2001-2017
</metadata>
<g transform="translate(0.000000,700.000000) scale(0.100000,-0.100000)"
fill="#000000" stroke="none">
<path d="M265 6981 c-104 -35 -186 -109 -233 -209 l-27 -57 0 -3215 0 -3215
32 -66 c39 -79 111 -150 191 -187 l57 -27 3215 0 3215 0 65 32 c106 52 177
136 206 245 22 82 21 6370 -1 6442 -33 109 -100 188 -205 239 l-65 32 -3200 2
c-3006 2 -3203 1 -3250 -16z"/>
</g>
</svg>
