<svg width="60" height="50" viewBox="0 0 60 50" fill="none" xmlns="http://www.w3.org/2000/svg">
<path d="M50.025 11.075C49.925 10.875 49.725 10.75 49.5 10.75C49.275 10.75 49.075 10.875 48.975 11.075C46.925 15.825 39.5 17.1 39.5 26C39.5 35.075 47.25 36.225 49.1 41.225C49.175 41.4 49.325 41.5 49.5 41.5C49.675 41.5 49.825 41.375 49.9 41.225C51.75 36.225 59.5 35.075 59.5 26C59.5 17.1 52.075 15.825 50.025 11.075Z" fill="#26B99A"/>
<path fill-rule="evenodd" clip-rule="evenodd" d="M48.5278 10.8514C48.7118 10.4833 49.0841 10.25 49.5 10.25C49.9159 10.25 50.2882 10.4833 50.4722 10.8514C50.4764 10.8598 50.4804 10.8683 50.4841 10.8769C50.9565 11.9716 51.7471 12.8861 52.713 13.7953C53.1634 14.2193 53.6437 14.6346 54.1428 15.0663C54.1787 15.0975 54.2148 15.1287 54.251 15.16C54.7858 15.6228 55.3389 16.1042 55.8773 16.6203C58.0525 18.7055 60 21.3712 60 26C60 30.7216 57.966 33.4005 55.7369 35.5042C55.2069 36.0045 54.6642 36.4739 54.1412 36.9264L54.0776 36.9814C53.5319 37.4536 53.0098 37.9071 52.5278 38.3726C51.5638 39.3033 50.7936 40.2507 50.3689 41.3985C50.3626 41.4156 50.3554 41.4323 50.3472 41.4486C50.2155 41.7121 49.9197 42 49.5 42C49.1128 42 48.7893 41.7693 48.6404 41.422C48.6371 41.4142 48.634 41.4064 48.6311 41.3985C48.2064 40.2507 47.4362 39.3033 46.4722 38.3726C45.9902 37.9071 45.4681 37.4536 44.9224 36.9814L44.8588 36.9264C44.3358 36.4739 43.7931 36.0045 43.2631 35.5042C41.034 33.4005 39 30.7216 39 26C39 21.3712 40.9475 18.7055 43.1228 16.6203C43.6611 16.1042 44.2142 15.6228 44.749 15.16C44.7852 15.1287 44.8212 15.0975 44.8572 15.0664C45.3563 14.6347 45.8366 14.2193 46.287 13.7953C47.2529 12.8861 48.0435 11.9716 48.5159 10.8769C48.5196 10.8683 48.5236 10.8598 48.5278 10.8514ZM49.4261 11.2915C48.8728 12.5632 47.9704 13.5841 46.9724 14.5235C46.506 14.9625 46.0104 15.3911 45.5151 15.8195C45.4778 15.8518 45.4406 15.884 45.4033 15.9162C44.8679 16.3795 44.3326 16.8458 43.8147 17.3422C41.765 19.307 40 21.7288 40 26C40 30.3534 41.841 32.787 43.9494 34.777C44.4633 35.262 44.9913 35.7188 45.5183 36.1746L45.5767 36.2252C46.1198 36.6951 46.6622 37.1659 47.1668 37.6532C48.1315 38.5846 48.9892 39.6044 49.5 40.873C50.0108 39.6044 50.8685 38.5846 51.8332 37.6532C52.3378 37.1659 52.8802 36.6951 53.4233 36.2252L53.4818 36.1746C54.0087 35.7187 54.5367 35.262 55.0506 34.777C57.159 32.787 59 30.3534 59 26C59 21.7288 57.235 19.307 55.1853 17.3422C54.6674 16.8458 54.1321 16.3795 53.5967 15.9162C53.5594 15.884 53.5222 15.8518 53.485 15.8196C52.9896 15.3911 52.494 14.9625 52.0276 14.5235C51.0296 13.5841 50.1272 12.5632 49.5739 11.2915C49.5575 11.2642 49.5315 11.25 49.5 11.25C49.4685 11.25 49.4425 11.2642 49.4261 11.2915Z" fill="#33907C"/>
<path fill-rule="evenodd" clip-rule="evenodd" d="M46.5 11.75C46.5 10.9239 47.1739 10.25 48 10.25H51C51.8261 10.25 52.5 10.9239 52.5 11.75V14C52.5 14.1514 52.4314 14.2946 52.3135 14.3895C52.1956 14.4844 52.041 14.5208 51.8932 14.4885C51.1351 14.3226 50.3218 14.25 49.5 14.25C48.6782 14.25 47.8649 14.3226 47.1068 14.4885C46.959 14.5208 46.8044 14.4844 46.6865 14.3895C46.5686 14.2946 46.5 14.1514 46.5 14V11.75ZM48 11.25C47.7261 11.25 47.5 11.4761 47.5 11.75V13.398C48.1559 13.295 48.8304 13.25 49.5 13.25C50.1696 13.25 50.8441 13.295 51.5 13.398V11.75C51.5 11.4761 51.2739 11.25 51 11.25H48Z" fill="#C4C4DF"/>
<path d="M49.5 13.75C50.35 13.75 51.2 13.825 52 14V11.75C52 11.2 51.55 10.75 51 10.75H48C47.45 10.75 47 11.2 47 11.75V14C47.8 13.825 48.65 13.75 49.5 13.75Z" fill="#C4C4DF"/>
<path d="M53.475 15.825C53.45 15.8 53.425 15.775 53.4 15.75C54.625 17.4 55.5 19.5 55.5 22.5C55.5 27.9 52.7 30.325 49.975 32.675C49.95 32.7 49.95 32.7 49.925 32.725C47.675 34.675 44.35 34.675 42.1 32.75C43.1 34.075 44.325 35.15 45.525 36.175C47.175 37.6 48.725 38.95 49.5 40.875C50.275 38.95 51.825 37.6 53.475 36.175C56.2 33.825 59 31.4 59 26C59 20.6 56.2 18.175 53.475 15.825Z" fill="#33907C"/>
<path fill-rule="evenodd" clip-rule="evenodd" d="M46.8788 16.6486C47.059 16.8579 47.0356 17.1736 46.8263 17.3538C45.188 18.7653 43.7011 20.0488 42.8288 21.9349C42.7129 22.1855 42.4157 22.2947 42.1651 22.1788C41.9145 22.0629 41.8053 21.7657 41.9212 21.5151C42.8866 19.4277 44.5204 18.0203 46.113 16.6484C46.1332 16.631 46.1534 16.6136 46.1736 16.5962C46.3828 16.416 46.6986 16.4394 46.8788 16.6486Z" fill="#E4FBE6"/>
<path fill-rule="evenodd" clip-rule="evenodd" d="M49.5 0C49.7761 0 50 0.223858 50 0.5V10.25C50 10.5261 49.7761 10.75 49.5 10.75C49.2239 10.75 49 10.5261 49 10.25V0.5C49 0.223858 49.2239 0 49.5 0Z" fill="#C4C4DF"/>
<path d="M51 11.25H50C50.275 11.25 50.5 11.475 50.5 11.75V13.3C50.825 13.325 51.175 13.375 51.5 13.425V11.75C51.5 11.475 51.275 11.25 51 11.25Z" fill="#ECF0F1"/>
<path d="M11.025 9.575C10.925 9.375 10.725 9.25 10.5 9.25C10.275 9.25 10.075 9.375 9.975 9.575C7.925 14.325 0.5 15.6 0.5 24.5C0.5 33.575 8.25 34.725 10.1 39.725C10.175 39.9 10.325 40 10.5 40C10.675 40 10.825 39.875 10.9 39.725C12.75 34.725 20.5 33.575 20.5 24.5C20.5 15.6 13.075 14.325 11.025 9.575Z" fill="#E64C3C"/>
<path fill-rule="evenodd" clip-rule="evenodd" d="M9.52779 9.35139C9.71181 8.98335 10.0841 8.75 10.5 8.75C10.9159 8.75 11.2882 8.98335 11.4722 9.35139C11.4764 9.35977 11.4804 9.36827 11.4841 9.37687C11.9565 10.4716 12.7471 11.3861 13.713 12.2953C14.1634 12.7193 14.6437 13.1346 15.1428 13.5663C15.1787 13.5975 15.2148 13.6287 15.251 13.66C15.7858 14.1228 16.3388 14.6042 16.8772 15.1203C19.0525 17.2055 21 19.8712 21 24.5C21 29.2216 18.966 31.9005 16.7369 34.0042C16.2069 34.5045 15.6643 34.9739 15.1412 35.4264L15.0776 35.4814C14.5319 35.9535 14.0098 36.4071 13.5278 36.8726C12.5638 37.8033 11.7936 38.7507 11.3689 39.8985C11.3626 39.9156 11.3554 39.9323 11.3472 39.9486C11.2155 40.2121 10.9197 40.5 10.5 40.5C10.1128 40.5 9.78929 40.2693 9.64043 39.922C9.63711 39.9142 9.63399 39.9064 9.63107 39.8985C9.20637 38.7507 8.43619 37.8033 7.47223 36.8726C6.99019 36.4071 6.46809 35.9535 5.92236 35.4814L5.85879 35.4264C5.33578 34.9739 4.79308 34.5045 4.26306 34.0042C2.03401 31.9005 0 29.2216 0 24.5C0 19.8712 1.94749 17.2055 4.12275 15.1203C4.66115 14.6042 5.21415 14.1228 5.749 13.66C5.78516 13.6287 5.82124 13.5975 5.85722 13.5664C6.35632 13.1347 6.83657 12.7193 7.28699 12.2953C8.25292 11.3861 9.04347 10.4716 9.51593 9.37687C9.51964 9.36827 9.5236 9.35977 9.52779 9.35139ZM10.4261 9.7915C9.87285 11.0632 8.9704 12.0841 7.97239 13.0235C7.50597 13.4625 7.0104 13.8911 6.51505 14.3195C6.47781 14.3518 6.44057 14.384 6.40335 14.4162C5.86788 14.8795 5.3326 15.3458 4.81475 15.8422C2.76501 17.807 1 20.2288 1 24.5C1 28.8534 2.84099 31.287 4.94944 33.277C5.46331 33.762 5.9913 34.2188 6.51828 34.6746L6.57666 34.7251C7.1198 35.1951 7.66215 35.6659 8.16684 36.1532C9.13149 37.0846 9.98917 38.1044 10.5 39.373C11.0108 38.1044 11.8685 37.0846 12.8332 36.1532C13.3378 35.6659 13.8802 35.1951 14.4233 34.7251L14.4817 34.6746C15.0087 34.2187 15.5367 33.762 16.0506 33.277C18.159 31.287 20 28.8534 20 24.5C20 20.2288 18.235 17.807 16.1852 15.8422C15.6674 15.3458 15.1321 14.8795 14.5967 14.4162C14.5594 14.384 14.5222 14.3518 14.485 14.3196C13.9896 13.8911 13.494 13.4625 13.0276 13.0235C12.0296 12.0841 11.1271 11.0632 10.5739 9.7915C10.5575 9.76419 10.5315 9.75 10.5 9.75C10.4685 9.75 10.4425 9.76419 10.4261 9.7915Z" fill="#BA1F19"/>
<path fill-rule="evenodd" clip-rule="evenodd" d="M6.64379 16.2124C6.83026 16.4161 6.8163 16.7323 6.61262 16.9188C4.8744 18.5101 3.44967 20.2088 3.09614 23.037C3.06189 23.311 2.81199 23.5054 2.53798 23.4711C2.26397 23.4369 2.06961 23.187 2.10386 22.913C2.50033 19.7412 4.1256 17.8399 5.93737 16.1812C6.14105 15.9947 6.45732 16.0087 6.64379 16.2124Z" fill="#ECF0F1"/>
<path fill-rule="evenodd" clip-rule="evenodd" d="M7.90056 15.7577C8.12774 15.6264 8.21611 15.3392 8.09721 15.1014C7.97372 14.8544 7.67338 14.7543 7.42639 14.8778C7.29874 14.9416 7.1939 15.0482 7.15488 15.0879C7.15159 15.0913 7.14877 15.0941 7.14645 15.0964C6.95118 15.2917 6.95118 15.6083 7.14645 15.8035C7.34171 15.9988 7.65829 15.9988 7.85355 15.8035C7.86655 15.7905 7.87623 15.7809 7.8854 15.772C7.89191 15.7657 7.89684 15.7611 7.90056 15.7577Z" fill="#ECF0F1"/>
<path d="M14.475 14.325C14.45 14.3 14.425 14.275 14.4 14.25C15.625 15.9 16.5 18 16.5 21C16.5 26.4 13.7 28.825 10.975 31.175C10.95 31.2 10.95 31.2 10.925 31.225C8.67501 33.175 5.35001 33.175 3.10001 31.25C4.10001 32.575 5.32501 33.65 6.52501 34.675C8.17501 36.1 9.72501 37.45 10.5 39.375C11.275 37.45 12.825 36.1 14.475 34.675C17.2 32.325 20 29.9 20 24.5C20 19.1 17.2 16.675 14.475 14.325Z" fill="#BA1F19"/>
<path fill-rule="evenodd" clip-rule="evenodd" d="M10.5 0C10.7761 0 11 0.223858 11 0.5V9.25C11 9.52614 10.7761 9.75 10.5 9.75C10.2239 9.75 10 9.52614 10 9.25V0.5C10 0.223858 10.2239 0 10.5 0Z" fill="#C4C4DF"/>
<path d="M10.5 12.25C11.35 12.25 12.2 12.325 13 12.5V10.25C13 9.7 12.55 9.25 12 9.25H9C8.45 9.25 8 9.7 8 10.25V12.5C8.8 12.325 9.65 12.25 10.5 12.25Z" fill="#C4C4DF"/>
<path fill-rule="evenodd" clip-rule="evenodd" d="M7.5 10.25C7.5 9.42386 8.17386 8.75 9 8.75H12C12.8261 8.75 13.5 9.42386 13.5 10.25V12.5C13.5 12.6514 13.4314 12.7946 13.3135 12.8895C13.1956 12.9844 13.041 13.0208 12.8932 12.9885C12.1351 12.8226 11.3218 12.75 10.5 12.75C9.6782 12.75 8.86493 12.8226 8.10685 12.9885C7.95898 13.0208 7.80441 12.9844 7.68649 12.8895C7.56857 12.7946 7.5 12.6514 7.5 12.5V10.25ZM9 9.75C8.72614 9.75 8.5 9.97614 8.5 10.25V11.898C9.15586 11.795 9.83041 11.75 10.5 11.75C11.1696 11.75 11.8441 11.795 12.5 11.898V10.25C12.5 9.97614 12.2739 9.75 12 9.75H9Z" fill="#C4C4DF"/>
<path d="M12 9.75H11C11.275 9.75 11.5 9.975 11.5 10.25V11.8C11.825 11.825 12.175 11.875 12.5 11.925V10.25C12.5 9.975 12.275 9.75 12 9.75Z" fill="#ECF0F1"/>
<path fill-rule="evenodd" clip-rule="evenodd" d="M30 0C30.2761 0 30.5 0.223858 30.5 0.5V11.675C30.5 11.9511 30.2761 12.175 30 12.175C29.7239 12.175 29.5 11.9511 29.5 11.675V0.5C29.5 0.223858 29.7239 0 30 0Z" fill="#C4C4DF"/>
<path d="M30 15.25C31.2 15.25 32.375 15.4 33.5 15.675V13.75C33.5 12.65 32.6 11.75 31.5 11.75H28.5C27.4 11.75 26.5 12.65 26.5 13.75V15.675C27.625 15.4 28.8 15.25 30 15.25Z" fill="#C4C4DF"/>
<path fill-rule="evenodd" clip-rule="evenodd" d="M26 13.75C26 12.3739 27.1239 11.25 28.5 11.25H31.5C32.8761 11.25 34 12.3739 34 13.75V15.675C34 15.8285 33.9295 15.9735 33.8087 16.0683C33.688 16.1631 33.5304 16.1972 33.3813 16.1607C32.2935 15.8948 31.1583 15.75 30 15.75C28.8417 15.75 27.7065 15.8948 26.6187 16.1607C26.4696 16.1972 26.312 16.1631 26.1913 16.0683C26.0705 15.9735 26 15.8285 26 15.675V13.75ZM28.5 12.25C27.6761 12.25 27 12.9261 27 13.75V15.0514C27.9722 14.8554 28.977 14.75 30 14.75C31.023 14.75 32.0278 14.8554 33 15.0514V13.75C33 12.9261 32.3239 12.25 31.5 12.25H28.5Z" fill="#C4C4DF"/>
<path d="M34.45 37.5L30.05 33.5L25.65 37.5L21.25 33.5L16.85 37.5L16.8 37.45C19.375 42.1 24.325 45.25 30 45.25C35.675 45.25 40.625 42.1 43.175 37.45L38.825 33.5L34.45 37.5Z" fill="#F0C419"/>
<path fill-rule="evenodd" clip-rule="evenodd" d="M20.9137 33.13C21.1044 32.9567 21.3956 32.9567 21.5863 33.13L25.65 36.8243L29.7137 33.13C29.9044 32.9567 30.1956 32.9567 30.3863 33.13L34.449 36.8234L38.4876 33.131C38.6782 32.9568 38.97 32.9563 39.1611 33.1298L43.5111 37.0798C43.6823 37.2352 43.7246 37.4877 43.6134 37.6904C40.9789 42.4944 35.8644 45.75 30 45.75C24.1353 45.75 19.0218 42.4943 16.3626 37.6922C16.2419 37.4742 16.3001 37.2006 16.4992 37.0506C16.5606 37.0044 16.6296 36.9743 16.7008 36.9599L20.9137 33.13ZM17.4699 37.6122C20.0186 41.8873 24.6808 44.75 30 44.75C35.3454 44.75 40.0259 41.8592 42.543 37.5515L38.8262 34.1764L34.7874 37.869C34.5968 38.0433 34.3048 38.0437 34.1137 37.87L30.05 34.1757L25.9863 37.87C25.7956 38.0433 25.5044 38.0433 25.3137 37.87L21.25 34.1757L17.4699 37.6122Z" fill="#D79400"/>
<path d="M21.275 23L25.675 27L30.075 23L34.475 27L38.875 23L43.275 27L44.425 25.95C42.525 19.75 36.8 15.25 30 15.25C23.2 15.25 17.45 19.775 15.625 25.975L16.9 27L21.275 23Z" fill="#F0C419"/>
<path fill-rule="evenodd" clip-rule="evenodd" d="M15.0904 25.8338C16.9766 19.426 22.9182 14.75 29.9451 14.75C36.9727 14.75 42.8861 19.4011 44.8481 25.8035C44.9047 25.9882 44.8499 26.189 44.7072 26.3192L43.5572 27.3692C43.3666 27.5433 43.0748 27.5436 42.8837 27.37L38.8201 23.6757L34.7564 27.37C34.5657 27.5433 34.2744 27.5433 34.0837 27.37L30.0201 23.6757L25.9564 27.37C25.7657 27.5433 25.4744 27.5433 25.2837 27.37L21.221 23.6766L17.1824 27.369C17.0004 27.5355 16.7241 27.5443 16.5318 27.3897L15.2568 26.3647C15.0989 26.2378 15.0332 26.0281 15.0904 25.8338ZM16.1475 25.7977L16.8241 26.3416L20.8827 22.631C21.0733 22.4567 21.3653 22.4563 21.5564 22.63L25.6201 26.3243L29.6837 22.63C29.8744 22.4567 30.1657 22.4567 30.3564 22.63L34.4201 26.3243L38.4837 22.63C38.6744 22.4567 38.9657 22.4567 39.1564 22.63L43.2193 26.3236L43.7966 25.7966C41.8683 19.9545 36.4074 15.75 29.9451 15.75C23.489 15.75 18.0118 19.9696 16.1475 25.7977Z" fill="#D79400"/>
<path d="M44.375 25.95L43.225 27L38.825 23L34.425 27L30.025 23L25.625 27L21.275 23L16.875 27L15.6 25.975C15.2 27.325 14.975 28.75 14.975 30.25C14.975 32.85 15.65 35.3 16.8 37.45L16.85 37.5L21.25 33.5L25.65 37.5L30.05 33.5L34.45 37.5L38.85 33.5L43.175 37.45C44.35 35.325 45 32.85 45 30.25C45 28.75 44.775 27.325 44.375 25.95Z" fill="#ECF0F1"/>
<path fill-rule="evenodd" clip-rule="evenodd" d="M20.9387 22.63C21.1302 22.4559 21.4229 22.4568 21.6134 22.632L25.6269 26.3225L29.6887 22.63C29.8794 22.4567 30.1706 22.4567 30.3613 22.63L34.425 26.3243L38.4887 22.63C38.6794 22.4567 38.9706 22.4567 39.1613 22.63L43.2243 26.3236L44.0379 25.5808C44.1654 25.4643 44.344 25.4219 44.5102 25.4686C44.6765 25.5153 44.8069 25.6445 44.8551 25.8103C45.2672 27.2269 45.5 28.6989 45.5 30.25C45.5 32.9332 44.8292 35.4916 43.6126 37.692C43.5385 37.8259 43.4071 37.9186 43.2561 37.9434C43.105 37.9682 42.9509 37.9224 42.8378 37.8192L38.8492 34.1764L34.7863 37.87C34.5956 38.0433 34.3044 38.0433 34.1137 37.87L30.05 34.1757L25.9863 37.87C25.7956 38.0433 25.5044 38.0433 25.3137 37.87L21.25 34.1757L17.1863 37.87C16.9889 38.0495 16.6852 38.0423 16.4965 37.8536L16.4465 37.8036C16.4117 37.7688 16.3823 37.7292 16.3591 37.6858C15.1729 35.4682 14.475 32.9376 14.475 30.25C14.475 28.6992 14.7077 27.2264 15.1206 25.833C15.168 25.6732 15.2918 25.5475 15.4509 25.4977C15.61 25.448 15.7834 25.4809 15.9133 25.5853L16.855 26.3424L20.9387 22.63ZM38.825 23.6757L34.7613 27.37C34.5706 27.5433 34.2794 27.5433 34.0887 27.37L30.025 23.6757L25.9613 27.37C25.7698 27.5441 25.4771 27.5432 25.2866 27.3681L21.2731 23.6775L17.2113 27.37C17.0292 27.5356 16.7536 27.5439 16.5617 27.3897L15.8835 26.8444C15.6198 27.9321 15.475 29.0671 15.475 30.25C15.475 32.56 16.0263 34.7491 16.9808 36.7054L20.9137 33.13C21.1044 32.9567 21.3956 32.9567 21.5863 33.13L25.65 36.8243L29.7137 33.13C29.9044 32.9567 30.1956 32.9567 30.3863 33.13L34.45 36.8243L38.5137 33.13C38.7047 32.9564 38.9966 32.9567 39.1872 33.1308L43.0328 36.643C43.9796 34.7242 44.5 32.5389 44.5 30.25C44.5 29.084 44.3594 27.964 44.1023 26.8761L43.5621 27.3692C43.3715 27.5433 43.0797 27.5436 42.8887 27.37L38.825 23.6757Z" fill="#D79400"/>
<path d="M20.9387 22.63C21.1302 22.4559 21.4229 22.4568 21.6135 22.632L25.6269 26.3225L29.6887 22.63C29.8794 22.4567 30.1706 22.4567 30.3614 22.63L34.425 26.3243L38.4887 22.63C38.6794 22.4567 38.9707 22.4567 39.1614 22.63L40.86 24.18L41.15 25.79L38.825 23.6757L34.7614 27.37C34.5707 27.5433 34.2794 27.5433 34.0887 27.37L30.025 23.6757L25.9614 27.37C25.7698 27.5441 25.4771 27.5432 25.2866 27.3681L21.2731 23.6775L17.2114 27.37C17.0292 27.5356 16.7536 27.5439 16.5617 27.3897L15.8835 26.8444L16.15 25.78L16.8551 26.3424L20.9387 22.63Z" fill="#F0C419"/>
<path d="M38.8492 34.1764L34.7864 37.87C34.5957 38.0433 34.3044 38.0433 34.1137 37.87L30.05 34.1757L25.9864 37.87C25.7956 38.0433 25.5044 38.0433 25.3137 37.87L21.25 34.1757L17.47 37.61L16.9808 36.7054L20.9137 33.13C21.1044 32.9567 21.3956 32.9567 21.5864 33.13L25.65 36.8243L29.7137 33.13C29.9044 32.9567 30.1956 32.9567 30.3864 33.13L34.45 36.8243L38.5137 33.13C38.7047 32.9564 38.9966 32.9567 39.1872 33.1308L39.8585 33.7439L39.3521 34.6357L38.8492 34.1764Z" fill="#F0C419"/>
<path d="M31.5 12.25H30.5C31.325 12.25 32 12.925 32 13.75V14.875C32.325 14.925 32.675 14.975 33 15.025V13.75C33 12.925 32.325 12.25 31.5 12.25Z" fill="#ECF0F1"/>
<path d="M39 29.25C39.5523 29.25 40 28.8023 40 28.25C40 27.6977 39.5523 27.25 39 27.25C38.4477 27.25 38 27.6977 38 28.25C38 28.8023 38.4477 29.25 39 29.25Z" fill="#F0C419"/>
<path d="M34.75 33.25C35.3023 33.25 35.75 32.8023 35.75 32.25C35.75 31.6977 35.3023 31.25 34.75 31.25C34.1977 31.25 33.75 31.6977 33.75 32.25C33.75 32.8023 34.1977 33.25 34.75 33.25Z" fill="#F0C419"/>
<path d="M29.75 29.25C30.3023 29.25 30.75 28.8023 30.75 28.25C30.75 27.6977 30.3023 27.25 29.75 27.25C29.1977 27.25 28.75 27.6977 28.75 28.25C28.75 28.8023 29.1977 29.25 29.75 29.25Z" fill="#F0C419"/>
<path d="M25.5 33.25C26.0523 33.25 26.5 32.8023 26.5 32.25C26.5 31.6977 26.0523 31.25 25.5 31.25C24.9477 31.25 24.5 31.6977 24.5 32.25C24.5 32.8023 24.9477 33.25 25.5 33.25Z" fill="#F0C419"/>
<path d="M21 29.25C21.5523 29.25 22 28.8023 22 28.25C22 27.6977 21.5523 27.25 21 27.25C20.4477 27.25 20 27.6977 20 28.25C20 28.8023 20.4477 29.25 21 29.25Z" fill="#F0C419"/>
<path d="M17.25 33.25C17.8023 33.25 18.25 32.8023 18.25 32.25C18.25 31.6977 17.8023 31.25 17.25 31.25C16.6977 31.25 16.25 31.6977 16.25 32.25C16.25 32.8023 16.6977 33.25 17.25 33.25Z" fill="#F0C419"/>
<path d="M37.675 17.9299C39.2 19.6799 40.3 21.85 40.85 24.175L43.23 26.325L43.84 25.7599C42.79 22.4599 40.525 19.7049 37.675 17.9299Z" fill="#D79400"/>
<path d="M44.1 26.875L43.5626 27.3663C43.3715 27.541 43.0786 27.5409 42.8876 27.366L41.15 25.775C41.225 26.325 41.25 26.9 41.25 27.5C41.25 29.725 40.75 31.85 39.85 33.75L43.025 36.65C44 34.675 44.5 32.475 44.5 30.275C44.5 29.1 44.375 27.975 44.1 26.875Z" fill="#C4C4DF"/>
<path d="M42.75 33.25C43.3023 33.25 43.75 32.8023 43.75 32.25C43.75 31.6977 43.3023 31.25 42.75 31.25C42.1977 31.25 41.75 31.6977 41.75 32.25C41.75 32.8023 42.1977 33.25 42.75 33.25Z" fill="#D79400"/>
<path d="M39.35 34.65C36.85 39.025 32.15 42 26.75 42C23.95 42 21.325 41.2 19.1 39.825C21.825 42.925 25.775 44.75 30 44.75C35.175 44.75 39.925 42 42.525 37.55L39.35 34.65Z" fill="#D79400"/>
<path fill-rule="evenodd" clip-rule="evenodd" d="M27.1584 17.5472C27.229 17.8142 27.0698 18.0878 26.8028 18.1584C24.7127 18.711 22.8379 19.7922 21.3228 21.2592C21.1244 21.4513 20.8079 21.4462 20.6158 21.2478C20.4237 21.0494 20.4288 20.7329 20.6272 20.5408C22.2621 18.9578 24.2874 17.789 26.5472 17.1916C26.8142 17.121 27.0878 17.2802 27.1584 17.5472Z" fill="#ECF0F1"/>
</svg>
