<svg width="60" height="50" viewBox="0 0 60 50" fill="none" xmlns="http://www.w3.org/2000/svg">
<path fill-rule="evenodd" clip-rule="evenodd" d="M2 6C2.27614 6 2.5 6.22386 2.5 6.5V9.5C2.5 9.77614 2.27614 10 2 10C1.72386 10 1.5 9.77614 1.5 9.5V6.5C1.5 6.22386 1.72386 6 2 6Z" fill="#F0C419"/>
<path fill-rule="evenodd" clip-rule="evenodd" d="M0 8C0 7.72386 0.223858 7.5 0.5 7.5H3.5C3.77614 7.5 4 7.72386 4 8C4 8.27614 3.77614 8.5 3.5 8.5H0.5C0.223858 8.5 0 8.27614 0 8Z" fill="#F0C419"/>
<path fill-rule="evenodd" clip-rule="evenodd" d="M38.75 9.25C39.0261 9.25 39.25 9.47386 39.25 9.75V12.75C39.25 13.0261 39.0261 13.25 38.75 13.25C38.4739 13.25 38.25 13.0261 38.25 12.75V9.75C38.25 9.47386 38.4739 9.25 38.75 9.25Z" fill="#F0C419"/>
<path fill-rule="evenodd" clip-rule="evenodd" d="M36.75 11.25C36.75 10.9739 36.9739 10.75 37.25 10.75H40.25C40.5261 10.75 40.75 10.9739 40.75 11.25C40.75 11.5261 40.5261 11.75 40.25 11.75H37.25C36.9739 11.75 36.75 11.5261 36.75 11.25Z" fill="#F0C419"/>
<path fill-rule="evenodd" clip-rule="evenodd" d="M57.25 4.25C57.5261 4.25 57.75 4.47386 57.75 4.75V7.75C57.75 8.02614 57.5261 8.25 57.25 8.25C56.9739 8.25 56.75 8.02614 56.75 7.75V4.75C56.75 4.47386 56.9739 4.25 57.25 4.25Z" fill="#C4C4DF"/>
<path fill-rule="evenodd" clip-rule="evenodd" d="M55.25 6.25C55.25 5.97386 55.4739 5.75 55.75 5.75H58.75C59.0261 5.75 59.25 5.97386 59.25 6.25C59.25 6.52614 59.0261 6.75 58.75 6.75H55.75C55.4739 6.75 55.25 6.52614 55.25 6.25Z" fill="#C4C4DF"/>
<path fill-rule="evenodd" clip-rule="evenodd" d="M5.75 40.5C6.02614 40.5 6.25 40.7239 6.25 41V44C6.25 44.2761 6.02614 44.5 5.75 44.5C5.47386 44.5 5.25 44.2761 5.25 44V41C5.25 40.7239 5.47386 40.5 5.75 40.5Z" fill="#C4C4DF"/>
<path fill-rule="evenodd" clip-rule="evenodd" d="M3.75 42.5C3.75 42.2239 3.97386 42 4.25 42H7.25C7.52614 42 7.75 42.2239 7.75 42.5C7.75 42.7761 7.52614 43 7.25 43H4.25C3.97386 43 3.75 42.7761 3.75 42.5Z" fill="#C4C4DF"/>
<path fill-rule="evenodd" clip-rule="evenodd" d="M54.75 43.75C55.0261 43.75 55.25 43.9739 55.25 44.25V47.25C55.25 47.5261 55.0261 47.75 54.75 47.75C54.4739 47.75 54.25 47.5261 54.25 47.25V44.25C54.25 43.9739 54.4739 43.75 54.75 43.75Z" fill="#F0C419"/>
<path fill-rule="evenodd" clip-rule="evenodd" d="M52.75 45.75C52.75 45.4739 52.9739 45.25 53.25 45.25H56.25C56.5261 45.25 56.75 45.4739 56.75 45.75C56.75 46.0261 56.5261 46.25 56.25 46.25H53.25C52.9739 46.25 52.75 46.0261 52.75 45.75Z" fill="#F0C419"/>
</svg>
