<?xml version="1.0" standalone="no"?>
<!DOCTYPE svg PUBLIC "-//W3C//DTD SVG 20010904//EN"
 "http://www.w3.org/TR/2001/REC-SVG-20010904/DTD/svg10.dtd">
<svg version="1.0" xmlns="http://www.w3.org/2000/svg"
 width="919.000000pt" height="919.000000pt" viewBox="0 0 919.000000 919.000000"
 preserveAspectRatio="xMidYMid meet">
<metadata>
Created by potrace 1.14, written by Peter Selinger 2001-2017
</metadata>
<g transform="translate(0.000000,919.000000) scale(0.100000,-0.100000)"
fill="#000000" stroke="none">
<path d="M4328 9035 c-2 -1 -86 -6 -188 -9 -102 -4 -203 -8 -225 -10 -22 -2
-83 -7 -135 -11 -52 -4 -111 -9 -130 -11 -19 -2 -64 -6 -100 -9 -36 -3 -81 -8
-100 -11 -60 -8 -93 -12 -151 -19 -31 -3 -65 -7 -75 -9 -11 -2 -46 -7 -79 -10
-71 -8 -109 -14 -150 -23 -16 -3 -37 -7 -45 -8 -39 -5 -108 -16 -133 -21 -16
-3 -38 -7 -50 -9 -113 -18 -429 -85 -617 -131 -102 -25 -194 -47 -205 -49 -11
-1 -21 -4 -22 -5 -2 -1 -7 -4 -13 -5 -5 -1 -11 -3 -12 -5 -3 -2 -7 -2 -63 -15
-42 -9 -60 -13 -62 -15 -2 -2 -6 -3 -10 -4 -25 -6 -71 -17 -88 -21 -199 -44
-452 -120 -553 -166 -35 -16 -68 -29 -73 -29 -5 0 -9 -5 -9 -12 0 -6 -3 -8 -7
-5 -11 12 -266 -143 -304 -185 -9 -10 -21 -18 -27 -18 -17 0 -293 -280 -287
-291 4 -5 2 -9 -3 -9 -11 0 -112 -135 -112 -150 0 -5 -8 -14 -17 -19 -10 -6
-15 -11 -10 -11 4 0 -4 -17 -17 -38 -41 -65 -105 -199 -99 -206 4 -3 1 -6 -5
-6 -7 0 -11 -3 -10 -7 1 -5 -5 -21 -12 -38 -7 -16 -15 -39 -17 -49 -2 -11 -8
-25 -14 -33 -6 -7 -8 -13 -4 -13 4 0 2 -7 -5 -15 -7 -8 -10 -15 -6 -15 3 0 1
-12 -5 -27 -6 -16 -12 -35 -14 -43 -2 -8 -10 -44 -19 -80 -8 -36 -17 -83 -20
-105 -3 -22 -10 -69 -15 -105 -5 -36 -8 -141 -6 -235 3 -140 9 -198 35 -325
16 -85 33 -162 37 -170 3 -8 7 -19 9 -25 1 -5 17 -62 34 -125 18 -63 33 -121
33 -127 0 -7 3 -13 7 -13 3 0 6 -9 7 -20 1 -12 11 -51 22 -88 24 -79 102 -350
106 -366 1 -6 5 -19 9 -28 4 -9 9 -22 10 -30 2 -7 6 -20 9 -28 14 -38 50 -156
50 -167 0 -7 3 -13 7 -13 4 0 7 -6 7 -12 0 -7 13 -51 29 -98 15 -47 29 -87 29
-90 1 -3 4 -12 8 -20 3 -8 22 -60 42 -115 37 -103 51 -137 67 -168 5 -10 6
-22 3 -27 -4 -6 1 -13 10 -16 9 -4 14 -12 11 -19 -2 -7 2 -22 9 -33 8 -10 11
-22 8 -26 -3 -3 -1 -6 6 -6 7 0 9 -4 6 -10 -3 -6 -1 -10 5 -10 7 0 10 -6 8
-12 -3 -7 6 -38 19 -68 14 -30 28 -64 33 -75 25 -62 62 -145 113 -255 17 -36
30 -68 29 -72 -1 -5 3 -8 10 -8 6 0 8 -3 5 -7 -4 -3 0 -15 10 -25 9 -10 14
-18 11 -18 -3 0 30 -72 73 -160 44 -89 79 -165 79 -169 0 -5 7 -14 15 -21 8
-7 12 -16 9 -21 -3 -5 -2 -9 3 -9 4 0 15 -15 22 -32 26 -57 223 -403 232 -406
5 -2 7 -7 4 -12 -3 -5 1 -14 8 -22 14 -14 16 -17 24 -48 3 -11 12 -20 21 -20
8 0 13 -3 9 -6 -6 -7 155 -272 201 -329 4 -5 19 -28 32 -50 13 -22 28 -42 32
-43 4 -2 8 -10 8 -18 0 -8 5 -14 10 -14 6 0 10 -6 10 -12 0 -11 55 -91 98
-143 4 -5 17 -26 29 -45 12 -20 30 -45 40 -57 10 -12 25 -31 33 -43 20 -30
172 -232 185 -247 5 -6 21 -26 35 -44 14 -18 33 -41 43 -51 9 -10 17 -20 17
-23 0 -4 18 -27 45 -59 18 -21 110 -131 120 -144 5 -7 20 -23 33 -34 12 -12
22 -25 22 -29 0 -4 17 -25 38 -47 20 -21 54 -59 75 -83 123 -141 187 -208 580
-613 237 -244 303 -310 338 -334 12 -8 35 -29 50 -45 16 -16 29 -27 29 -23 0
4 7 1 15 -6 32 -29 45 -38 45 -33 0 3 11 -6 25 -21 14 -15 25 -23 25 -19 0 4
15 -4 33 -17 39 -30 257 -140 312 -158 22 -7 45 -15 50 -19 6 -3 16 -6 23 -7
8 -2 21 -6 30 -10 9 -4 22 -8 27 -9 6 -2 34 -10 63 -18 28 -9 52 -13 52 -10 0
3 6 1 13 -4 6 -5 28 -10 47 -12 19 -2 39 -5 44 -9 5 -3 25 -7 45 -9 203 -21
224 -21 471 -11 13 0 167 27 252 43 15 3 39 10 53 15 14 5 25 7 25 4 0 -4 7
-1 15 6 8 7 15 9 15 5 0 -4 7 -2 15 5 8 7 15 9 15 5 0 -4 7 -2 15 5 8 7 15 9
15 6 0 -4 10 -1 23 6 12 6 27 13 32 14 6 1 24 8 40 15 17 7 33 12 38 11 4 -1
7 2 7 8 0 5 6 10 14 10 20 0 206 99 237 126 8 8 20 14 26 14 6 0 13 7 17 15 3
8 12 15 20 15 8 0 21 6 28 13 7 7 33 28 58 47 24 19 57 46 73 60 50 45 294
290 313 315 10 13 21 22 26 19 4 -3 8 -1 8 4 0 6 64 75 143 155 175 179 302
315 422 452 33 38 70 80 83 94 13 14 35 40 50 59 15 19 33 41 41 49 15 16 61
70 111 133 19 24 43 52 53 62 9 10 15 18 12 18 -5 0 15 25 60 76 11 12 27 32
35 44 27 40 84 115 91 120 3 3 15 19 25 36 11 17 32 46 47 65 15 19 63 86 107
149 44 63 84 120 90 127 5 7 10 15 10 18 0 3 15 26 34 52 98 137 319 498 419
683 22 41 45 78 51 82 7 5 7 8 1 8 -7 0 -7 3 0 8 6 4 21 27 33 52 13 25 55
105 93 178 38 72 66 132 62 132 -4 0 -2 4 5 9 7 4 14 16 16 25 1 10 7 21 12
24 5 4 10 12 11 18 1 5 26 62 56 125 92 194 128 272 148 324 11 28 26 64 34
82 8 17 15 34 15 37 0 3 11 29 23 58 13 29 30 69 37 88 7 19 18 49 26 65 24
57 76 200 77 213 0 6 4 12 7 12 7 0 24 58 21 73 0 4 4 7 10 7 5 0 8 3 6 8 -3
4 0 18 6 32 5 14 11 32 13 41 2 9 9 29 15 45 7 16 11 35 10 42 -1 6 3 12 9 12
5 0 9 3 8 8 -2 11 11 55 48 167 40 120 124 407 141 480 6 26 9 37 16 55 3 8
12 35 18 60 7 25 13 47 14 50 1 3 5 19 10 35 4 17 20 75 36 131 35 122 76 300
86 375 4 30 8 137 8 239 0 222 -7 288 -50 462 -14 54 -36 126 -50 160 -14 34
-25 66 -25 71 0 15 -136 284 -151 297 -3 3 -16 23 -29 44 -63 104 -198 258
-325 371 -92 82 -352 255 -383 255 -5 0 -15 7 -22 15 -7 9 -15 13 -18 11 -3
-3 -17 1 -31 8 -35 19 -90 42 -121 51 -14 4 -29 11 -35 15 -5 4 -64 21 -130
38 -66 18 -165 43 -220 58 -55 14 -118 30 -140 35 -22 5 -57 13 -77 19 -88 24
-107 27 -112 22 -4 -3 -6 -1 -6 4 0 5 -14 11 -32 12 -17 2 -37 7 -44 13 -6 5
-16 9 -20 7 -5 -1 -34 4 -64 12 -69 18 -58 15 -105 25 -22 4 -44 10 -50 13 -5
3 -16 7 -25 8 -8 1 -26 4 -40 7 -61 14 -361 76 -392 81 -18 3 -44 8 -58 11
-14 3 -41 8 -60 11 -19 3 -51 7 -70 11 -19 3 -46 6 -60 8 -14 2 -25 4 -25 5 0
1 -11 3 -25 5 -14 2 -43 6 -65 10 -22 3 -52 7 -66 9 -15 2 -32 6 -38 10 -6 4
-11 1 -11 -6 0 -8 -3 -9 -8 -3 -4 6 -18 11 -32 11 -14 1 -44 4 -66 8 -23 4
-57 8 -75 11 -107 12 -167 18 -191 19 -16 1 -28 3 -28 6 0 3 -26 5 -58 6 -31
0 -93 4 -137 8 -244 21 -395 28 -752 31 -177 1 -323 1 -325 0z"/>
</g>
</svg>
