<svg width="24" height="24" viewBox="0 0 24 24" fill="none" xmlns="http://www.w3.org/2000/svg">
<path fill-rule="evenodd" clip-rule="evenodd" d="M5.39673 3C4.07514 3 3 4.07518 3 5.39676V18.6033C3 19.9249 4.07514 21 5.39673 21H12C12.5138 21 12.9293 20.5845 12.9293 20.0707C12.9293 19.5569 12.5138 19.1413 12 19.1413H5.39673C5.09978 19.1413 4.8587 18.9002 4.8587 18.6033V5.39676C4.8587 5.09982 5.09981 4.85873 5.39673 4.85873H12C12.5138 4.85873 12.9293 4.44319 12.9293 3.9294C12.9293 3.41564 12.5138 3 12 3H5.39673Z" fill="#7F8FA4"/>
<path d="M20.5841 11.4796L16.1232 7.07744C15.8356 6.79276 15.3704 6.79645 15.0857 7.08479C14.8011 7.37312 14.804 7.83755 15.0931 8.12223L18.281 11.2683H9.73856C9.33283 11.2683 9.00488 11.5963 9.00488 12.002C9.00488 12.4077 9.33283 12.7357 9.73856 12.7357H18.281L15.0931 15.8818C14.804 16.1664 14.8018 16.6309 15.0857 16.9192C15.2295 17.0645 15.4188 17.1378 15.6081 17.1378C15.7945 17.1378 15.9808 17.0674 16.1232 16.9265L20.5841 12.5243C20.7235 12.3864 20.8027 12.1986 20.8027 12.0019C20.8027 11.8054 20.7242 11.6183 20.5841 11.4796Z" fill="#7F8FA4"/>
<path fill-rule="evenodd" clip-rule="evenodd" d="M16.2612 6.93833C16.2612 6.93835 16.2611 6.93831 16.2612 6.93833L20.7218 11.3403C20.8988 11.5155 20.9987 11.7527 20.9987 12.0019C20.9987 12.2512 20.8982 12.489 20.722 12.6634L16.2612 17.0655C16.0806 17.2443 15.8441 17.3334 15.6085 17.3334C15.3686 17.3334 15.1287 17.2404 14.947 17.0568C14.5877 16.6919 14.5898 16.1033 14.956 15.7425M14.956 15.7425L17.8045 12.9313H9.7389C9.22511 12.9313 8.80957 12.5157 8.80957 12.0019C8.80957 11.4881 9.22512 11.0726 9.7389 11.0726H17.8045L14.9562 8.26158C14.9561 8.26156 14.9562 8.2616 14.9562 8.26158C14.59 7.90096 14.5863 7.3125 14.9469 6.94727C15.3071 6.58241 15.8963 6.57721 16.2612 6.93833M15.9859 7.21643C15.7756 7.00825 15.4344 7.0104 15.2253 7.22219C15.0166 7.43361 15.0187 7.77402 15.2307 7.98276L18.7581 11.4639H9.7389C9.44123 11.4639 9.20087 11.7042 9.20087 12.0019C9.20087 12.2996 9.44124 12.54 9.7389 12.54H18.7581L15.2309 16.021C15.0192 16.2294 15.017 16.5701 15.2254 16.7818C15.3312 16.8886 15.4698 16.9421 15.6085 16.9421C15.7456 16.9421 15.8818 16.8904 15.9859 16.7874L20.4468 12.3852C20.5494 12.2837 20.6074 12.1458 20.6074 12.0019C20.6074 11.8581 20.5501 11.721 20.447 11.6188M20.447 11.6188L15.9859 7.21643L20.447 11.6188Z" fill="#7F8FA4"/>
</svg>
