<svg width="44" height="44" viewBox="0 0 44 44" fill="none" xmlns="http://www.w3.org/2000/svg">
<path d="M16.343 14.9288L14.929 13.5148C14.539 13.1243 13.905 13.1243 13.515 13.5148C13.1245 13.9053 13.1245 14.5383 13.515 14.9288L14.929 16.3428C15.124 16.5383 15.38 16.6358 15.636 16.6358C15.892 16.6358 16.148 16.5383 16.343 16.3428C16.7335 15.9523 16.7335 15.3193 16.343 14.9288Z" fill="white"/>
<path d="M13 21H11C10.448 21 10 21.448 10 22C10 22.552 10.448 23 11 23H13C13.552 23 14 22.552 14 22C14 21.448 13.552 21 13 21Z" fill="white"/>
<path d="M16.343 27.6568C15.953 27.2663 15.319 27.2663 14.929 27.6568L13.515 29.0708C13.1245 29.4613 13.1245 30.0943 13.515 30.4848C13.71 30.6803 13.966 30.7778 14.222 30.7778C14.478 30.7778 14.734 30.6803 14.929 30.4848L16.343 29.0708C16.7335 28.6803 16.7335 28.0473 16.343 27.6568Z" fill="white"/>
<path d="M22 30C21.448 30 21 30.448 21 31V33C21 33.552 21.448 34 22 34C22.552 34 23 33.552 23 33V31C23 30.448 22.552 30 22 30Z" fill="white"/>
<path d="M30.4851 29.0708L29.0711 27.6568C28.6811 27.2663 28.0471 27.2663 27.6571 27.6568C27.2666 28.0473 27.2666 28.6803 27.6571 29.0708L29.0711 30.4848C29.2661 30.6803 29.5221 30.7778 29.7781 30.7778C30.0341 30.7778 30.2901 30.6803 30.4851 30.4848C30.8756 30.0943 30.8756 29.4613 30.4851 29.0708Z" fill="white"/>
<path d="M33 21H31C30.448 21 30 21.448 30 22C30 22.552 30.448 23 31 23H33C33.552 23 34 22.552 34 22C34 21.448 33.552 21 33 21Z" fill="white"/>
<path d="M30.4851 13.5148C30.0951 13.1243 29.4611 13.1243 29.0711 13.5148L27.6571 14.9288C27.2666 15.3193 27.2666 15.9523 27.6571 16.3428C27.8521 16.5383 28.1081 16.6358 28.3641 16.6358C28.6201 16.6358 28.8761 16.5383 29.0711 16.3428L30.4851 14.9288C30.8756 14.5383 30.8756 13.9053 30.4851 13.5148Z" fill="white"/>
<path d="M22 10C21.448 10 21 10.448 21 11V13C21 13.552 21.448 14 22 14C22.552 14 23 13.552 23 13V11C23 10.448 22.552 10 22 10Z" fill="white"/>
<path d="M22 15.5C18.416 15.5 15.5 18.416 15.5 22C15.5 25.584 18.416 28.5 22 28.5C25.584 28.5 28.5 25.584 28.5 22C28.5 18.416 25.584 15.5 22 15.5ZM22 26.5C19.519 26.5 17.5 24.481 17.5 22C17.5 19.519 19.519 17.5 22 17.5C24.481 17.5 26.5 19.519 26.5 22C26.5 24.481 24.481 26.5 22 26.5Z" fill="white"/>
</svg>
