<svg width="20" height="20" viewBox="0 0 20 20" fill="none" xmlns="http://www.w3.org/2000/svg">
<path fill-rule="evenodd" clip-rule="evenodd" d="M13.0585 11.8032L12.9796 11.9367L14.5839 13.541C14.8719 13.829 14.8719 14.2959 14.5839 14.5839C14.2959 14.8719 13.829 14.8719 13.541 14.5839L11.9367 12.9796L11.8032 13.0585C11.2748 13.3708 10.6587 13.5499 9.99994 13.5499C9.3412 13.5499 8.72509 13.3708 8.19669 13.0585L8.06318 12.9796L6.45889 14.5839C6.17087 14.8719 5.704 14.8719 5.41598 14.5839C5.12794 14.2959 5.12794 13.829 5.41598 13.541L7.02027 11.9367L6.94136 11.8032C6.62908 11.2748 6.44994 10.6587 6.44994 9.99995C6.44994 9.34121 6.62908 8.7251 6.94136 8.1967L7.02027 8.06319L5.41598 6.45893C5.12794 6.17093 5.12794 5.70397 5.41598 5.41596C5.704 5.12795 6.17087 5.12795 6.45889 5.41596L8.06316 7.02022L8.19667 6.94134C8.72509 6.62915 9.34121 6.44995 9.99994 6.44995C10.6587 6.44995 11.2748 6.62915 11.8032 6.94134L11.9367 7.02022L13.541 5.41596C13.829 5.12795 14.2959 5.12795 14.5839 5.41596C14.8719 5.70397 14.8719 6.17093 14.5839 6.45894L12.9796 8.06319L13.0585 8.1967C13.3708 8.7251 13.5499 9.34121 13.5499 9.99995C13.5499 10.6587 13.3708 11.2748 13.0585 11.8032ZM7.92494 9.99995C7.92494 11.1459 8.85398 12.0749 9.99994 12.0749C11.1459 12.0749 12.0749 11.1459 12.0749 9.99995C12.0749 8.85399 11.1459 7.92495 9.99994 7.92495C8.85398 7.92495 7.92494 8.85399 7.92494 9.99995Z" fill="#04A8F0"/>
<path fill-rule="evenodd" clip-rule="evenodd" d="M0.200195 4.6877C0.200195 2.20931 2.20931 0.200195 4.6877 0.200195H15.3127C17.7911 0.200195 19.8002 2.20931 19.8002 4.6877V15.3127C19.8002 17.7911 17.7911 19.8002 15.3127 19.8002H4.6877C2.20931 19.8002 0.200195 17.7911 0.200195 15.3127V4.6877ZM4.6877 1.6752C3.02394 1.6752 1.6752 3.02394 1.6752 4.6877V15.3127C1.6752 16.9764 3.02394 18.3252 4.6877 18.3252H15.3127C16.9764 18.3252 18.3252 16.9764 18.3252 15.3127V4.6877C18.3252 3.02394 16.9764 1.6752 15.3127 1.6752H4.6877Z" fill="#04A8F0"/>
</svg>
