<svg width="6" height="10" viewBox="0 0 6 10" fill="none" xmlns="http://www.w3.org/2000/svg">
<path d="M4.90057 4.78425L4.90045 4.78458L4.91326 4.78806C5.04592 4.82411 5.16789 4.89174 5.26874 4.98517C5.36885 5.07792 5.4452 5.19336 5.49136 5.32176C5.53108 5.44406 5.54259 5.57378 5.52502 5.70118C5.50731 5.82958 5.46053 5.95225 5.38823 6.05983L5.38772 6.06059L3.18443 9.36552L3.18366 9.3667C3.10651 9.48385 3.00162 9.58013 2.8783 9.64699C2.75498 9.71385 2.61706 9.74921 2.47679 9.74993L2.47523 9.74995C2.31093 9.75183 2.15018 9.70214 2.0156 9.60788L2.00909 9.60332L2.00229 9.59918C1.90638 9.54072 1.82299 9.46388 1.7569 9.37306C1.69081 9.28225 1.64334 9.17926 1.61722 9.07003C1.5911 8.96079 1.58684 8.84746 1.6047 8.73658C1.62236 8.62686 1.66133 8.52167 1.71938 8.42694L3.11624 6.31516L3.29678 6.04222L2.98597 5.9398L1.04836 5.30127C1.04817 5.30121 1.04799 5.30115 1.04781 5.30109C0.923207 5.25919 0.809992 5.18901 0.717035 5.09606C0.624121 5.00314 0.55397 4.88999 0.512066 4.76546C0.471788 4.64254 0.460039 4.51205 0.477714 4.38391C0.495425 4.25551 0.542209 4.13285 0.614504 4.02527L0.615015 4.0245L2.8183 0.719576L2.82493 0.70962L2.83059 0.699075C2.8866 0.594651 2.96379 0.503065 3.05722 0.430176C3.15065 0.357286 3.25826 0.304695 3.37317 0.275767C3.48809 0.246839 3.60777 0.24221 3.72457 0.262176C3.84138 0.282142 3.95273 0.326264 4.05151 0.39172C4.15029 0.457176 4.23432 0.542526 4.29823 0.642312C4.36214 0.742097 4.40453 0.85412 4.42267 0.971219C4.44082 1.08832 4.43433 1.20792 4.40362 1.32237C4.37291 1.43682 4.31865 1.5436 4.24432 1.63588L4.23696 1.64501L4.2305 1.65478L2.83141 3.76993L2.65087 4.04287L2.96168 4.1453L4.90057 4.78425Z" fill="#04A8F0" stroke="#D8E2FF" stroke-width="0.5"/>
</svg>
