<svg width="24" height="24" viewBox="0 0 24 24" fill="none" xmlns="http://www.w3.org/2000/svg">
<path d="M12 20C14.1217 20 16.1567 19.1571 17.6569 17.6569C19.1571 16.1565 20 14.1218 20 12C20 9.8782 19.1571 7.84334 17.6569 6.34313C16.1565 4.84289 14.1218 4 12 4C9.8782 4 7.84334 4.84289 6.34313 6.34313C4.84289 7.84352 4 9.8782 4 12C4 14.1218 4.84289 16.1567 6.34313 17.6569C7.84352 19.1571 9.8782 20 12 20ZM12 5.77769C13.6503 5.77769 15.2329 6.43327 16.3997 7.60026C17.5667 8.76711 18.2223 10.3497 18.2223 12C18.2223 13.6502 17.5667 15.2329 16.3997 16.3997C15.2329 17.5667 13.6502 18.2222 12 18.2222C10.3498 18.2222 8.76708 17.5667 7.60029 16.3997C6.4333 15.2328 5.77773 13.6502 5.77773 12C5.77773 10.9077 6.06528 9.83472 6.61147 8.88885C7.15753 7.94284 7.94298 7.15739 8.88899 6.61133C9.83486 6.06513 10.9078 5.77759 12.0001 5.77759L12 5.77769Z" fill="#FD3C43"/>
<path d="M14.4267 9.57331C14.3289 9.47556 14.1709 9.47556 14.0732 9.57331L12 11.6465L9.9268 9.57331C9.82905 9.47556 9.67106 9.47556 9.57331 9.57331C9.47556 9.67106 9.47556 9.82906 9.57331 9.92681L11.6465 12L9.57331 14.0733C9.47556 14.171 9.47556 14.329 9.57331 14.4268C9.62206 14.4755 9.68606 14.5 9.75006 14.5C9.81405 14.5 9.87805 14.4755 9.9268 14.4268L12 12.3535L14.0732 14.4268C14.1219 14.4755 14.1859 14.5 14.2499 14.5C14.3139 14.5 14.3779 14.4755 14.4267 14.4268C14.5244 14.329 14.5244 14.171 14.4267 14.0733L12.3535 12L14.4267 9.92681C14.5244 9.82906 14.5244 9.67106 14.4267 9.57331Z" fill="#FD3C43" stroke="#FD3C43"/>
</svg>
