<svg width="20" height="11" viewBox="0 0 20 11" fill="none" xmlns="http://www.w3.org/2000/svg">
<path d="M7.17969 4.1853C6.6274 4.1853 6.17969 4.63302 6.17969 5.1853C6.17969 5.73759 6.6274 6.1853 7.17969 6.1853V4.1853ZM13.476 6.1853C14.0283 6.1853 14.476 5.73759 14.476 5.1853C14.476 4.63302 14.0283 4.1853 13.476 4.1853V6.1853ZM7.17969 6.1853H13.476V4.1853H7.17969V6.1853Z" fill="#04A8F0"/>
<path fill-rule="evenodd" clip-rule="evenodd" d="M7.17949 1C7.17949 0.447715 6.73177 0 6.17949 0H5.18518C2.32149 0 0 2.32149 0 5.18519C0 8.04888 2.32149 10.3704 5.18518 10.3704H6.17949C6.73177 10.3704 7.17949 9.92266 7.17949 9.37037C7.17949 8.81809 6.73177 8.37037 6.17949 8.37037H5.18518C3.42606 8.37037 2 6.94431 2 5.18519C2 3.42606 3.42606 2 5.18518 2H6.17949C6.73177 2 7.17949 1.55228 7.17949 1ZM13.5613 9.37037C13.5613 8.81809 14.009 8.37037 14.5613 8.37037H14.8148C16.5739 8.37037 18 6.94431 18 5.18519C18 3.42606 16.5739 2 14.8148 2H14.5613C14.009 2 13.5613 1.55228 13.5613 1C13.5613 0.447715 14.009 0 14.5613 0H14.8148C17.6785 0 20 2.32149 20 5.18519C20 8.04888 17.6785 10.3704 14.8148 10.3704H14.5613C14.009 10.3704 13.5613 9.92266 13.5613 9.37037Z" fill="#04A8F0"/>
</svg>
