<svg width="17" height="18" viewBox="0 0 17 18" fill="none" xmlns="http://www.w3.org/2000/svg">
<path fill-rule="evenodd" clip-rule="evenodd" d="M7.71625 0.123389L0.913047 4.03306L4.08116 4.74427L7.71625 0.123389ZM0.660156 6.75001V12.4384L1.24946 11.3335L0.660156 6.75001ZM0.660156 12.588V13.2336L0.69195 13.1694V13.1695L0.660156 13.2337L7.17282 16.9764L1.64121 11.8739L1.12745 12.8372L0.660156 12.588ZM9.6074 17.1474L16.4174 13.2337L16.314 13.0251L15.9723 13.1878L15.3488 11.8782L9.6074 17.1474ZM16.3141 13.025L16.4175 13.2337V12.9758L16.3141 13.025ZM16.4175 12.7271V6.50944L15.7545 11.3347L16.4175 12.7271ZM16.1531 4.02621L8.99093 -0.0899658L15.2649 10.4905L16.1531 4.02621ZM0.997266 4.6669L3.78513 5.29274L1.71415 10.2426L0.997266 4.6669ZM14.2976 11.0833L2.01004 11.0899L4.34686 5.50467L14.2976 11.0833ZM8.44558 0.166707L4.65264 4.98824L14.6171 10.5746L8.44558 0.166707ZM2.32646 11.6898L14.6741 11.6831L8.48095 17.3668L2.32646 11.6898Z" fill="white"/>
</svg>
