<svg width="14" height="20" viewBox="0 0 14 20" fill="none" xmlns="http://www.w3.org/2000/svg">
<path d="M13.4615 5.46894V2.38462C13.4611 2.01752 13.3151 1.66558 13.0555 1.40601C12.796 1.14643 12.444 1.00042 12.0769 1H2.38462C2.01752 1.00042 1.66558 1.14643 1.40601 1.40601C1.14643 1.66558 1.00042 2.01752 1 2.38462V5.5C1.00051 5.71486 1.05077 5.92669 1.14686 6.11887C1.24295 6.31104 1.38225 6.47835 1.55384 6.60768L6.07695 10L1.55388 13.3923C1.38228 13.5216 1.24297 13.6889 1.14687 13.8811C1.05078 14.0733 1.0005 14.2851 1 14.5V17.6154C1.00042 17.9825 1.14643 18.3344 1.40601 18.594C1.66558 18.8536 2.01752 18.9996 2.38462 19H12.0769C12.444 18.9996 12.796 18.8536 13.0555 18.594C13.3151 18.3344 13.4611 17.9825 13.4615 17.6154V14.5311C13.461 14.3171 13.4111 14.1061 13.3158 13.9145C13.2204 13.723 13.0822 13.5559 12.9118 13.4265L8.37884 10L12.9119 6.57353C13.0822 6.44405 13.2204 6.27703 13.3158 6.08546C13.4111 5.89389 13.461 5.68292 13.4615 5.46894ZM11.5769 2.38462C11.8531 2.38462 12.0769 2.60847 12.0769 2.88462V4.90853C12.0769 5.18467 11.8531 5.40853 11.5769 5.40853H2.88461C2.60847 5.40853 2.38462 5.18467 2.38462 4.90853V2.88462C2.38462 2.60847 2.60847 2.38462 2.88462 2.38462H11.5769ZM12.0769 17.1154C12.0769 17.3915 11.8531 17.6154 11.5769 17.6154H2.88461C2.60847 17.6154 2.38462 17.3915 2.38462 17.1154V14.75C2.38462 14.5926 2.45871 14.4444 2.58462 14.35L6.92799 11.0925C7.10632 10.9587 7.35166 10.9592 7.52949 11.0936L11.8784 14.381C12.0034 14.4755 12.0769 14.6232 12.0769 14.7799V17.1154Z" fill="#F09F36" stroke="#F09F36" stroke-width="0.4" stroke-linejoin="round"/>
</svg>
