<svg width="20" height="20" viewBox="0 0 20 20" fill="none" xmlns="http://www.w3.org/2000/svg">
<g clip-path="url(#clip0_818_4928)">
<path d="M19.2694 6.23805C18.782 5.03187 18.0495 3.90102 17.0741 2.92586C16.099 1.95059 14.9681 1.21797 13.762 0.730586C12.5556 0.243047 11.2741 0 9.99305 0C8.71383 0 7.43457 0.244102 6.23074 0.732187C5.02707 1.22008 3.89891 1.95258 2.92578 2.92586C1.95254 3.89895 1.22 5.02711 0.732109 6.23082C0.244102 7.43457 0 8.71379 0 9.99301C0 11.274 0.243047 12.5556 0.730508 13.762C1.21789 14.9681 1.95047 16.099 2.92578 17.0742C3.90094 18.0495 5.0318 18.7821 6.23797 19.2695C7.4443 19.757 8.72586 20 10.0069 20C11.2861 20 12.5654 19.7559 13.7692 19.2678C14.9729 18.7799 16.101 18.0474 17.0741 17.0741C18.0474 16.101 18.78 14.9729 19.2679 13.7692C19.7559 12.5654 20 11.2862 20 10.0069C20 8.72594 19.757 7.44434 19.2694 6.23805ZM18.0318 13.268C17.6089 14.3104 16.9762 15.2855 16.1309 16.131C15.2855 16.9763 14.3103 17.609 13.268 18.0317C12.2259 18.4543 11.1165 18.6661 10.0069 18.6661C8.89453 18.6661 7.78242 18.455 6.73785 18.0328C5.69316 17.6104 4.71598 16.9778 3.86906 16.131C3.02223 15.2841 2.38961 14.3069 1.9673 13.2622C1.54512 12.2176 1.33395 11.1055 1.33398 9.99309C1.33398 8.88348 1.54586 7.77418 1.9684 6.73203C2.39109 5.68973 3.02379 4.71453 3.86914 3.8691C4.71457 3.02379 5.68977 2.39109 6.73211 1.96836C7.77426 1.54578 8.88359 1.33395 9.9932 1.33395C11.1056 1.33395 12.2177 1.54508 13.2623 1.9673C14.307 2.38969 15.2841 3.02227 16.1311 3.86906C16.9779 4.71602 17.6105 5.69316 18.0328 6.73785C18.455 7.78242 18.6662 8.89453 18.6662 10.0069C18.6662 11.1165 18.4543 12.2258 18.0318 13.268Z" fill="#04A8F0"/>
<path d="M12.3695 5.56005C12.1512 5.43431 11.8742 5.51245 11.7507 5.73453L7.25895 13.8102C7.13541 14.0323 7.21219 14.3142 7.4304 14.4399C7.5011 14.4806 7.57788 14.5 7.65366 14.5C7.81194 14.5 7.96568 14.4156 8.04923 14.2654L12.541 6.18976C12.6645 5.96769 12.5877 5.68573 12.3695 5.56005Z" fill="#04A8F0" stroke="#04A8F0" stroke-width="0.4"/>
<path d="M8.69833 8.87352C8.99841 8.35308 9.07787 7.74694 8.92209 7.16678C8.7663 6.58662 8.39391 6.10177 7.87348 5.80169C7.3531 5.50157 6.74705 5.42215 6.16674 5.57789C5.58654 5.73367 5.10174 6.10607 4.80167 6.6265C4.50159 7.14694 4.42213 7.75308 4.57791 8.33329C4.7337 8.91345 5.10614 9.39825 5.62657 9.69838C5.97288 9.89804 6.35707 10.0001 6.74635 10C6.94212 10 7.13919 9.97421 7.3333 9.92208C7.91346 9.76635 8.39826 9.39395 8.69833 8.87352ZM6.12581 8.83243C5.83668 8.6657 5.62977 8.39637 5.54321 8.07405C5.45664 7.75173 5.50077 7.41492 5.6675 7.12584C5.83418 6.83671 6.10357 6.6298 6.42589 6.54329C6.53374 6.5143 6.64319 6.49995 6.75195 6.49995C6.96821 6.49995 7.18167 6.55668 7.37404 6.66758C7.66317 6.83432 7.87008 7.10365 7.95664 7.42602C8.04321 7.74834 7.99908 8.0851 7.83235 8.37418C7.66567 8.66331 7.39633 8.87022 7.07396 8.95673C6.75165 9.04335 6.41494 8.99912 6.12581 8.83243Z" fill="#04A8F0" stroke="#04A8F0" stroke-width="0.4"/>
<path d="M14.1735 10.3017C13.6531 10.0016 13.047 9.92213 12.4668 10.0779C11.8866 10.2337 11.4018 10.6061 11.1017 11.1265C10.8016 11.647 10.7222 12.2531 10.878 12.8333C11.0337 13.4135 11.4062 13.8983 11.9266 14.1984C12.2729 14.398 12.6571 14.5 13.0464 14.5C13.2421 14.5 13.4391 14.4742 13.6333 14.4221C14.2135 14.2663 14.6983 13.8939 14.9984 13.3735C15.2985 12.853 15.3779 12.2469 15.2221 11.6667C15.0664 11.0866 14.694 10.6018 14.1735 10.3017ZM14.1325 12.8742C13.9658 13.1633 13.6964 13.3702 13.3741 13.4567C13.0518 13.5434 12.715 13.4992 12.426 13.3325C12.1368 13.1658 11.9299 12.8964 11.8434 12.5741C11.7568 12.2518 11.8009 11.915 11.9677 11.6259C12.1343 11.3368 12.4037 11.1299 12.726 11.0434C12.8339 11.0144 12.9433 11 13.0521 11C13.2684 11 13.4818 11.0567 13.6742 11.1677C13.9633 11.3344 14.1702 11.6037 14.2568 11.9261C14.3434 12.2483 14.2992 12.5851 14.1325 12.8742Z" fill="#04A8F0" stroke="#04A8F0" stroke-width="0.4"/>
</g>
<defs>
<clipPath id="clip0_818_4928">
<rect width="20" height="20" fill="white"/>
</clipPath>
</defs>
</svg>
