<svg width="84" height="84" viewBox="0 0 84 84" fill="none" xmlns="http://www.w3.org/2000/svg">
<path d="M42 84C65.196 84 84 65.196 84 42C84 18.8041 65.196 0 42 0C18.8041 0 0 18.8041 0 42C0 65.196 18.8041 84 42 84Z" fill="#F87171"/>
<path d="M41.8385 32.0057C40.9096 31.1785 39.0681 30.0379 35.8729 30.0529C32.6776 30.0678 33.1998 31.6799 33.1998 31.6799C33.1998 31.6799 33.1344 32.9952 35.2214 33.0362C37.3084 33.0769 39.5458 33.158 41.3609 33.8231C43.176 34.4883 42.7684 32.8314 41.8385 32.0057Z" fill="black"/>
<path d="M34.287 35.0102C34.0949 35.1235 34.0457 35.4423 34.2684 35.4826C35.5304 35.7076 37.5265 36.1169 39.7532 35.7652C39.9641 35.732 39.9326 35.4504 39.7799 35.3046C38.99 34.5482 36.8685 33.4878 34.287 35.0102Z" fill="black"/>
<path d="M60.5425 56.1645C60.5132 56.1242 60.4735 56.0923 60.4269 56.0727C60.3807 56.0532 60.3296 56.0467 60.2798 56.0538C60.2296 56.061 60.1828 56.0815 60.144 56.1131C60.1053 56.1447 60.076 56.186 60.06 56.2329C58.7613 60.0113 57.6979 59.0857 57.2066 58.2733C57.036 57.9862 56.9087 57.6765 56.8286 57.3539C55.5891 52.5271 56.7241 48.0813 56.7241 48.0813C57.3987 50.1357 59.1679 50.7449 60.0743 50.923C60.1261 50.9334 60.1795 50.9292 60.2287 50.9106C60.2778 50.8924 60.3205 50.8605 60.3521 50.8195C60.3833 50.7781 60.4022 50.7286 60.4058 50.6775C60.4097 50.6261 60.3986 50.5746 60.3735 50.5294C56.9009 43.8686 58.954 41.0458 58.954 41.0458C59.5518 41.696 60.537 41.7543 61.1576 41.7205C61.21 41.7175 61.2604 41.7003 61.3031 41.6706C61.3457 41.641 61.3789 41.6 61.3988 41.5528C61.4187 41.5052 61.4249 41.4535 61.4161 41.403C61.4073 41.3525 61.3838 41.3053 61.349 41.2672C58.8326 38.5483 58.6411 37.6259 58.5431 33.0212C58.4894 30.4693 57.5732 29.1273 56.7215 28.4283C55.747 27.6294 54.9692 26.6116 54.5437 25.4372C51.1485 16.097 44.7958 14.8628 38.9008 15.2123C31.5825 15.6468 27.6861 21.1284 25.8364 23.8598C23.8797 26.7477 22.3549 31.0179 22.4578 32.3246C22.5608 33.6311 23.7928 33.4266 23.7928 34.937C23.7928 36.4477 21.4075 37.7038 22.3452 41.9503C22.7594 43.8214 24.4362 45.224 23.6819 49.4983C22.3332 57.18 28.3496 66.5138 29.8486 67.9063C30.0304 68.0737 30.3496 67.9385 30.3167 67.696C30.0826 65.9815 30.4252 63.6028 30.4252 63.6028C33.4395 69.9259 41.8724 68.7531 44.5135 68.2107C44.5695 68.1993 44.6206 68.1713 44.6597 68.1306C44.6988 68.0899 44.7242 68.0382 44.732 67.9828C44.7401 67.9275 44.7303 67.8711 44.7043 67.8213C44.6782 67.7715 44.6372 67.7308 44.5868 67.7048C41.9199 66.3184 41.3104 63.5022 41.3104 63.5022C43.9642 64.7316 45.6644 64.5255 46.4839 64.2617C46.5337 64.2455 46.5777 64.2158 46.6109 64.1758C46.6441 64.1361 46.6653 64.0879 46.6715 64.0368C46.678 63.9857 46.6692 63.9339 46.6467 63.8877C46.6242 63.8411 46.5888 63.802 46.5442 63.7744C45.7449 63.2834 44.5265 61.2557 43.6048 59.2712C43.2265 58.4524 43.092 57.5457 43.2177 56.6555C43.343 55.7651 43.7233 54.928 44.3142 54.24C45.3926 52.9807 46.8072 51.2229 48.4156 49.355C48.7519 48.9614 49.2198 49.3456 49.3969 49.7721C51.7466 55.53 54.8035 59.8703 56.9107 61.0668C58.4386 61.9902 60.1121 62.1562 60.8642 61.5754C62.9375 59.9751 61.2936 57.2145 60.5425 56.1645ZM35.1032 50.8058C32.5829 50.9546 33.1572 47.7486 31.3059 47.8271C29.3227 47.9137 29.917 50.3584 28.5868 50.5072C27.2566 50.656 27.4118 46.9174 28.3455 46.4834C29.8164 45.8019 31.5391 45.6382 32.9182 45.6854C34.5523 45.7404 36.1135 45.6782 36.8461 47.2163C37.7137 49.0307 37.6229 50.6609 35.1032 50.8058ZM51.0421 27.8954C47.6912 29.8443 47.4939 30.8078 47.014 34.235C46.9078 34.9881 46.8001 35.8698 47.1523 36.3682C47.9477 37.4928 49.4604 38.3256 49.0453 40.2251C48.0562 44.7454 45.4479 50.0452 41.9495 51.7015C41.5282 51.9007 41.0457 51.4977 40.9477 51.0503C40.5577 49.259 39.6295 46.0018 39.3788 44.9385C38.1328 38.8469 32.1961 38.7625 32.0297 39.9275C31.9806 40.2739 33.2321 40.7304 34.0265 40.9837C34.7558 41.22 34.7809 42.2384 34.0545 42.4794C33.8641 42.5386 33.6658 42.5699 33.4659 42.5722C31.9983 42.4738 30.1365 42.5855 29.2969 42.6454C29.0159 42.6659 28.7371 42.5836 28.5149 42.4139C28.2928 42.244 28.1432 41.9995 28.0954 41.7276C27.7673 39.863 28.3471 39.1946 29.0484 37.4238C29.3974 36.5421 29.8454 34.7647 30.0006 33.8531C30.081 33.3644 30.0465 32.7771 29.9942 32.3372C29.9307 31.817 29.9057 31.293 29.9194 30.7692C29.9692 29.0792 30.1405 27.6994 31.4554 27.6994C33.824 27.6994 38.8357 27.7065 39.6295 26.5667C40.462 25.3734 35.8166 26.5305 30.8249 26.3731C30.7273 26.3699 30.6342 26.332 30.563 26.2665C30.4918 26.2011 30.4474 26.1125 30.4381 26.0173C30.4381 25.9874 30.4325 25.9582 30.4293 25.9284C30.4217 25.8431 30.4323 25.7572 30.4602 25.676C30.4881 25.5949 30.5328 25.5203 30.5915 25.4568C30.6502 25.3934 30.7217 25.3424 30.8014 25.3072C30.8812 25.272 30.9675 25.2533 31.0549 25.2522C33.7208 25.2199 35.7492 25.0389 36.2825 24.2785C36.8246 23.5008 34.1304 23.8495 31.0767 23.8771C30.6858 23.8771 30.3625 23.8716 30.3826 23.4898V23.4772C30.3908 23.3257 30.4557 23.1825 30.5648 23.0748C30.674 22.9671 30.8198 22.9024 30.9745 22.8932C32.7711 22.7774 33.5368 22.6436 33.6124 22.0816C33.6879 21.5196 33.4275 21.5763 31.441 21.688C31.0091 21.7117 31.1329 21.3913 31.3782 21.041C31.9983 20.1476 34.7705 17.5706 40.9041 17.7587C51.4122 18.0861 51.0802 25.3703 51.4018 27.1397C51.4275 27.2865 51.407 27.4376 51.3429 27.5727C51.2788 27.7078 51.1736 27.8203 51.0421 27.8954Z" fill="black"/>
</svg>
