<svg width="24" height="24" viewBox="0 0 24 24" fill="none" xmlns="http://www.w3.org/2000/svg">
<path d="M12 20C14.1217 20 16.1567 19.1571 17.6569 17.6569C19.1571 16.1565 20 14.1218 20 12C20 9.8782 19.1571 7.84334 17.6569 6.34313C16.1565 4.84289 14.1218 4 12 4C9.8782 4 7.84334 4.84289 6.34313 6.34313C4.84289 7.84352 4 9.8782 4 12C4 14.1218 4.84289 16.1567 6.34313 17.6569C7.84352 19.1571 9.8782 20 12 20ZM12 5.77769C13.6503 5.77769 15.2329 6.43327 16.3997 7.60026C17.5667 8.76711 18.2223 10.3497 18.2223 12C18.2223 13.6502 17.5667 15.2329 16.3997 16.3997C15.2329 17.5667 13.6502 18.2222 12 18.2222C10.3498 18.2222 8.76708 17.5667 7.60029 16.3997C6.4333 15.2328 5.77773 13.6502 5.77773 12C5.77773 10.9077 6.06528 9.83472 6.61147 8.88885C7.15753 7.94284 7.94298 7.15739 8.88899 6.61133C9.83486 6.06513 10.9078 5.77759 12.0001 5.77759L12 5.77769Z" fill="#4AC25B"/>
<path fill-rule="evenodd" clip-rule="evenodd" d="M15.7788 10.2691L11.1998 14.782C10.9049 15.0727 10.4275 15.0727 10.1334 14.782L8.22061 12.8976C7.92646 12.607 7.92646 12.1364 8.22061 11.8458C8.51552 11.5558 8.99295 11.5558 9.2871 11.8458L10.6666 13.2054L14.7123 9.21799C15.0065 8.92734 15.4839 8.92734 15.7788 9.21799C16.0737 9.5079 16.0737 9.97844 15.7788 10.2691Z" fill="#4AC25B"/>
</svg>
