<svg width="24" height="24" viewBox="0 0 24 24" fill="none" xmlns="http://www.w3.org/2000/svg">
<circle cx="11.997" cy="6.77333" r="2.77333" fill="white"/>
<path fill-rule="evenodd" clip-rule="evenodd" d="M17.1191 6.02384C17.1191 6.02398 17.1191 6.02413 17.1191 6.02427C17.1191 8.85197 14.8268 11.1443 11.9991 11.1443C9.17144 11.1443 6.87913 8.85197 6.87913 6.02427L6.87903 6.0113C6.98491 4.63908 5.81011 4.64032 5.49122 5.01551L5.49157 5.01577C5.46772 5.03764 5.44493 5.06242 5.42335 5.09025C4.33068 6.49947 3.68018 8.26928 3.68018 10.1912C3.68018 11.8828 5.2831 12.961 6.97473 12.961H17.0256C18.7173 12.961 20.3202 11.8828 20.3202 10.1912C20.3202 8.2687 19.6693 6.49841 18.576 5.08899C18.5468 5.05132 18.5154 5.01925 18.4821 4.9924C18.1344 4.63963 17.0038 4.66807 17.1166 6.02566L17.1191 6.02384Z" fill="white"/>
<path d="M12.8728 19.4862L15.206 16.1287C15.6975 15.4215 15.1913 14.4534 14.33 14.4534H11.9969H9.66373C8.80243 14.4534 8.29629 15.4214 8.78779 16.1287L11.121 19.4862C11.5453 20.0968 12.4485 20.0968 12.8728 19.4862Z" fill="white"/>
</svg>
