<svg width="42" height="42" viewBox="0 0 42 42" fill="none" xmlns="http://www.w3.org/2000/svg">
<rect width="42" height="42" rx="21" fill="#232323"/>
<path d="M21 33C27.6274 33 33 27.6274 33 21C33 14.3726 27.6274 9 21 9C14.3726 9 9 14.3726 9 21C9 27.6274 14.3726 33 21 33Z" fill="url(#paint0_linear_271_171)"/>
<path d="M18.4644 25.6709C17.9819 25.6709 17.5928 26.0239 17.5928 26.5429C17.5928 27.062 17.9767 27.4305 18.4644 27.4305C18.9937 27.4305 19.3517 27.0775 19.3517 26.5429C19.3517 26.0083 18.9989 25.6709 18.4644 25.6709Z" fill="white"/>
<path d="M24.0989 15.6014H16.4199C16.4199 15.6014 16.3939 15.6014 16.3836 15.6014C15.9529 15.6014 15.6001 15.9492 15.6001 16.3852C15.6001 16.8212 15.9477 17.169 16.3836 17.169C16.3991 17.169 16.4095 17.169 16.4199 17.169H24.0989C25.2559 17.169 25.9201 17.8801 25.9201 18.913C25.9201 19.9459 25.23 20.6362 24.1145 20.6362H20.0415C18.4797 20.6362 17.7066 21.5394 17.7066 22.7955V23.5481C17.7066 23.5481 17.7066 23.5585 17.7066 23.5637C17.7066 23.9737 18.0387 24.3059 18.4486 24.3059C18.8585 24.3059 19.1906 23.9737 19.1906 23.5637C19.1906 23.5533 19.1906 23.5429 19.1906 23.5377V22.8629C19.1906 22.3491 19.4967 22.0896 20.0415 22.0896H24.13C26.2366 22.0896 27.5285 20.6881 27.5285 18.8195C27.5285 16.951 26.3196 15.6118 24.0989 15.6118V15.6014Z" fill="white"/>
<defs>
<linearGradient id="paint0_linear_271_171" x1="9" y1="21" x2="33" y2="21" gradientUnits="userSpaceOnUse">
<stop stop-color="#F857A6"/>
<stop offset="1" stop-color="#FF5858"/>
</linearGradient>
</defs>
</svg>
