<svg width="20" height="18" viewBox="0 0 20 18" fill="none" xmlns="http://www.w3.org/2000/svg">
<path d="M17.5 17.5C18.1631 17.5 18.799 17.2365 19.2678 16.7675C19.7366 16.2985 20 15.6624 20 14.999V7.85349C20 7.05757 19.6838 6.2943 19.1213 5.73153C18.5587 5.16853 17.7958 4.85249 16.9999 4.85249H3.42216C3.05392 4.85272 2.69994 4.70999 2.43452 4.4542C2.16932 4.19864 2.01373 3.84996 2.00014 3.48178C2.0135 3.0887 2.17724 2.71578 2.45762 2.44006C2.73799 2.16456 3.11346 2.0071 3.50666 2.00076H16.9997C17.2649 2.00076 17.5195 2.10611 17.707 2.2937C17.8945 2.48129 17.9998 2.73572 17.9998 3.001V3.3388C17.9998 3.69631 18.1903 4.02638 18.4999 4.20519C18.8093 4.38395 19.1904 4.38395 19.4998 4.20519C19.8091 4.02644 19.9998 3.69634 19.9998 3.3388V3.001C19.9998 2.20508 19.6837 1.44181 19.1211 0.879038C18.5586 0.316039 17.7956 0 16.9997 0H3.422C2.51495 0.00158588 1.64552 0.362948 1.00417 1.00455C0.362823 1.64615 0.0017973 2.51595 0 3.42329V13.4984C0 14.5596 0.421467 15.5775 1.17155 16.3279C1.92163 17.0782 2.93917 17.4998 3.99998 17.4998L17.5 17.5ZM18 11.829L14.5454 11.8292C14.2709 11.8256 14.0489 11.6038 14.0455 11.329V10.7442C14.0455 10.4681 14.2693 10.2442 14.5454 10.2442H18.0063L18 11.829ZM1.99998 13.4985V6.54149C2.44545 6.74834 2.93104 6.85482 3.42199 6.85324H16.9997C17.2649 6.85324 17.5195 6.95859 17.707 7.14618C17.8945 7.33377 17.9998 7.5882 17.9998 7.85348V8.23682H14.5452C13.8816 8.23863 13.2457 8.50348 12.7771 8.97359C12.3085 9.44347 12.0454 10.0803 12.0454 10.7441V11.3484C12.0522 12.0076 12.3183 12.6379 12.7861 13.1024C13.254 13.5668 13.8862 13.8281 14.5452 13.8299H18.0061V14.9991C18.0061 15.2755 17.7824 15.4992 17.5063 15.4992H3.99989C3.46949 15.4992 2.96082 15.2885 2.58577 14.9132C2.21049 14.5381 1.99998 14.0291 1.99998 13.4985Z"/>
</svg>
